{"glyphs":{"0":{"ha":520,"x_min":0,"x_max":0,"o":"m 240 -70 b 330 -50 269 -70 298 -63 b 462 123 388 -20 432 38 b 507 334 491 209 506 279 b 507 418 507 388 507 416 b 463 718 507 524 492 623 b 328 936 433 813 388 886 b 252 962 305 954 279 962 b 146 893 204 962 170 939 b 117 747 127 854 117 805 b 123 655 117 720 119 689 b 14 275 50 513 14 387 b 14 244 14 264 14 254 b 98 -2 22 125 50 43 b 240 -70 148 -47 195 -70 z m 270 38 b 249 43 263 38 256 39 b 191 238 216 58 197 123 l 191 260 b 208 425 191 315 197 370 b 215 456 212 446 214 456 b 235 433 222 447 229 439 l 241 425 b 262 414 250 418 258 414 b 269 427 267 414 269 418 b 235 525 269 440 258 473 b 292 652 257 587 277 629 b 310 695 304 673 310 688 b 304 711 310 701 308 706 b 259 733 292 726 277 733 b 243 731 254 733 249 732 b 173 704 218 726 195 717 b 168 770 169 725 168 747 b 197 889 168 820 177 859 b 250 924 212 912 230 924 b 296 907 264 924 280 918 b 410 680 336 880 374 804 b 439 455 429 602 439 526 b 431 345 439 417 436 380 b 359 115 415 243 391 165 b 270 38 326 63 296 38 z "},"1":{"ha":296,"x_min":0,"x_max":0,"o":"m 181 -48 b 208 -42 191 -48 199 -46 b 237 1 219 -36 229 -22 b 237 3 237 3 237 3 b 239 7 238 3 238 5 b 244 147 239 23 241 70 b 273 664 254 376 263 549 b 283 802 279 716 283 762 b 273 906 283 844 279 878 b 195 962 260 943 233 962 b 145 937 171 962 154 954 b 121 858 136 920 127 894 b 70 761 119 846 102 814 b 21 681 38 707 22 681 b 14 676 16 681 14 680 b 32 650 14 659 20 650 b 56 670 38 650 46 657 b 102 734 85 713 101 734 b 103 727 102 732 103 729 b 102 717 103 725 102 722 b 94 512 96 682 94 614 b 102 109 94 403 96 269 b 113 -5 102 54 105 16 b 166 -47 119 -28 137 -41 b 181 -48 171 -47 176 -48 z "},"2":{"ha":380,"x_min":0,"x_max":0,"o":"m 73 -52 b 102 -46 85 -52 95 -50 b 124 -27 110 -43 117 -36 b 175 -9 136 -16 153 -9 b 254 -18 196 -9 222 -12 b 315 -24 280 -22 301 -24 b 348 1 337 -24 348 -16 b 318 24 348 12 338 20 b 203 34 296 29 258 33 b 162 37 176 34 162 35 b 173 61 162 39 165 47 b 332 481 235 176 288 317 b 367 738 355 582 367 667 b 355 847 367 779 363 816 b 285 976 332 930 309 974 b 245 980 260 979 248 980 b 131 867 202 980 164 942 b 91 718 112 818 98 768 b 80 593 83 668 80 627 b 113 486 80 524 91 488 b 127 493 122 486 127 489 b 123 499 127 495 125 497 b 120 530 121 502 120 512 l 119 558 b 157 812 120 655 132 740 b 213 929 182 884 200 923 b 235 937 226 935 233 937 b 258 853 251 937 258 909 l 258 817 b 194 494 248 700 227 592 b 93 231 161 395 127 308 b 16 18 55 146 29 75 b 14 -5 15 9 14 1 b 21 -35 14 -18 16 -27 b 65 -52 28 -47 43 -52 z "},"3":{"ha":414,"x_min":0,"x_max":0,"o":"m 161 -71 b 241 -50 189 -71 216 -64 b 339 52 285 -24 317 9 b 372 178 361 95 372 138 b 284 323 372 246 342 294 b 260 332 273 329 264 332 b 256 333 257 332 256 332 b 262 345 256 334 258 338 b 391 659 342 493 385 598 b 401 780 397 719 401 760 b 362 928 401 844 388 894 b 271 979 337 962 307 979 b 112 854 210 979 157 938 b 56 556 75 784 56 685 b 77 439 56 477 62 439 l 80 439 b 87 457 85 439 87 446 l 100 619 b 160 835 111 717 130 789 b 227 904 190 880 212 903 l 248 905 b 294 838 279 905 294 882 b 262 661 294 782 283 723 b 191 475 240 595 216 533 b 138 323 155 395 138 345 b 140 309 138 317 138 313 b 182 287 149 294 163 287 b 203 290 188 287 195 288 b 230 293 213 292 222 293 b 267 252 255 293 267 279 b 256 199 267 237 264 220 b 207 108 245 168 228 138 b 147 45 185 77 165 56 b 104 26 130 33 115 26 b 80 35 96 26 87 30 b 55 140 63 48 55 83 b 41 154 55 149 50 154 b 20 131 31 154 24 146 b 14 79 16 115 14 98 b 19 33 14 60 16 45 b 92 -58 37 -19 62 -49 b 161 -71 123 -66 146 -71 z "},"4":{"ha":451,"x_min":0,"x_max":0,"o":"m 355 -66 b 412 -9 387 -59 406 -40 b 420 96 416 14 419 49 b 435 351 420 153 425 238 b 437 408 437 368 437 387 b 423 566 437 475 433 528 b 368 636 409 613 390 636 b 302 552 343 636 321 608 b 276 393 285 492 276 439 l 276 389 l 139 391 b 176 444 142 396 154 414 b 257 621 208 493 235 552 b 304 804 279 690 294 751 b 318 911 313 856 318 892 l 317 922 b 252 979 310 960 288 979 b 193 959 226 979 206 972 b 165 907 182 949 174 932 b 79 633 148 861 119 769 b 14 391 35 483 14 402 b 30 347 14 371 19 356 b 102 334 43 338 66 334 b 262 340 116 334 169 336 b 275 338 270 340 274 339 b 277 194 275 336 276 289 b 277 146 277 177 277 161 l 276 113 b 283 2 276 66 279 29 b 332 -62 289 -31 305 -52 b 351 -66 340 -64 347 -66 z "},"5":{"ha":449,"x_min":0,"x_max":0,"o":"m 151 -60 b 205 -52 168 -60 186 -57 b 363 70 273 -30 325 11 b 428 226 402 129 423 181 b 435 317 433 271 435 301 b 407 471 435 371 426 422 b 281 606 382 533 340 578 b 239 615 266 612 252 615 b 216 612 231 615 223 614 b 171 595 196 606 181 601 b 161 591 165 592 163 591 b 161 591 161 591 161 591 b 178 914 163 620 170 728 b 291 925 226 922 263 925 b 330 921 308 925 321 924 b 347 919 336 920 342 919 b 372 926 357 919 365 922 b 385 951 381 933 385 941 b 357 979 385 962 376 972 b 304 983 348 981 330 983 b 123 979 203 981 142 979 l 119 979 b 47 945 81 979 58 968 b 20 704 33 912 24 831 b 18 614 19 667 18 637 b 33 465 18 535 23 485 b 68 434 44 444 56 434 l 86 434 b 140 479 109 434 127 449 b 182 536 150 504 163 523 b 227 557 199 550 214 557 b 260 545 238 557 249 553 b 307 401 283 528 299 480 b 308 377 308 393 308 385 b 277 212 308 325 298 270 b 186 60 254 146 223 96 b 134 32 168 41 151 32 b 103 41 124 32 114 35 b 43 114 85 51 65 75 b 30 131 37 125 33 131 b 14 99 19 131 14 121 b 35 16 14 73 20 45 b 88 -41 49 -10 66 -30 b 151 -60 110 -54 131 -60 z "},"6":{"ha":429,"x_min":0,"x_max":0,"o":"m 208 -72 b 385 90 279 -72 339 -18 b 416 256 406 146 416 201 b 410 329 416 280 414 304 b 348 469 395 406 375 453 b 288 494 320 486 300 494 b 172 414 254 494 214 467 b 200 613 184 513 194 580 b 238 766 208 654 220 705 b 278 886 254 819 267 859 b 311 945 289 912 300 932 b 317 960 315 950 317 955 b 313 971 317 964 315 967 b 286 982 307 979 298 982 b 224 951 267 982 247 972 b 77 662 171 905 122 808 b 14 288 35 516 14 391 b 16 228 14 267 14 247 b 91 -7 26 115 52 36 b 208 -72 130 -50 169 -72 z m 216 45 b 174 70 199 45 186 54 b 155 154 161 87 155 115 b 168 277 155 186 159 228 b 176 293 170 279 172 284 b 254 435 212 387 238 435 b 281 437 271 436 279 437 b 347 371 310 437 332 415 b 357 298 354 349 357 325 b 344 199 357 268 353 235 b 275 74 324 135 302 94 b 216 45 250 55 229 45 z "},"7":{"ha":404,"x_min":0,"x_max":0,"o":"m 85 -67 b 105 -65 92 -67 98 -66 b 142 -50 122 -62 134 -57 b 197 80 161 -30 179 13 b 252 302 221 168 240 242 b 310 529 271 380 290 455 b 391 910 363 725 391 852 b 374 974 391 941 385 962 b 342 982 366 979 355 982 b 319 977 333 982 326 981 b 141 969 309 973 249 970 b 30 966 74 969 37 968 b 14 953 19 962 14 958 b 23 940 14 949 17 945 b 134 932 33 935 69 932 b 288 930 236 931 288 930 b 22 56 168 553 79 262 b 14 3 16 36 14 18 b 19 -27 14 -9 16 -19 b 50 -61 26 -45 37 -57 b 85 -67 64 -65 75 -67 z "},"8":{"ha":446,"x_min":0,"x_max":0,"o":"m 214 -94 b 397 90 304 -94 365 -33 b 406 171 404 119 406 146 b 343 351 406 227 385 287 b 394 479 360 390 377 432 b 433 688 420 552 433 622 b 411 817 433 732 425 774 b 305 964 372 913 337 962 b 254 965 273 964 256 965 b 99 864 195 965 143 931 b 46 653 64 809 46 739 b 50 580 46 630 47 606 b 127 418 61 512 87 458 b 133 411 130 414 132 412 b 132 410 133 410 132 410 b 88 369 125 406 111 392 b 34 280 66 346 48 316 b 14 170 20 244 14 208 b 18 107 14 150 15 129 b 104 -55 34 26 63 -28 b 214 -94 146 -81 182 -94 z m 235 406 b 231 413 233 406 232 408 b 222 427 229 420 225 425 b 209 432 218 429 214 431 b 154 471 191 435 172 448 b 96 650 115 527 96 587 b 129 808 96 709 106 762 b 188 888 151 854 171 881 b 222 899 205 896 216 899 b 274 848 243 899 260 882 b 292 713 286 820 292 774 b 288 608 292 682 291 647 b 237 410 279 546 262 479 b 235 406 237 407 235 406 z m 233 -19 b 167 35 208 -19 186 -1 b 136 169 146 73 136 118 l 137 196 b 222 357 141 259 170 313 l 241 349 b 332 273 290 336 320 311 b 351 176 345 235 351 203 b 340 99 351 151 347 125 b 251 -16 325 45 295 7 b 233 -19 245 -18 239 -19 z "},"9":{"ha":484,"x_min":0,"x_max":0,"o":"m 388 -72 b 423 -58 399 -72 412 -67 b 433 -44 428 -55 431 -50 b 440 53 437 -35 439 -2 b 464 725 448 310 455 534 b 471 905 469 829 471 890 b 420 971 471 949 454 971 b 376 955 401 971 386 966 b 347 895 365 943 355 924 b 336 863 341 874 338 863 l 316 899 b 215 969 285 945 252 969 b 52 741 157 969 102 893 b 14 526 26 663 14 591 b 121 355 14 421 50 364 l 131 355 b 214 401 168 355 195 370 b 275 544 235 434 255 482 b 304 627 283 570 293 597 b 309 329 304 524 306 425 b 339 -41 314 127 324 4 b 388 -72 349 -62 365 -72 z m 184 507 b 174 564 178 507 174 526 b 190 719 174 610 180 661 b 218 821 197 758 207 792 b 248 867 230 850 239 865 b 263 870 256 869 262 870 b 311 820 277 870 293 853 l 319 803 l 234 593 b 195 517 221 564 208 538 b 184 507 191 511 187 507 z "},"\u0000":{"ha":0,"x_min":0,"x_max":0,"o":""}," ":{"ha":345,"x_min":0,"x_max":0,"o":""},"!":{"ha":168,"x_min":0,"x_max":0,"o":"m 82 146 b 106 224 91 146 99 172 b 113 312 110 254 113 283 b 144 735 122 507 132 648 b 155 884 151 793 155 842 b 153 933 155 902 154 918 b 86 1031 142 999 119 1031 b 16 930 52 1031 28 998 b 14 862 14 913 14 891 b 25 580 14 808 18 713 b 68 166 39 338 54 201 b 82 146 74 153 79 146 z m 80 -61 b 130 -18 101 -61 118 -47 b 136 17 134 -5 136 7 b 130 45 136 28 134 37 b 100 71 121 60 111 69 b 77 75 90 74 82 75 b 50 67 67 75 58 73 b 31 39 41 62 35 52 b 25 5 27 26 25 15 b 60 -57 25 -26 37 -46 b 80 -61 67 -60 74 -61 z "},"\"":{"ha":312,"x_min":0,"x_max":0,"o":"m 42 1154 b 23 1123 29 1144 23 1133 b 23 1104 23 1112 23 1106 b 29 1042 23 1086 25 1065 b 37 983 34 1017 36 997 b 37 959 37 968 37 960 b 20 890 37 935 31 912 b 17 877 18 886 17 881 b 20 865 17 872 18 868 b 38 856 24 859 30 856 l 43 856 b 78 882 53 857 65 866 b 133 1000 108 926 126 966 b 144 1079 140 1035 144 1061 b 139 1115 144 1093 142 1105 b 111 1154 132 1135 123 1147 b 76 1162 98 1159 87 1162 b 69 1162 74 1162 71 1162 b 42 1154 56 1160 47 1158 z m 288 1115 b 260 1154 282 1135 273 1147 b 225 1162 248 1159 236 1162 b 218 1162 223 1162 220 1162 b 192 1154 205 1160 197 1158 b 172 1109 179 1144 172 1129 b 178 1042 172 1090 174 1067 b 186 983 183 1017 185 998 b 186 962 186 970 186 962 b 170 890 186 937 181 913 b 166 877 168 886 166 881 b 170 865 166 872 168 868 b 188 856 174 859 180 856 l 193 856 b 227 882 203 857 214 866 b 283 1000 258 926 276 966 b 293 1079 290 1035 293 1061 b 288 1115 293 1093 291 1105 z "},"#":{"ha":569,"x_min":0,"x_max":0,"o":"m 257 225 b 309 250 271 225 289 233 b 324 271 313 255 319 262 b 387 396 333 286 354 328 l 415 395 b 449 397 427 395 439 396 b 474 414 464 399 472 404 b 406 435 474 428 451 435 b 444 515 414 453 427 479 b 456 545 450 529 454 538 b 520 545 492 545 514 545 b 545 552 530 545 538 548 b 555 564 552 557 555 561 b 526 574 555 570 546 573 b 474 575 513 575 496 575 b 468 576 470 575 468 576 b 477 629 473 600 477 616 b 470 661 477 640 474 651 b 431 678 464 672 451 678 b 334 593 397 677 365 649 b 323 578 329 583 325 578 b 315 576 321 577 318 576 b 304 579 308 576 304 577 b 310 595 304 580 307 585 b 322 628 313 604 317 615 b 328 659 326 641 328 652 b 277 692 328 682 311 692 b 206 650 248 692 224 678 b 168 578 199 639 186 615 b 110 563 163 572 144 567 b 59 549 76 559 59 555 b 64 543 59 547 60 545 b 81 540 67 541 73 540 b 112 540 90 540 100 540 b 149 538 137 540 149 539 l 124 480 b 99 422 107 442 99 423 l 60 420 l 51 420 b 14 410 26 420 14 416 b 67 393 14 400 31 395 b 87 391 75 393 81 392 b 68 303 75 353 68 323 b 98 264 68 277 78 264 b 205 363 139 264 175 297 b 218 391 210 375 215 385 b 238 395 220 393 227 395 b 255 393 250 395 255 394 b 210 268 224 317 210 275 b 222 241 210 260 214 251 b 245 226 230 231 237 227 b 257 225 252 225 256 225 z m 268 429 l 253 429 b 235 430 241 429 235 429 b 277 520 235 431 249 461 l 290 549 l 313 549 b 303 522 307 533 304 524 b 299 514 302 520 300 517 z "},"$":{"ha":387,"x_min":0,"x_max":0,"o":"m 168 -116 b 192 -100 178 -115 186 -109 b 199 -45 195 -94 197 -76 l 199 -3 b 209 0 201 -2 204 -1 b 318 67 245 3 281 25 b 374 218 355 109 374 159 b 349 349 374 258 366 302 l 331 393 b 178 832 245 577 195 724 b 176 889 176 853 176 872 b 218 981 176 951 190 981 b 263 942 233 981 249 968 b 281 860 275 920 281 893 b 273 786 281 838 279 813 l 272 781 b 269 762 270 775 269 768 b 279 756 270 758 273 756 b 309 793 290 756 300 768 b 323 884 319 821 323 850 b 248 1029 323 951 298 1000 l 248 1031 b 250 1102 249 1064 250 1088 b 233 1175 250 1148 244 1173 b 210 1141 221 1175 213 1163 b 203 1038 205 1118 203 1084 b 182 1034 197 1036 190 1035 b 95 993 148 1027 119 1014 b 14 789 41 946 14 878 b 71 580 14 728 33 659 b 166 429 102 524 134 474 b 248 298 202 380 229 336 b 274 191 265 260 274 224 b 269 142 274 175 273 159 b 211 37 250 73 231 37 l 180 37 b 83 104 141 37 109 59 b 61 193 68 130 61 160 b 75 277 61 219 66 247 b 78 291 77 283 78 288 b 73 297 78 295 77 297 b 68 296 72 297 70 296 b 37 245 52 288 42 272 b 28 184 31 219 28 199 b 40 107 28 159 33 134 b 132 10 53 64 83 32 b 157 -3 149 4 157 -1 b 159 -59 157 -12 157 -30 b 162 -115 161 -96 161 -115 b 168 -116 163 -116 165 -116 z "},"%":{"ha":570,"x_min":0,"x_max":0,"o":"m 156 716 b 240 770 186 716 214 734 b 259 835 253 793 259 815 b 250 873 259 848 256 861 b 150 940 227 918 194 940 b 102 923 133 940 117 934 b 48 825 66 889 48 856 b 53 796 48 815 50 806 b 109 726 66 756 85 732 b 156 716 133 720 149 716 z m 149 759 b 135 779 144 759 139 765 b 131 812 132 787 131 799 b 151 881 131 858 138 881 b 168 843 161 881 167 869 b 159 766 167 798 164 772 b 149 759 155 762 151 759 z m 58 -64 b 154 56 92 -61 123 -21 b 285 325 176 110 220 199 b 448 652 341 434 395 543 b 549 905 500 762 534 846 b 557 965 554 928 557 948 b 534 1028 557 996 549 1017 b 495 1042 522 1038 509 1042 b 455 1029 482 1042 469 1038 b 369 852 443 1017 414 958 b 219 488 323 745 274 624 b 75 124 164 351 117 230 l 14 -35 b 25 -54 14 -41 18 -47 b 52 -64 33 -61 41 -64 z m 370 -51 b 399 -47 379 -51 389 -50 b 493 75 461 -34 493 7 b 443 226 493 116 476 166 b 385 249 433 241 414 249 b 264 129 328 249 288 209 b 256 68 259 106 256 87 b 288 -18 256 31 267 2 b 370 -51 313 -40 340 -51 z m 365 23 b 350 42 357 23 351 29 l 349 68 b 361 151 349 104 353 131 b 389 184 370 173 379 184 b 410 125 404 184 410 164 b 393 51 410 99 405 75 b 365 23 385 32 375 23 z "},"&":{"ha":533,"x_min":0,"x_max":0,"o":"m 467 -113 b 488 -102 480 -113 488 -109 b 489 -90 489 -96 489 -92 b 457 4 489 -69 478 -38 b 432 49 448 22 439 37 l 420 67 l 455 101 b 503 151 480 126 496 143 b 519 176 514 164 519 172 b 504 183 519 181 514 183 b 477 174 496 183 488 180 b 434 138 467 168 453 155 b 399 109 412 119 401 109 b 379 149 399 111 392 123 b 336 235 366 174 352 202 b 292 321 319 267 304 296 b 272 360 279 346 273 359 b 369 498 298 395 331 440 b 464 675 406 555 438 614 b 502 846 490 736 502 793 l 501 872 b 428 1027 489 961 465 1013 b 344 1048 392 1041 363 1048 b 233 1012 308 1048 271 1036 b 119 868 175 975 137 927 b 91 724 100 810 91 762 b 130 522 91 663 104 595 l 152 458 b 110 393 139 436 125 414 b 56 307 91 365 73 336 b 14 138 28 256 14 200 b 110 -32 14 53 45 -3 b 178 -43 133 -39 155 -43 b 224 -38 193 -43 209 -41 b 322 -1 262 -28 295 -16 b 371 28 349 14 365 23 l 372 29 b 430 -75 398 -20 418 -55 b 467 -113 444 -99 456 -111 z m 203 518 b 180 591 201 518 194 543 b 156 686 168 637 159 669 b 153 739 154 705 153 722 b 186 880 153 793 164 840 b 261 967 216 932 240 961 b 300 977 282 973 295 977 b 353 915 327 977 344 956 b 354 892 353 907 354 901 b 338 797 354 864 349 832 b 288 667 325 753 308 709 b 231 561 267 625 248 589 b 203 518 214 532 205 518 z m 185 3 b 148 12 170 3 158 6 b 112 81 124 26 112 49 b 169 227 112 125 131 174 l 182 245 b 222 299 197 266 210 283 b 232 309 228 306 231 309 b 294 194 237 304 257 267 b 353 74 333 117 353 78 b 321 53 353 73 342 65 b 185 3 264 20 220 3 z "},"'":{"ha":154,"x_min":0,"x_max":0,"o":"m 39 856 b 75 882 50 857 62 866 b 130 1000 104 926 123 966 b 140 1079 137 1035 140 1061 b 136 1115 140 1093 139 1105 b 73 1162 125 1146 104 1162 b 39 1154 58 1162 47 1160 b 20 1123 26 1144 20 1133 l 20 1104 b 26 1042 20 1086 22 1065 b 34 959 31 1014 34 986 b 17 890 34 935 28 912 b 14 877 15 886 14 881 b 17 865 14 872 15 868 b 35 856 21 859 27 856 z "},"(":{"ha":315,"x_min":0,"x_max":0,"o":"m 208 -209 b 235 -201 217 -209 227 -206 b 250 -186 244 -195 249 -191 b 251 -175 250 -181 251 -178 b 246 -147 251 -168 250 -159 b 180 384 202 39 180 216 b 282 1168 180 652 214 914 b 301 1260 294 1217 301 1247 b 288 1270 301 1266 296 1270 b 267 1265 279 1270 273 1268 b 184 1139 248 1253 220 1211 b 79 859 146 1066 112 973 b 21 566 45 745 26 647 b 14 407 16 485 14 431 b 102 -70 14 247 43 88 b 156 -174 119 -117 138 -151 b 208 -209 175 -197 193 -209 z "},")":{"ha":315,"x_min":0,"x_max":0,"o":"m 106 -209 b 158 -174 122 -209 139 -197 b 212 -70 177 -151 195 -117 b 301 407 271 88 301 247 b 294 566 301 431 298 485 b 236 859 288 647 269 745 b 131 1139 203 973 168 1066 b 48 1265 94 1211 66 1253 b 27 1270 42 1268 35 1270 b 14 1260 18 1270 14 1266 b 33 1168 14 1247 20 1217 b 135 384 100 914 135 652 b 68 -147 135 216 113 39 b 64 -175 65 -159 64 -168 b 65 -186 64 -178 64 -181 b 79 -201 66 -191 71 -195 b 106 -209 88 -206 97 -209 z "},"*":{"ha":488,"x_min":0,"x_max":0,"o":"m 136 675 b 206 728 174 677 197 695 b 210 755 209 739 210 747 b 236 827 210 774 219 798 b 246 842 242 837 245 842 b 255 826 250 842 252 836 b 262 790 257 815 260 803 b 270 753 264 777 267 764 b 277 730 272 743 275 734 b 330 686 296 702 314 687 b 359 686 347 686 357 686 b 418 707 385 686 404 692 b 426 728 423 713 426 720 b 403 770 426 740 418 754 b 313 863 355 816 325 847 b 293 886 306 873 299 880 b 291 888 292 887 291 888 b 298 890 291 889 293 890 b 386 928 322 897 351 909 b 456 981 420 947 444 965 b 475 1017 469 997 475 1009 b 453 1049 475 1029 467 1040 b 416 1057 443 1055 430 1057 b 359 1031 392 1057 373 1048 b 338 998 351 1021 344 1010 b 293 944 328 977 313 959 b 279 937 286 939 281 937 b 277 941 278 937 277 939 b 296 989 277 949 283 966 b 320 1070 312 1020 320 1047 b 311 1120 320 1085 317 1102 b 243 1165 296 1149 274 1164 b 176 1120 213 1165 190 1150 b 166 1072 170 1103 166 1086 b 186 996 166 1050 173 1025 b 206 913 199 971 205 943 b 195 932 202 920 198 926 b 150 994 182 954 168 975 b 77 1022 132 1013 108 1022 b 14 984 35 1022 14 1009 b 36 947 14 972 21 960 b 61 933 37 946 45 942 b 116 904 77 924 95 915 b 171 874 136 892 155 883 l 195 861 b 132 802 195 861 174 841 b 60 734 90 764 65 741 b 55 715 56 727 55 721 b 71 690 55 705 60 696 b 127 675 87 680 106 675 z "},"+":{"ha":431,"x_min":0,"x_max":0,"o":"m 218 196 b 258 212 236 196 250 201 b 275 318 262 216 267 252 l 290 447 b 370 451 323 448 351 449 b 405 461 385 452 397 455 b 417 479 413 467 417 473 b 406 499 417 486 414 492 b 368 514 396 507 384 512 l 295 518 b 296 552 296 522 296 532 b 286 680 296 609 292 652 b 234 756 269 729 252 754 b 204 758 216 758 206 758 b 144 679 172 758 153 732 b 140 572 142 636 140 601 l 140 534 b 137 505 140 516 140 507 b 99 501 127 502 115 501 l 68 502 b 33 499 56 502 43 500 b 14 481 20 497 14 491 b 37 458 14 472 22 464 b 122 441 58 450 86 444 l 146 440 b 164 282 155 370 161 317 b 173 220 168 245 170 225 b 202 196 182 205 192 197 b 218 196 212 196 217 196 z "},",":{"ha":154,"x_min":0,"x_max":0,"o":"m 39 -203 b 75 -176 50 -201 62 -193 b 130 -58 104 -132 123 -93 b 140 20 137 -24 140 3 b 136 56 140 35 138 47 b 73 104 125 87 104 104 b 39 96 58 104 47 101 b 20 64 26 85 20 75 l 20 45 b 26 -16 20 27 22 6 b 33 -100 31 -45 33 -73 b 17 -168 33 -124 28 -146 b 14 -182 15 -173 14 -178 b 17 -194 14 -186 15 -191 b 35 -203 21 -200 26 -203 z "},"-":{"ha":433,"x_min":0,"x_max":0,"o":"m 133 355 b 241 359 174 356 210 357 b 385 385 313 363 361 372 b 420 417 408 398 420 409 b 277 454 420 441 372 454 b 178 450 248 454 216 452 b 38 427 108 445 61 437 b 13 396 22 418 13 408 b 64 358 13 380 31 367 b 107 355 74 356 88 355 z "},".":{"ha":168,"x_min":0,"x_max":0,"o":"m 83 -52 b 147 1 110 -52 131 -35 b 155 45 152 18 155 32 b 146 79 155 58 152 69 b 109 112 135 98 123 109 b 80 117 96 115 86 117 b 45 106 67 117 55 113 b 21 72 34 100 26 88 b 14 30 16 56 14 41 b 58 -47 14 -8 28 -34 b 83 -52 66 -51 75 -52 z "},"/":{"ha":597,"x_min":0,"x_max":0,"o":"m 56 -32 b 79 -28 64 -32 72 -31 b 120 24 92 -22 106 -5 b 168 136 134 54 149 91 b 288 405 196 214 236 304 b 467 768 338 499 399 621 b 583 1094 545 935 583 1044 b 577 1120 583 1105 581 1114 b 538 1142 564 1134 551 1141 b 513 1143 524 1143 515 1143 b 425 1101 476 1143 447 1129 b 399 1057 415 1087 407 1073 b 184 479 372 997 300 804 l 14 -1 b 30 -28 14 -16 19 -26 b 56 -32 41 -31 50 -32 z "},":":{"ha":168,"x_min":0,"x_max":0,"o":"m 83 64 b 147 117 110 64 132 81 b 155 161 152 134 155 148 b 146 195 155 174 152 185 b 109 228 135 214 123 224 b 80 233 96 231 86 233 b 45 222 67 233 55 229 b 21 188 34 216 26 204 b 14 146 16 172 14 157 b 58 69 14 108 28 82 b 83 64 66 66 75 64 z m 83 406 b 147 459 110 406 132 423 b 155 503 152 475 155 490 b 146 536 155 515 152 527 b 109 570 135 555 123 566 b 80 574 96 573 86 574 b 45 564 67 574 55 571 b 21 530 34 557 26 546 b 14 488 16 513 14 499 b 58 411 14 450 28 424 b 83 406 66 408 75 406 z "},";":{"ha":168,"x_min":0,"x_max":0,"o":"m 83 406 b 147 459 110 406 132 423 b 155 503 152 475 155 490 b 146 536 155 515 152 527 b 109 570 135 555 123 566 b 80 574 96 573 86 574 b 45 564 67 574 55 571 b 21 530 34 557 26 546 b 14 488 16 513 14 499 b 58 411 14 450 28 424 b 83 406 66 408 75 406 z m 39 -96 b 75 -69 50 -94 62 -85 b 130 49 104 -25 123 14 b 140 127 137 83 140 110 b 136 163 140 142 138 154 b 73 211 125 195 104 211 b 39 203 58 211 47 208 b 20 172 26 193 20 182 l 20 153 b 26 91 20 134 22 113 b 33 7 31 62 33 35 b 17 -61 33 -17 28 -39 b 14 -75 15 -66 14 -71 b 17 -87 14 -79 15 -83 b 35 -96 21 -93 26 -96 z "},"<":{"ha":299,"x_min":0,"x_max":0,"o":"m 256 260 b 262 276 260 260 262 265 b 256 319 262 292 260 305 b 140 444 246 340 208 382 b 116 468 124 459 116 467 b 132 486 116 469 121 475 b 245 618 160 513 198 557 b 282 700 268 651 280 679 b 286 743 284 721 286 735 b 275 798 286 765 282 784 b 250 820 268 813 260 820 b 238 817 246 820 242 819 b 94 671 223 806 176 758 b 36 595 67 642 47 617 b 14 501 21 568 14 536 b 26 433 14 470 18 447 b 45 418 31 423 37 418 b 52 419 47 418 50 418 b 58 420 54 420 56 420 b 192 316 83 420 128 386 b 256 260 228 279 249 260 z "},"=":{"ha":433,"x_min":0,"x_max":0,"o":"m 134 355 b 241 359 175 356 211 357 b 385 385 313 363 361 372 b 420 417 408 398 420 409 b 277 454 420 441 372 454 b 179 450 249 454 216 452 b 39 427 109 445 62 437 b 14 396 22 418 14 408 b 65 358 14 380 31 367 b 107 355 75 356 89 355 z m 134 184 b 241 189 175 185 211 186 b 385 214 313 192 361 201 b 420 246 408 227 420 238 b 277 283 420 271 372 283 b 179 279 249 283 216 281 b 39 256 109 274 62 266 b 14 225 22 247 14 237 b 65 187 14 209 31 196 b 107 184 75 185 89 184 z "},">":{"ha":299,"x_min":0,"x_max":0,"o":"m 43 260 b 107 316 50 260 71 279 b 241 420 171 386 215 420 b 248 419 243 420 245 420 b 254 418 250 418 252 418 b 273 433 262 418 268 423 b 286 501 281 447 286 470 b 263 595 286 536 278 568 b 205 671 252 617 232 642 b 61 817 123 758 75 806 b 49 820 56 819 52 820 b 24 798 39 820 31 813 b 14 743 17 784 14 765 b 16 700 14 735 14 721 b 54 618 18 679 31 651 b 168 486 101 557 139 513 b 183 468 178 475 183 469 b 159 444 183 467 175 459 b 43 319 91 382 52 340 b 37 276 39 305 37 292 b 43 260 37 265 39 260 z "},"?":{"ha":371,"x_min":0,"x_max":0,"o":"m 99 -61 b 149 -18 120 -61 136 -47 b 155 18 153 -4 155 7 b 149 45 155 28 153 37 b 119 71 140 60 130 69 b 96 75 109 74 101 75 b 67 67 86 75 77 73 b 50 39 60 62 54 52 b 44 3 46 25 44 14 b 79 -57 44 -26 56 -47 b 99 -61 86 -60 93 -61 z m 98 97 b 121 106 111 99 119 102 b 126 123 125 109 126 115 l 123 158 b 252 227 176 159 219 182 b 328 395 286 271 311 328 b 355 560 345 463 353 517 b 357 648 357 603 357 632 b 348 777 357 696 355 740 b 270 970 326 890 300 954 b 201 995 240 987 218 995 b 134 963 178 995 155 984 b 58 813 102 928 77 878 b 22 624 40 748 28 685 b 14 471 16 563 14 512 b 32 353 14 393 20 353 b 41 367 38 353 41 357 l 41 372 b 34 488 37 410 34 450 b 50 656 34 545 39 600 b 118 880 67 751 90 826 b 195 960 146 933 172 960 b 211 956 201 960 205 959 b 264 753 239 943 256 875 l 264 709 b 237 446 264 613 255 526 b 174 252 216 354 195 289 b 131 195 154 214 140 195 b 121 209 127 195 123 200 b 113 227 119 218 117 224 b 95 232 110 231 104 232 b 73 214 85 232 77 226 b 63 175 68 201 64 188 b 61 142 62 162 61 151 b 66 104 61 120 63 107 b 96 97 77 100 86 97 z "},"@":{"ha":688,"x_min":0,"x_max":0,"o":"m 296 20 b 419 52 334 20 375 31 b 499 112 441 64 468 84 b 532 156 522 132 532 147 b 522 163 532 161 529 163 b 438 120 503 163 474 149 b 395 90 425 111 410 100 b 327 68 370 76 348 68 b 260 100 302 68 279 79 b 186 248 224 138 199 187 b 168 414 174 310 168 365 b 246 713 168 537 194 637 b 410 796 285 768 339 796 l 413 796 b 566 712 479 790 530 762 b 627 576 602 662 623 616 b 632 494 630 535 632 508 b 604 355 632 440 623 393 b 593 337 598 343 595 337 b 590 363 591 337 590 345 l 591 427 b 576 555 591 499 586 542 b 514 583 562 574 542 583 b 470 573 502 583 488 580 b 464 581 468 575 466 578 b 441 607 459 589 452 597 b 390 621 430 616 413 621 b 258 545 332 617 288 592 b 210 427 227 498 212 458 b 207 366 208 394 207 374 b 235 256 207 321 216 284 b 281 229 247 238 262 229 b 336 247 297 229 315 235 b 361 275 345 252 353 261 b 393 345 368 289 379 312 l 418 397 l 422 370 b 476 280 430 332 448 302 b 540 257 492 267 513 259 l 541 257 b 643 323 587 257 621 279 b 674 469 664 363 674 412 b 628 672 674 541 659 609 b 519 793 599 731 563 772 b 397 825 475 814 435 825 b 279 806 361 825 322 819 b 69 621 176 767 106 705 b 14 393 32 536 14 460 b 105 122 14 290 44 199 b 213 37 141 77 177 48 b 296 20 248 26 276 20 z m 359 376 b 352 397 355 376 352 383 b 371 500 352 425 358 460 b 413 562 383 541 397 562 b 427 555 418 562 423 559 b 437 534 434 547 437 540 l 433 517 b 382 404 428 496 411 458 b 359 376 371 385 363 376 z "},"A":{"ha":923,"x_min":0,"x_max":0,"o":"m 617 -420 b 648 -415 626 -420 636 -418 b 700 -370 666 -410 683 -395 b 807 -125 723 -335 759 -254 b 857 12 825 -79 842 -33 b 943 243 883 86 911 163 b 971 324 962 290 971 317 b 959 330 971 328 967 330 b 909 264 946 330 930 309 b 818 33 888 220 858 143 b 749 -149 789 -47 766 -107 b 650 -346 712 -237 680 -303 b 626 -373 639 -364 631 -373 b 624 -372 625 -373 625 -373 b 593 -184 604 -347 593 -284 b 595 -117 593 -162 594 -140 b 626 117 600 -70 610 8 b 656 302 642 231 652 293 b 717 309 657 303 677 305 b 799 330 772 313 799 320 b 776 347 799 334 791 340 b 749 351 768 349 760 351 b 711 349 739 351 727 351 b 665 345 696 347 680 345 b 678 475 665 361 669 404 b 692 602 685 527 690 569 b 695 742 694 635 695 682 b 691 883 695 812 694 859 b 685 913 690 895 688 905 b 593 1008 666 973 635 1005 b 562 1010 578 1009 568 1010 b 517 1004 545 1010 530 1008 b 381 868 480 989 435 943 b 189 469 297 751 233 618 b 153 325 173 414 161 366 b 149 309 153 317 151 312 b 133 300 146 305 141 302 b 77 292 107 295 88 292 b 45 298 65 292 55 294 b 24 302 38 300 31 302 b 10 299 19 302 14 301 b 0 288 3 296 0 292 b 33 264 0 276 11 268 b 79 260 48 261 63 260 l 103 260 l 146 264 l 142 251 b 134 41 137 232 134 162 b 139 -227 134 -61 136 -150 b 148 -326 141 -281 144 -315 b 167 -336 151 -332 157 -336 l 182 -336 b 180 -96 180 -219 180 -139 b 196 229 180 48 185 157 b 208 273 199 255 203 269 b 269 281 214 276 233 279 b 354 286 294 283 323 284 b 427 289 385 287 410 288 b 463 290 445 290 457 290 b 474 289 469 290 473 290 b 467 222 474 281 472 258 b 449 -47 455 134 449 44 b 452 -123 449 -77 450 -102 b 581 -413 469 -288 512 -384 b 617 -420 594 -418 606 -420 z m 227 315 b 213 317 218 315 213 316 b 238 412 213 323 221 355 b 497 902 296 610 382 773 b 541 941 522 928 536 941 b 553 876 549 941 553 920 b 529 619 553 812 545 726 b 494 399 522 572 511 498 b 481 332 487 355 483 334 b 444 326 477 329 465 326 b 397 323 433 325 416 324 b 262 317 357 322 313 319 b 227 315 249 316 237 315 z "},"B":{"ha":806,"x_min":0,"x_max":0,"o":"m 70 -370 b 94 -365 80 -369 88 -368 b 107 -350 98 -363 102 -358 b 123 -323 113 -342 118 -333 b 134 -295 127 -313 132 -304 b 141 -262 137 -286 139 -275 b 146 -208 142 -250 144 -231 b 188 35 151 -143 164 -62 b 273 326 211 132 239 229 b 328 471 293 383 311 432 b 387 596 344 509 363 551 b 509 786 434 687 474 750 l 534 813 l 531 782 b 477 629 526 746 508 695 b 380 448 447 562 414 502 b 296 248 324 365 296 298 b 317 176 296 230 303 205 b 362 95 329 146 345 120 l 335 77 b 268 16 313 62 291 41 b 216 -54 244 -10 227 -33 b 197 -144 203 -82 197 -113 b 203 -197 197 -161 199 -179 b 236 -268 208 -218 219 -241 b 286 -328 253 -294 270 -315 b 419 -368 325 -355 369 -368 b 591 -304 489 -368 547 -347 b 637 -192 622 -273 637 -235 b 531 50 637 -125 602 -45 b 488 112 503 86 488 107 b 600 172 489 116 526 136 b 758 243 677 209 730 233 b 823 275 782 252 804 262 b 852 301 843 287 852 296 b 838 308 851 305 846 308 b 463 149 799 308 673 255 l 448 179 b 433 236 438 198 433 217 b 439 271 433 248 435 260 b 519 414 448 303 475 351 b 591 534 545 452 568 492 b 642 651 613 577 630 616 b 657 721 651 678 656 701 b 659 758 658 740 659 753 b 606 856 659 810 641 842 b 555 866 587 863 570 866 b 520 861 544 866 532 865 b 363 680 474 846 422 786 b 194 273 304 573 248 437 b 157 160 170 198 157 160 b 153 409 154 160 153 243 l 154 623 b 153 825 154 718 153 785 b 128 956 151 893 143 937 b 89 968 121 964 108 968 b 50 951 69 968 56 962 b 32 821 43 939 37 896 l 28 752 b 8 351 18 621 12 486 b 0 -288 4 218 1 5 b 35 -354 18 -325 30 -347 b 45 -367 39 -361 43 -366 b 65 -370 50 -369 57 -370 z m 406 -318 b 362 -302 392 -318 378 -313 b 288 -224 333 -283 308 -257 b 258 -131 268 -191 258 -160 b 290 -37 258 -102 269 -70 b 372 50 311 -3 338 26 l 389 62 l 431 0 b 505 -184 480 -70 505 -131 b 446 -304 505 -241 485 -281 b 406 -318 433 -313 420 -318 z "},"C":{"ha":652,"x_min":0,"x_max":0,"o":"m 247 -292 b 368 -239 293 -292 333 -275 b 473 -107 399 -212 433 -168 b 632 163 512 -47 565 43 b 713 304 676 242 703 290 b 721 322 718 313 721 318 b 713 329 721 327 718 329 b 652 292 699 329 678 317 b 541 123 636 274 600 218 b 416 -75 492 43 450 -23 b 308 -201 384 -119 347 -161 b 265 -232 287 -222 273 -232 b 251 -225 260 -232 256 -230 b 227 -185 245 -219 237 -205 b 170 52 190 -100 171 -22 b 170 169 170 125 170 165 b 212 576 170 307 184 443 b 333 882 240 713 281 814 b 347 895 340 890 344 895 b 356 887 349 895 352 892 b 382 839 365 876 374 859 b 402 730 395 803 402 767 b 383 586 402 695 396 647 b 372 514 376 551 372 527 b 387 502 372 506 377 502 b 412 516 397 502 406 507 b 433 574 418 526 425 545 b 460 764 451 643 460 706 b 343 940 460 882 421 940 b 280 929 324 940 303 937 b 157 812 239 912 198 873 b 58 594 116 750 83 677 b 0 178 20 456 0 317 b 13 -25 0 85 5 17 b 218 -290 52 -183 120 -272 b 247 -292 228 -292 237 -292 z "},"D":{"ha":800,"x_min":0,"x_max":0,"o":"m 176 -361 b 492 -82 299 -361 404 -269 b 584 198 533 4 564 98 b 592 231 588 220 591 231 b 639 239 593 231 608 233 b 743 256 667 245 702 250 b 849 288 814 265 849 276 b 838 295 849 292 845 295 b 644 270 729 283 665 275 b 609 265 629 267 617 265 l 597 265 l 607 335 b 627 587 621 429 627 513 b 619 718 627 635 625 678 b 507 895 602 836 565 895 b 443 865 484 895 463 885 b 330 636 414 830 377 753 b 210 277 283 519 243 399 b 187 198 195 224 188 198 l 187 203 b 191 321 187 210 189 249 b 195 569 194 371 195 454 b 193 805 195 669 194 747 b 182 913 191 863 188 899 b 165 949 176 932 170 945 b 121 960 155 956 141 960 b 94 955 111 960 102 958 b 67 922 83 951 74 941 b 45 823 60 904 53 871 b 1 77 16 639 1 390 b 0 -186 1 -68 1 -155 l 0 -197 b 2 -231 0 -212 1 -223 b 16 -266 4 -241 9 -253 b 176 -361 47 -330 100 -361 z m 209 121 b 208 122 208 121 208 121 b 256 308 208 134 224 196 b 406 720 298 458 349 595 b 492 858 449 812 477 858 b 503 833 495 858 498 850 b 513 724 509 803 513 766 b 451 297 513 618 492 477 l 433 218 b 332 182 387 202 353 191 b 237 136 293 168 262 152 b 209 121 222 126 212 121 z m 158 -312 b 102 -273 139 -312 120 -299 b 83 -241 90 -256 83 -245 b 88 -238 83 -239 85 -238 b 98 -239 91 -238 94 -239 b 107 -241 102 -241 104 -241 b 121 -233 112 -241 116 -238 b 152 -181 136 -216 146 -199 b 159 -146 155 -172 157 -160 b 178 -27 161 -121 167 -81 l 193 54 l 243 89 b 332 140 268 105 297 122 b 423 180 371 161 401 174 l 410 138 b 206 -286 342 -77 275 -219 b 158 -312 190 -303 174 -312 z "},"E":{"ha":602,"x_min":0,"x_max":0,"o":"m 183 -363 b 268 -328 216 -363 244 -352 b 298 -290 275 -321 286 -309 b 351 -199 311 -271 328 -241 b 446 -28 374 -158 406 -101 b 621 264 517 104 576 202 b 652 319 642 292 652 311 b 645 326 652 324 650 326 b 633 323 642 326 638 326 b 571 256 621 322 600 300 b 428 20 541 212 494 134 b 229 -277 336 -135 270 -235 l 198 -309 l 182 -288 b 136 -139 151 -250 136 -201 b 141 -75 136 -119 138 -98 b 159 25 146 -35 152 -2 b 224 182 169 68 191 121 b 309 321 264 256 292 302 b 321 337 317 329 321 334 b 313 346 321 339 318 342 b 292 353 307 351 300 353 b 241 332 281 353 264 346 l 205 309 b 196 328 202 315 199 321 b 190 361 193 334 191 345 b 188 439 189 378 188 404 b 211 656 188 519 195 591 b 274 809 226 722 247 772 b 289 824 281 819 286 824 b 298 819 292 824 294 823 b 326 764 308 810 317 791 b 346 677 335 737 342 708 b 357 622 350 643 353 625 b 368 617 359 619 363 618 b 384 616 374 617 378 616 l 384 681 b 362 829 384 751 376 801 b 283 872 348 857 321 871 l 267 873 b 210 857 250 873 231 867 b 106 743 169 838 134 800 b 54 594 83 699 66 649 b 37 446 43 540 37 490 b 49 345 37 400 41 367 b 77 298 55 327 64 311 b 115 269 90 286 102 275 b 163 258 128 263 144 259 l 195 254 l 150 198 b 56 64 108 146 77 101 b 0 -144 19 -3 0 -73 b 9 -228 0 -178 3 -205 b 130 -355 31 -292 71 -334 b 183 -363 149 -361 167 -363 z "},"F":{"ha":632,"x_min":0,"x_max":0,"o":"m 378 -249 b 427 -222 399 -249 416 -240 b 442 -154 434 -212 439 -189 b 456 117 445 -124 449 -34 b 465 279 460 211 463 265 l 469 297 l 519 296 b 580 309 559 296 580 300 b 508 327 577 317 553 323 l 466 330 b 477 559 473 408 477 484 b 466 856 477 682 473 780 b 476 869 466 861 469 865 b 517 888 482 873 496 880 b 631 924 556 903 594 916 b 722 937 667 933 698 937 b 812 879 761 933 791 913 b 831 819 825 859 831 838 b 785 730 831 788 816 759 b 751 701 770 715 759 705 b 722 690 743 695 733 692 b 688 674 700 688 688 682 b 756 654 688 664 711 658 l 779 654 b 829 666 794 654 811 658 b 892 711 851 677 872 692 b 935 768 911 730 926 749 b 944 816 941 785 944 800 b 891 919 944 854 926 888 b 724 976 847 957 791 976 b 606 957 695 976 656 970 b 511 927 570 947 538 937 b 461 909 481 916 465 909 b 456 920 460 909 458 913 b 447 944 452 926 450 935 b 423 994 441 968 433 985 b 382 1006 414 1002 400 1006 b 346 994 364 1006 352 1002 b 323 909 338 982 330 954 b 314 861 319 886 316 871 b 303 840 311 850 308 844 b 281 827 298 836 291 831 b 272 823 278 826 275 825 l 234 806 l 205 831 b 127 874 173 859 147 873 b 94 876 108 875 97 876 b 15 842 62 876 36 864 b 0 808 5 829 0 818 b 17 777 0 796 5 786 b 64 754 31 764 47 756 b 109 751 82 752 97 751 b 204 757 134 751 165 753 b 219 752 210 757 216 755 b 257 688 229 743 242 722 b 295 587 264 673 277 639 l 298 405 b 296 329 298 365 297 340 b 290 316 294 321 292 317 b 242 300 282 312 266 307 b 191 279 216 292 199 286 b 182 271 184 276 182 273 b 191 262 182 269 184 266 b 210 255 197 258 203 255 b 252 265 219 255 233 258 b 292 277 275 273 288 277 b 298 264 294 277 296 273 b 301 216 299 255 300 239 b 304 115 302 192 303 159 b 311 -85 307 29 309 -38 b 319 -185 313 -132 315 -165 b 330 -222 321 -205 325 -218 b 342 -235 334 -227 338 -232 b 352 -243 346 -239 349 -242 b 378 -249 361 -247 370 -249 z m 299 701 b 258 776 285 726 271 751 l 281 785 b 301 791 292 789 298 791 b 307 777 304 791 307 787 b 303 736 307 766 306 753 z m 113 779 b 64 787 90 779 73 781 b 52 810 56 793 52 801 b 65 839 52 820 56 829 b 100 852 76 848 87 852 b 176 811 122 852 147 838 l 194 791 b 113 779 161 783 134 779 z "},"G":{"ha":791,"x_min":0,"x_max":0,"o":"m 420 -411 b 522 -376 458 -411 492 -399 b 566 -326 535 -366 550 -349 b 614 -214 587 -294 604 -257 b 635 -41 625 -172 632 -114 l 642 58 l 667 81 b 810 232 726 131 773 181 b 850 300 837 271 850 294 b 825 313 848 309 840 313 b 808 311 820 313 814 312 b 762 261 800 307 784 290 b 715 201 749 243 734 222 b 663 144 696 178 679 160 b 634 122 648 130 637 122 b 629 138 631 125 629 130 b 615 203 629 151 624 172 b 606 231 612 216 608 224 b 538 256 599 248 576 256 b 506 253 523 256 512 255 b 486 240 500 251 493 246 b 474 227 480 235 476 231 b 469 210 471 222 469 217 b 465 176 467 202 466 191 b 462 144 465 162 463 151 b 456 127 460 136 458 130 b 447 116 454 123 451 119 b 426 98 442 113 435 106 b 396 72 416 90 406 81 b 361 44 385 62 374 53 b 328 23 348 35 337 28 b 299 8 319 18 309 14 l 275 31 b 204 165 244 62 220 107 b 180 334 189 224 180 280 b 199 486 180 371 186 422 b 224 598 208 533 216 570 b 262 688 233 625 245 654 b 304 766 277 722 292 747 b 348 817 318 785 332 802 b 382 838 363 831 374 838 b 424 811 391 838 406 829 b 468 753 442 793 456 774 b 518 520 501 688 518 610 b 517 474 518 506 517 490 b 515 437 516 458 515 446 b 524 407 515 422 518 412 b 539 399 530 402 535 399 b 552 418 546 399 550 406 b 560 490 552 429 555 453 b 565 570 564 515 565 541 b 550 713 565 623 560 670 b 425 878 525 805 484 860 b 370 884 409 882 391 884 b 294 873 341 884 316 881 b 87 663 212 838 144 768 b 0 317 29 553 0 438 b 41 120 0 240 14 174 b 281 -45 99 9 179 -45 b 437 35 337 -45 389 -19 l 473 73 l 481 -24 l 439 -73 b 325 -292 363 -160 325 -233 l 325 -302 b 382 -406 325 -360 344 -395 b 420 -411 394 -409 406 -411 z m 417 -359 b 402 -342 413 -359 408 -353 b 393 -286 396 -330 393 -312 b 397 -236 393 -262 394 -246 b 440 -152 401 -218 416 -190 b 464 -119 449 -138 456 -127 b 486 -95 471 -112 478 -104 l 486 -158 b 433 -345 486 -236 468 -298 b 417 -359 427 -354 421 -359 z "},"H":{"ha":1069,"x_min":0,"x_max":0,"o":"m 390 -199 b 439 -189 414 -199 430 -196 b 452 -157 447 -184 452 -173 b 444 -80 452 -144 449 -119 b 440 16 441 -55 440 -23 b 445 184 440 67 441 123 b 454 258 447 225 450 250 b 543 279 457 262 486 270 b 578 284 563 283 574 284 l 578 284 b 587 212 580 280 583 256 b 606 97 591 168 597 129 b 641 3 614 65 625 33 b 796 -137 686 -90 737 -137 b 906 -73 834 -137 871 -116 b 1051 169 941 -31 989 50 b 1118 315 1095 254 1118 303 b 1108 337 1118 330 1114 337 b 1066 287 1095 337 1080 320 b 1006 161 1053 256 1034 214 b 937 33 979 107 956 64 b 878 -47 918 4 899 -22 b 814 -100 851 -77 829 -95 l 808 -102 l 807 -102 b 736 174 761 -34 737 58 l 736 223 b 743 358 736 262 738 308 l 787 393 b 995 785 895 477 964 607 b 1004 903 1001 823 1004 863 b 979 1072 1004 990 996 1046 b 938 1097 966 1086 953 1095 b 905 1101 923 1100 912 1101 b 857 1092 889 1101 873 1098 b 692 868 794 1063 739 989 b 589 412 644 747 610 595 l 579 319 b 536 307 562 314 548 309 b 454 292 490 296 463 292 l 453 292 b 460 371 453 300 455 327 b 476 644 471 485 476 576 b 473 715 476 671 475 695 b 297 985 459 895 400 985 b 248 979 282 985 266 983 b 184 954 224 973 203 965 b 106 888 163 941 136 919 b 39 806 75 856 53 829 b 7 737 22 779 12 756 b 0 673 3 718 0 696 b 6 600 0 642 2 618 b 67 492 13 564 34 528 b 175 429 99 458 135 437 b 208 425 189 426 200 425 b 219 425 212 425 216 425 b 230 433 227 427 230 430 b 213 439 230 437 224 439 b 139 476 193 439 169 451 b 52 618 88 518 59 566 b 47 668 49 638 47 655 b 50 705 47 681 48 693 b 223 932 68 797 125 873 b 279 954 245 947 264 954 b 336 891 307 954 326 933 b 352 766 347 860 352 818 b 322 453 352 698 342 593 l 296 264 l 250 252 b 164 220 221 244 193 233 b 109 179 127 202 109 189 b 132 163 109 172 116 166 b 140 161 135 161 138 161 b 150 170 144 161 148 164 b 242 220 154 184 184 201 b 288 233 267 229 281 233 b 295 227 292 233 295 231 b 294 220 295 225 294 222 b 290 86 292 208 290 163 b 341 -191 290 -81 307 -174 b 390 -199 352 -197 368 -199 z m 746 408 l 749 441 b 897 1028 783 730 832 925 b 908 1039 901 1036 905 1039 b 926 989 913 1039 918 1023 b 939 863 935 948 939 906 b 926 736 939 822 935 779 b 808 471 907 631 867 542 b 746 408 798 460 778 439 z "},"I":{"ha":331,"x_min":0,"x_max":0,"o":"m 25 -311 b 100 -300 46 -311 71 -307 b 152 -288 130 -292 146 -288 b 184 -277 158 -288 169 -285 b 268 -257 201 -270 229 -263 b 353 -226 325 -248 353 -237 b 344 -211 353 -220 350 -215 b 327 -205 337 -207 332 -205 l 267 -216 b 216 -226 236 -222 219 -226 b 211 -161 212 -226 211 -204 l 211 -76 b 222 390 211 98 215 254 b 236 789 229 522 234 655 l 238 975 b 350 1007 304 994 342 1004 b 376 1023 366 1013 374 1019 b 379 1036 378 1028 379 1032 b 371 1048 379 1041 376 1046 b 360 1051 368 1050 364 1051 b 339 1044 354 1051 347 1049 b 299 1032 331 1039 317 1036 b 237 1017 277 1029 256 1023 b 179 1006 214 1010 195 1006 b 146 996 163 1006 152 1003 b 98 975 137 987 121 981 b 36 955 73 968 52 962 b 11 938 19 947 11 942 b 29 929 11 932 17 929 b 82 937 41 929 59 932 b 129 947 109 943 124 947 b 130 947 130 947 130 947 b 130 945 130 947 130 946 b 123 865 130 935 128 908 b 73 123 107 719 90 471 b 70 -23 71 71 70 22 b 86 -235 70 -140 75 -211 b 94 -257 91 -245 94 -253 b 44 -279 94 -261 77 -269 b 1 -298 18 -289 3 -295 l 0 -302 b 25 -311 0 -308 8 -311 z "},"J":{"ha":695,"x_min":0,"x_max":0,"o":"m 236 -351 b 520 -159 359 -349 453 -285 b 591 62 555 -95 578 -21 b 612 365 605 140 612 241 b 595 741 612 473 606 598 l 583 912 l 583 916 b 585 921 583 918 583 919 b 596 925 587 922 590 924 b 623 928 602 926 611 927 b 658 934 635 929 647 931 b 681 942 669 936 676 939 b 695 951 686 945 690 947 b 682 962 690 954 686 958 b 670 969 677 965 673 968 b 654 971 666 970 661 971 b 625 969 646 971 637 970 b 545 963 598 966 571 964 b 492 956 519 963 502 960 b 443 949 477 951 460 949 b 397 935 412 949 397 945 b 398 930 397 934 397 932 b 437 920 399 924 412 920 l 473 918 b 470 818 472 901 471 868 l 465 559 b 453 177 462 355 458 229 b 439 66 450 141 445 104 b 281 -283 410 -104 357 -221 b 229 -303 264 -296 246 -303 b 195 -295 218 -303 206 -300 b 88 -173 140 -267 105 -227 b 64 -45 72 -119 64 -77 b 85 63 64 -7 71 28 b 139 125 94 82 112 103 b 180 163 166 147 180 159 b 157 168 180 166 172 168 b 121 163 142 168 130 166 b 47 98 100 153 75 132 b 0 -54 16 62 0 11 b 5 -119 0 -75 2 -96 b 201 -347 26 -252 92 -328 b 236 -351 214 -349 226 -351 z "},"K":{"ha":530,"x_min":0,"x_max":0,"o":"m 77 -305 b 101 -301 89 -305 97 -304 b 132 -255 105 -299 115 -283 l 132 55 l 220 -37 b 365 -169 277 -95 325 -139 b 491 -239 404 -199 446 -222 b 632 -279 523 -251 570 -264 b 678 -286 654 -283 669 -286 b 685 -271 683 -283 685 -278 b 672 -252 684 -263 680 -256 b 604 -229 661 -245 639 -238 b 442 -154 542 -212 488 -187 b 279 3 422 -139 368 -86 b 148 145 192 92 148 140 b 163 157 149 146 155 151 b 363 356 236 211 302 277 b 517 607 405 410 456 494 b 615 774 558 685 591 741 b 686 839 640 807 663 829 b 705 844 694 842 701 844 b 738 836 712 844 723 842 b 770 829 752 831 763 829 b 777 836 774 829 777 831 b 747 852 777 838 766 844 b 704 863 730 859 715 863 b 597 815 667 863 631 847 b 482 674 566 787 528 740 b 332 464 418 581 368 511 b 212 328 296 417 256 372 l 149 262 b 157 682 155 448 157 588 b 153 917 157 819 156 897 b 139 952 151 935 146 946 b 101 961 132 958 119 961 b 60 951 83 961 68 958 b 40 904 51 945 44 929 b 26 784 35 879 31 839 b 0 191 9 567 0 370 b 17 -195 0 55 5 -74 b 28 -264 20 -232 24 -254 b 37 -281 30 -270 33 -275 b 54 -301 43 -292 49 -298 b 77 -305 58 -304 65 -305 z "},"L":{"ha":1039,"x_min":0,"x_max":0,"o":"m 127 -316 b 176 -311 149 -315 165 -314 b 279 -244 208 -304 241 -281 b 332 -180 302 -222 319 -201 b 353 -158 340 -165 347 -158 b 447 -181 356 -158 388 -165 b 707 -235 571 -215 658 -233 b 739 -237 718 -237 728 -237 b 1053 61 876 -237 981 -138 b 1077 117 1065 95 1074 114 b 1083 127 1081 121 1083 124 b 1064 133 1083 131 1076 133 b 1017 101 1049 133 1034 122 b 949 -14 1000 80 977 41 b 802 -186 903 -104 854 -161 b 758 -202 784 -196 769 -201 b 734 -204 746 -203 738 -204 b 472 -149 700 -204 612 -186 l 366 -121 l 386 -73 b 473 327 419 4 448 137 b 595 867 511 604 553 783 b 617 892 604 882 612 891 b 628 895 622 894 626 895 b 655 884 635 895 644 891 b 714 737 694 860 714 811 b 709 667 714 715 713 692 b 705 610 706 642 705 623 b 723 578 705 589 711 578 b 741 603 729 578 735 586 b 764 690 747 620 755 649 b 774 775 771 722 774 750 b 732 890 774 825 760 864 b 656 934 703 917 677 932 b 616 937 635 936 622 937 b 528 910 585 937 556 928 b 416 718 489 882 452 817 b 366 544 397 664 380 606 b 316 281 352 481 335 394 b 273 60 300 189 286 115 b 231 -74 262 20 249 -25 b 218 -107 224 -93 220 -104 b 165 -120 215 -111 197 -115 b 56 -159 123 -128 87 -141 b 0 -231 19 -182 0 -205 b 13 -272 0 -245 4 -258 b 87 -315 30 -299 54 -313 b 127 -316 100 -315 113 -316 z m 102 -272 b 90 -262 100 -272 96 -269 b 71 -226 77 -248 71 -235 b 103 -181 71 -212 81 -197 b 150 -157 115 -172 131 -165 b 192 -146 168 -150 182 -146 b 195 -150 194 -146 195 -148 b 168 -201 195 -158 186 -175 b 113 -263 153 -222 135 -242 b 102 -272 106 -269 102 -272 z "},"M":{"ha":1764,"x_min":0,"x_max":0,"o":"m 439 -241 b 490 -212 462 -241 478 -231 b 531 -73 503 -189 516 -143 b 612 245 553 24 580 131 b 692 515 643 360 669 450 b 766 681 713 572 737 628 b 840 791 793 734 819 770 l 854 806 b 833 658 850 755 843 706 b 774 286 798 463 778 338 b 769 181 771 233 769 197 b 794 50 769 121 777 78 b 906 -19 817 4 854 -19 b 984 22 941 -19 967 -5 b 1030 145 991 33 1006 74 b 1267 614 1106 373 1185 530 b 1286 630 1277 625 1283 630 b 1287 628 1286 630 1287 629 b 1267 552 1287 623 1280 598 b 1206 81 1226 406 1206 249 b 1223 -65 1206 20 1211 -29 b 1287 -163 1234 -104 1256 -136 b 1410 -212 1326 -195 1367 -212 b 1465 -203 1428 -212 1446 -209 b 1529 -160 1483 -197 1505 -182 b 1593 -86 1552 -138 1573 -114 b 1689 75 1606 -68 1638 -14 b 1790 248 1727 142 1760 200 b 1819 304 1809 277 1819 296 b 1812 311 1819 309 1817 311 b 1796 307 1809 311 1803 310 b 1777 296 1790 304 1783 300 b 1753 267 1771 291 1763 281 b 1710 197 1743 252 1729 229 b 1635 64 1692 165 1667 121 b 1587 -18 1618 36 1603 9 b 1552 -73 1571 -44 1559 -62 b 1498 -134 1535 -96 1518 -116 b 1444 -173 1478 -153 1460 -165 b 1429 -179 1437 -176 1432 -178 b 1421 -180 1426 -180 1423 -180 b 1405 -174 1417 -180 1412 -178 b 1340 34 1362 -146 1340 -77 b 1354 240 1340 77 1344 145 b 1370 387 1359 300 1364 349 b 1387 494 1374 412 1380 448 b 1395 602 1392 530 1395 566 b 1388 662 1395 629 1392 650 b 1324 703 1380 689 1358 703 b 1295 699 1311 703 1301 701 b 1273 683 1289 697 1281 692 b 1211 607 1257 667 1236 642 b 1137 498 1185 572 1160 536 b 977 155 1106 449 1053 334 b 951 96 968 133 960 113 b 934 61 943 79 937 67 b 922 42 930 55 926 48 l 917 57 b 901 178 906 83 901 124 b 921 452 901 237 907 328 b 937 714 932 556 937 643 b 928 805 937 762 934 792 b 865 837 916 826 895 837 b 772 758 836 837 805 810 b 672 555 737 708 704 640 b 544 141 640 469 597 331 b 462 -133 499 -14 472 -105 b 450 -153 456 -146 452 -153 b 447 -144 449 -153 448 -150 b 430 108 435 -92 430 -8 b 437 381 430 184 433 276 b 441 523 440 433 441 480 b 427 715 441 604 437 667 b 337 856 412 787 382 834 b 269 868 322 864 300 868 b 226 865 250 868 235 867 b 120 794 197 859 161 836 b 0 528 40 707 0 618 b 31 401 0 479 10 437 b 73 345 40 384 54 365 b 180 281 113 302 149 281 l 189 281 b 208 286 201 283 208 285 b 191 292 208 288 201 290 b 106 350 166 296 138 315 b 38 526 61 399 38 457 b 104 712 41 587 62 650 b 243 836 144 774 191 816 b 258 839 249 838 254 839 b 275 827 262 839 269 836 b 301 771 288 816 296 797 b 311 601 308 736 311 680 b 303 402 311 542 309 475 b 292 102 296 299 292 199 b 300 -73 292 18 295 -41 b 336 -174 307 -110 319 -143 b 388 -233 353 -204 370 -224 b 439 -241 401 -238 418 -241 z "},"N":{"ha":1116,"x_min":0,"x_max":0,"o":"m 221 -302 b 256 -298 235 -302 247 -301 b 284 -242 265 -292 275 -274 b 303 -165 289 -224 296 -199 b 357 45 313 -123 331 -53 b 390 163 360 52 371 92 l 414 256 b 608 731 469 465 533 623 b 673 806 632 764 654 789 b 645 629 665 753 656 695 b 616 417 631 547 622 476 b 604 154 608 334 604 247 b 608 54 604 113 605 79 b 639 -48 613 16 623 -18 b 675 -107 651 -75 663 -94 b 724 -143 686 -121 703 -133 b 808 -165 751 -158 780 -165 b 904 -136 843 -165 875 -155 b 1015 -6 941 -109 978 -66 b 1116 179 1040 35 1074 97 b 1161 273 1138 224 1154 255 b 1172 313 1168 291 1172 304 b 1158 334 1170 327 1166 334 b 1143 326 1154 334 1149 331 b 1096 251 1128 313 1112 288 b 970 7 1057 156 1015 75 b 847 -123 926 -60 884 -103 b 828 -132 838 -127 832 -130 b 818 -134 824 -134 821 -134 b 755 -47 793 -134 772 -105 b 746 60 749 -28 746 7 b 777 457 747 115 758 248 b 789 633 785 547 789 605 b 790 719 790 657 790 686 b 778 824 789 769 785 804 b 738 863 770 844 758 857 b 702 870 725 868 713 870 b 659 859 686 870 672 866 b 631 829 654 855 644 846 b 588 771 617 812 603 792 b 550 714 572 750 560 731 b 372 254 491 616 431 463 b 330 113 359 210 345 163 b 291 -17 315 64 302 20 b 269 -83 279 -54 272 -76 b 268 -45 268 -83 268 -71 b 269 54 268 -20 269 14 b 277 562 275 314 277 484 b 270 741 277 643 275 703 b 153 882 256 835 217 882 b 60 815 121 882 90 859 b 6 686 35 778 16 734 b 0 634 2 668 0 650 b 11 547 0 610 3 581 b 32 491 18 517 24 498 b 59 484 36 486 45 484 b 66 486 63 484 65 485 l 66 487 b 58 505 66 490 63 496 b 58 506 58 506 58 506 b 40 576 50 525 44 549 b 34 627 36 598 34 615 b 40 673 34 639 36 654 b 109 819 52 732 75 780 b 137 841 122 833 131 841 b 149 772 145 841 149 818 b 136 518 149 703 145 618 b 110 42 119 334 110 175 b 117 -157 110 -63 113 -130 b 183 -298 132 -237 153 -283 b 221 -302 194 -301 207 -302 z "},"O":{"ha":758,"x_min":0,"x_max":0,"o":"m 262 -291 b 357 -268 296 -291 327 -283 b 416 -218 373 -259 393 -243 b 568 22 469 -164 519 -84 b 627 184 595 84 616 138 l 635 212 b 739 248 683 227 718 239 b 842 311 807 275 842 296 b 829 332 842 323 838 330 b 809 335 821 334 814 335 b 746 307 785 335 765 326 b 646 254 728 288 694 271 l 659 312 b 684 534 675 388 684 461 b 644 800 684 625 670 713 b 556 949 623 867 593 917 b 410 996 519 980 470 996 b 125 849 316 996 220 947 b 0 571 41 758 0 665 b 51 393 0 511 17 451 b 93 332 59 378 73 357 l 81 281 b 45 -12 58 177 45 80 b 51 -92 45 -42 47 -68 b 218 -286 73 -199 129 -264 b 262 -291 233 -290 248 -291 z m 443 222 b 361 231 410 222 382 225 b 275 265 335 239 306 250 b 247 280 260 271 252 277 b 266 356 247 285 253 311 b 317 512 283 421 300 473 b 357 570 334 551 347 570 l 363 570 b 378 577 368 570 374 572 b 387 593 384 582 387 587 b 364 619 387 604 379 612 b 311 628 351 625 334 628 b 150 477 250 628 197 578 l 117 413 l 105 441 b 79 568 88 484 79 526 b 220 853 79 666 127 761 b 416 960 298 924 363 960 l 420 960 b 591 690 497 947 554 857 b 608 524 602 636 608 581 b 574 269 608 443 597 358 b 555 229 568 244 561 231 b 473 222 544 225 517 223 z m 276 -229 b 254 -209 270 -229 262 -222 b 212 -10 227 -165 212 -99 b 220 114 212 26 215 67 b 236 231 227 184 232 222 b 276 218 240 231 253 227 b 458 187 331 197 391 187 b 552 192 470 187 501 189 l 545 167 b 425 -79 520 87 480 5 b 356 -166 405 -109 382 -138 b 276 -229 318 -208 292 -229 z "},"P":{"ha":646,"x_min":0,"x_max":0,"o":"m 138 -273 b 178 -257 161 -273 174 -268 b 184 -195 181 -248 183 -228 l 186 -119 l 191 20 b 283 26 237 20 267 22 b 405 110 321 38 361 65 b 484 212 437 142 463 176 b 516 267 498 240 509 258 b 594 274 518 271 544 274 b 667 278 630 274 654 275 b 687 294 680 281 687 286 b 656 307 687 302 677 307 b 612 303 644 307 629 306 b 547 297 583 299 561 297 b 529 302 535 297 529 298 l 530 304 b 578 463 548 348 564 401 b 611 705 600 555 611 635 b 594 846 611 758 606 804 b 487 963 572 924 536 963 b 429 935 466 963 446 954 b 378 848 416 920 399 891 b 259 525 335 762 296 654 b 180 208 241 459 214 354 b 188 517 183 361 186 463 b 195 673 190 576 193 627 b 200 829 199 736 200 789 b 173 961 200 906 191 950 b 131 970 163 967 149 970 b 81 958 109 970 92 966 b 37 816 65 943 50 895 b 0 346 12 673 0 516 b 13 117 0 262 4 186 b 58 -155 20 56 35 -35 b 81 -248 67 -208 75 -239 b 93 -262 84 -254 88 -258 b 121 -273 103 -269 113 -272 b 138 -273 131 -273 136 -273 z m 222 234 l 222 235 b 239 324 222 243 228 273 b 342 694 269 461 304 585 b 417 856 364 752 389 806 b 475 930 445 905 464 930 b 491 899 481 930 487 920 b 497 840 494 878 496 858 b 498 802 498 821 498 808 b 494 730 498 778 497 754 b 450 530 487 677 473 610 b 362 276 427 444 397 359 b 249 245 303 262 265 252 b 222 234 233 237 224 234 z m 219 80 b 205 114 210 80 205 92 b 218 177 205 147 209 168 b 239 194 222 181 229 186 b 324 239 269 217 298 232 l 346 245 l 330 218 b 231 89 300 163 267 120 b 219 80 224 83 220 80 z "},"Q":{"ha":688,"x_min":0,"x_max":0,"o":"m 752 -370 b 770 -367 758 -370 764 -369 b 790 -344 783 -362 790 -354 b 732 -278 790 -337 770 -315 b 639 -191 709 -257 679 -228 b 543 -94 599 -155 567 -122 l 510 -53 l 530 1 b 586 191 551 56 569 119 b 623 399 602 262 614 332 b 629 549 627 444 629 494 b 616 729 629 624 625 684 b 562 865 603 787 585 832 b 545 911 551 880 545 895 b 494 989 545 947 528 972 b 392 1013 459 1005 425 1013 b 338 1008 374 1013 357 1011 b 121 817 250 987 177 923 b 29 528 80 730 49 634 b 0 256 9 421 0 331 b 3 176 0 229 1 202 b 102 -113 16 53 49 -43 b 150 -164 118 -134 134 -151 b 207 -199 165 -177 184 -189 b 243 -212 220 -205 233 -210 b 297 -215 254 -214 272 -215 b 349 -212 320 -215 337 -214 b 470 -121 389 -207 429 -176 l 487 -98 b 558 -173 519 -134 543 -159 b 612 -224 576 -191 594 -208 b 690 -303 642 -252 668 -278 b 722 -354 711 -329 722 -346 b 732 -366 722 -357 725 -361 b 752 -370 739 -369 745 -370 z m 435 58 b 414 86 430 58 422 68 b 315 471 348 200 315 328 b 323 593 315 512 317 553 b 426 863 338 711 373 801 l 452 891 l 465 880 b 498 825 475 871 486 852 b 529 743 511 798 522 771 b 543 631 538 708 543 671 b 545 553 544 592 545 566 b 470 134 545 416 519 277 b 442 63 455 90 446 66 b 435 58 439 60 437 58 z m 307 -144 b 276 -114 300 -144 290 -134 b 177 219 218 -37 186 73 l 176 250 b 197 473 176 312 183 387 b 322 873 226 656 268 789 b 392 949 347 911 370 937 b 408 954 398 952 403 954 b 418 951 411 954 414 954 b 439 942 422 950 429 947 b 468 926 448 937 458 932 l 443 922 b 398 909 426 920 411 916 b 359 876 385 901 372 890 b 254 483 290 799 256 668 b 381 41 254 311 296 163 l 413 -7 b 393 -43 406 -19 399 -31 b 369 -80 387 -55 378 -67 b 342 -113 359 -93 350 -104 b 319 -135 333 -121 326 -129 b 307 -144 312 -141 308 -144 z "},"R":{"ha":602,"x_min":0,"x_max":0,"o":"m 131 -245 l 146 -240 b 165 -222 155 -237 162 -231 b 178 -135 168 -215 172 -186 l 180 -126 b 210 65 186 -67 195 -3 b 221 109 214 92 218 106 l 222 109 b 302 73 230 109 256 97 b 525 -34 385 28 460 -7 b 659 -74 590 -60 635 -74 l 660 -74 b 687 -65 678 -73 687 -69 b 635 -38 687 -59 669 -50 b 374 82 563 -13 476 27 b 271 149 326 108 291 130 b 288 163 277 153 282 159 b 315 186 293 168 302 176 b 354 219 327 197 340 208 b 470 347 394 254 433 296 b 557 498 507 398 536 448 b 610 693 591 581 608 646 b 613 775 612 740 613 767 b 575 926 613 847 600 897 b 544 943 564 936 554 941 b 523 945 534 944 527 945 b 491 938 511 945 500 943 b 441 883 477 930 460 912 b 380 779 420 854 400 819 b 241 347 334 680 288 536 b 196 183 217 250 202 195 b 187 149 190 175 187 164 b 170 68 187 137 182 110 l 153 7 b 157 715 156 435 157 671 b 155 876 157 785 157 839 b 149 954 154 913 152 939 b 136 981 145 968 141 977 b 109 991 127 987 119 990 b 90 991 98 991 92 991 b 56 985 76 991 64 989 b 1 418 24 976 6 787 b 0 258 1 357 0 304 b 4 85 0 180 1 122 b 104 -240 20 -113 53 -222 l 106 -241 b 127 -245 117 -243 123 -245 z m 251 254 l 256 277 b 485 880 328 586 404 787 l 505 903 b 511 863 509 888 511 874 b 501 764 511 839 508 806 b 412 469 482 646 453 548 b 302 307 385 417 349 363 b 251 254 296 301 280 283 z "},"S":{"ha":572,"x_min":0,"x_max":0,"o":"m 191 -346 b 288 -325 224 -346 257 -338 b 357 -274 312 -313 335 -296 b 420 -178 388 -244 409 -212 b 424 -146 422 -170 424 -159 b 415 -68 424 -116 421 -90 b 357 81 411 -52 391 -2 b 541 227 427 140 488 189 b 626 299 597 270 626 294 b 614 304 624 302 620 304 b 570 290 604 304 589 299 b 363 134 549 281 481 229 l 340 115 l 317 154 b 156 667 210 339 156 510 b 159 730 156 688 157 709 b 223 879 168 810 189 859 b 240 885 231 883 237 885 b 267 875 245 885 254 882 b 393 703 323 842 366 784 b 406 612 398 685 402 654 b 414 545 408 572 410 551 b 434 538 418 541 425 538 b 455 547 445 538 452 541 b 459 593 457 554 458 570 b 457 667 459 617 458 642 b 450 724 455 692 453 711 b 392 843 438 769 418 808 b 302 914 365 878 335 901 b 230 925 280 922 256 925 b 143 909 196 925 167 920 b 16 728 87 882 44 822 b 1 646 7 700 2 672 b 0 548 0 625 0 593 b 8 433 0 500 3 462 b 50 306 14 401 28 358 b 108 182 68 260 87 218 b 189 57 127 146 155 104 l 224 6 l 201 -20 b 123 -148 167 -60 141 -103 b 97 -256 106 -193 97 -229 b 148 -338 97 -294 114 -321 b 191 -346 159 -343 174 -346 z m 193 -299 b 176 -284 186 -299 181 -294 b 168 -240 171 -271 168 -257 b 227 -67 168 -196 188 -138 b 251 -32 234 -54 242 -42 l 271 -71 b 292 -159 286 -102 292 -132 b 223 -284 292 -207 269 -249 b 193 -299 210 -294 200 -299 z "},"T":{"ha":873,"x_min":0,"x_max":0,"o":"m 671 -262 b 695 -256 677 -262 685 -260 b 712 -243 703 -252 709 -248 b 720 -214 715 -239 718 -229 b 772 584 751 -73 768 194 l 776 874 l 833 884 b 968 899 888 895 934 899 b 1046 880 1008 899 1034 893 b 1076 842 1059 869 1069 857 b 1087 797 1084 826 1087 811 b 1083 774 1087 787 1086 780 b 1066 755 1080 769 1074 762 b 1046 728 1053 743 1046 734 b 1091 713 1046 718 1061 713 b 1195 770 1145 713 1179 732 b 1198 789 1197 777 1198 783 b 1177 847 1198 807 1191 827 b 1037 928 1146 893 1099 920 b 978 933 1015 932 995 933 b 864 922 954 933 916 929 b 786 908 831 918 805 913 l 781 907 b 777 909 779 907 778 908 b 774 919 775 909 774 913 b 773 948 773 925 773 935 b 764 1000 773 973 770 991 b 730 1014 758 1009 747 1014 b 680 994 709 1014 692 1007 b 647 921 667 980 656 956 b 630 877 641 895 635 880 b 562 860 625 874 602 868 b 402 821 515 850 462 838 b 275 797 344 806 302 798 b 200 795 257 796 232 795 b 92 790 141 795 104 793 b 63 781 82 788 73 785 b 17 754 43 772 28 764 b 0 730 5 745 0 736 b 24 713 0 722 8 716 b 54 708 35 709 45 708 b 188 736 68 708 113 718 l 285 758 l 330 736 b 585 404 441 684 526 573 b 601 316 593 378 599 349 b 604 227 602 296 603 266 b 621 -141 608 104 613 -19 b 629 -236 624 -195 627 -227 b 646 -257 631 -246 636 -253 b 669 -262 655 -260 663 -262 z m 62 736 b 62 736 62 736 62 736 b 71 744 62 737 64 740 b 174 770 91 758 125 767 l 217 774 l 157 758 b 62 736 100 743 68 736 z m 604 484 b 554 584 591 517 574 551 b 507 651 536 613 520 635 b 378 751 469 694 425 728 l 335 774 b 627 840 517 819 615 840 b 629 836 629 840 629 839 b 625 794 629 833 628 819 b 613 658 621 765 617 720 l 613 651 b 604 484 609 596 606 541 z "},"U":{"ha":734,"x_min":0,"x_max":0,"o":"m 231 -200 b 273 -194 250 -200 264 -198 b 295 -178 280 -191 288 -186 b 399 59 331 -140 366 -61 b 495 404 441 212 473 326 b 503 136 497 281 500 192 b 528 -84 507 58 515 -15 b 546 -161 535 -124 541 -150 b 573 -185 552 -171 561 -179 b 610 -195 585 -191 597 -195 b 644 -183 621 -195 632 -191 b 665 -149 658 -174 665 -163 b 659 -29 665 -126 663 -86 b 653 194 655 31 653 106 b 665 601 653 360 657 496 b 678 865 674 717 678 806 b 675 917 678 895 677 911 b 644 926 669 923 659 926 b 604 914 624 926 611 922 b 562 791 595 902 581 861 b 540 706 553 761 546 732 b 500 555 531 665 518 615 b 473 460 494 532 484 501 l 429 310 b 328 -14 385 156 351 48 b 262 -140 305 -75 283 -118 l 243 -163 l 231 -136 b 178 59 211 -92 193 -26 b 162 353 168 112 162 210 b 168 671 162 431 164 537 b 171 822 170 731 171 781 b 159 899 171 867 167 892 b 136 903 153 902 146 903 b 112 906 126 905 118 906 b 52 867 85 906 64 893 b 15 680 36 837 24 774 b 0 378 5 579 0 479 b 16 144 0 277 5 199 b 89 -68 33 65 57 -6 b 185 -189 121 -130 153 -170 b 210 -198 194 -193 202 -197 b 231 -200 216 -199 223 -200 z "},"V":{"ha":539,"x_min":0,"x_max":0,"o":"m 227 -217 b 279 -198 251 -217 269 -211 b 292 -178 284 -192 289 -185 b 335 -52 301 -157 315 -115 b 388 142 354 11 372 76 b 550 715 441 351 495 542 b 593 855 577 796 591 843 b 596 873 595 864 596 869 b 585 883 596 880 592 883 b 558 865 576 883 568 877 b 536 823 549 854 541 840 b 505 697 533 813 523 771 b 454 509 484 617 467 555 b 425 413 444 477 434 445 b 353 172 398 319 374 239 b 260 -81 315 53 284 -31 b 236 -116 248 -104 239 -116 b 219 -58 233 -116 228 -97 b 186 113 203 12 192 68 b 159 342 178 163 170 239 b 134 601 148 445 140 531 b 79 869 122 758 104 847 b 56 883 71 878 63 882 b 45 883 50 883 46 883 b 14 871 34 883 23 879 l 0 861 l 1 705 b 26 261 1 557 10 408 b 86 -69 43 114 62 3 b 132 -161 98 -104 113 -135 b 186 -212 150 -187 168 -204 b 227 -217 197 -215 210 -217 z "},"W":{"ha":1142,"x_min":0,"x_max":0,"o":"m 794 -330 b 861 -315 820 -330 842 -325 b 916 -269 880 -306 898 -290 b 958 -200 935 -248 948 -224 b 996 -71 968 -176 981 -132 b 1031 104 1010 -9 1022 50 b 1062 400 1044 185 1055 284 b 1074 650 1069 516 1073 599 b 1074 732 1074 701 1074 728 b 1061 901 1074 822 1069 878 b 1027 928 1052 919 1040 928 b 993 859 1004 928 993 905 b 1000 746 993 838 995 800 b 1005 573 1003 694 1005 636 b 980 149 1005 414 997 273 b 858 -233 954 -28 913 -155 b 807 -286 833 -269 816 -286 b 778 -233 802 -286 792 -269 b 743 -54 761 -189 749 -130 b 732 164 738 -1 734 71 b 721 380 729 281 725 353 b 702 428 716 399 710 414 b 676 454 694 441 685 450 b 644 460 667 458 656 460 b 608 452 629 460 616 458 b 507 199 586 439 553 355 b 466 68 488 133 475 90 b 419 -46 454 34 438 -4 b 374 -134 399 -88 385 -117 l 359 -157 l 351 -132 b 334 -27 340 -98 335 -63 b 334 32 334 9 334 28 b 347 336 334 100 338 201 b 355 537 352 412 355 479 b 338 731 355 623 349 687 b 251 881 317 812 288 863 b 205 889 239 886 224 889 b 151 880 182 889 163 886 b 75 769 125 865 100 828 b 3 461 33 675 9 572 b 0 371 1 425 0 394 b 13 267 0 309 5 274 b 23 263 17 264 20 263 b 32 271 27 263 30 266 b 37 330 35 279 37 298 b 129 752 37 487 67 628 b 149 787 135 764 142 776 b 168 814 157 799 163 808 b 183 833 172 821 178 827 l 190 803 b 200 682 197 774 200 734 b 188 433 200 625 196 542 b 169 83 175 263 169 146 b 193 -93 169 11 177 -48 b 338 -228 226 -183 274 -228 b 372 -224 349 -228 360 -227 b 449 -154 402 -218 428 -195 b 523 77 469 -114 494 -37 b 584 279 543 150 563 218 b 610 345 599 323 608 345 b 611 342 610 345 611 345 l 610 333 b 592 82 598 263 592 180 b 598 -76 592 11 594 -41 b 623 -175 602 -111 610 -143 b 794 -330 657 -278 714 -330 z "},"X":{"ha":761,"x_min":0,"x_max":0,"o":"m 470 -330 b 532 -313 495 -329 515 -323 b 720 35 589 -269 652 -153 l 783 208 b 810 302 801 258 810 290 b 797 313 810 309 806 312 b 793 314 796 314 795 314 b 777 304 788 314 783 311 b 755 264 770 298 764 285 b 724 176 747 244 736 214 b 639 -50 692 81 664 6 b 558 -197 614 -106 587 -155 b 480 -279 522 -252 496 -279 b 440 -220 473 -279 459 -260 b 313 151 397 -129 354 -5 b 296 232 302 195 296 222 b 313 292 296 237 301 257 b 353 416 323 328 337 369 b 404 555 370 464 387 510 b 450 694 425 612 440 659 b 465 763 460 728 465 751 b 448 776 465 772 460 776 b 426 772 437 776 430 774 b 329 564 415 764 382 695 b 273 425 304 503 285 456 b 256 389 264 401 258 389 b 227 478 254 389 244 418 b 97 810 174 670 131 781 b 45 826 83 821 65 826 b 0 797 15 825 0 816 b 37 640 0 773 12 721 b 146 229 83 482 120 345 l 170 132 b 129 -5 154 83 140 37 b 79 -214 106 -90 90 -159 b 75 -243 77 -227 75 -236 b 81 -267 75 -252 77 -260 b 121 -295 91 -286 104 -295 b 169 -258 142 -295 158 -283 b 199 -141 178 -237 189 -197 b 220 -42 211 -75 218 -42 b 247 -103 226 -50 235 -70 b 294 -200 264 -144 280 -176 b 348 -270 308 -224 326 -247 b 406 -319 370 -294 389 -310 b 470 -330 422 -326 444 -330 z "},"Y":{"ha":768,"x_min":0,"x_max":0,"o":"m 474 -314 b 551 -299 503 -314 528 -309 b 670 -115 617 -268 656 -207 b 679 52 675 -80 678 -25 l 682 198 b 747 245 704 216 726 231 b 825 289 792 274 819 289 b 838 301 831 289 836 293 l 839 307 b 810 318 839 314 829 318 b 784 314 800 318 791 317 b 757 296 777 311 768 305 b 730 276 749 290 740 283 b 704 258 720 269 711 262 b 680 243 696 253 688 248 l 682 690 b 682 836 682 773 682 821 b 677 880 681 859 679 874 b 635 894 673 889 659 894 b 601 888 620 894 609 892 b 581 865 593 884 587 876 b 557 793 574 850 566 825 b 538 701 548 760 542 729 b 524 640 536 682 531 661 b 483 538 516 617 503 583 b 378 310 441 437 406 361 b 297 194 350 258 323 220 l 273 170 l 262 190 b 202 409 239 239 218 312 b 187 594 199 430 194 492 b 174 782 182 684 178 746 b 159 845 170 817 165 838 b 125 867 151 857 139 865 b 94 870 112 869 101 870 b 58 865 81 870 70 868 b 20 838 39 860 26 851 b 0 569 7 804 0 715 b 7 428 0 509 2 463 b 37 304 12 391 22 349 b 253 96 84 165 156 96 b 340 129 292 96 321 106 b 430 306 368 162 398 221 b 521 551 486 458 516 539 l 522 551 b 532 123 529 551 532 408 l 488 71 b 418 -33 463 39 439 5 b 376 -130 397 -70 383 -102 b 367 -198 370 -155 367 -178 b 430 -307 367 -251 388 -287 b 474 -314 441 -311 456 -314 z m 473 -269 b 450 -252 466 -269 458 -263 b 433 -222 441 -241 435 -231 b 430 -194 431 -214 430 -203 b 431 -165 430 -185 430 -176 b 500 9 435 -113 458 -56 l 530 53 b 532 33 530 46 531 39 b 532 -9 532 26 532 12 l 531 -81 b 522 -194 530 -132 527 -169 b 494 -252 516 -219 507 -238 b 473 -269 486 -263 479 -269 z "},"Z":{"ha":1367,"x_min":0,"x_max":0,"o":"m 137 -166 b 399 -29 232 -166 319 -121 b 440 22 416 -9 431 8 b 455 33 446 29 450 33 b 581 -24 462 33 504 14 b 781 -107 671 -68 738 -96 b 893 -125 824 -119 861 -125 b 1340 157 1040 -125 1190 -31 b 1431 295 1381 209 1412 255 b 1442 330 1438 312 1442 323 b 1423 340 1442 337 1436 340 b 1390 325 1411 340 1400 335 b 1354 267 1380 315 1368 295 b 1207 78 1318 203 1270 140 b 1025 -61 1144 16 1084 -31 b 895 -97 980 -85 937 -97 b 670 -26 842 -97 767 -73 b 478 57 566 24 501 51 b 473 63 475 58 473 60 b 496 108 473 68 481 83 b 621 347 527 159 568 239 b 783 701 673 454 727 572 l 828 801 l 857 805 b 1008 859 907 812 958 829 b 1122 954 1059 887 1097 919 b 1137 981 1131 966 1136 975 b 1140 1004 1139 988 1140 995 b 1134 1050 1140 1023 1138 1039 b 1120 1074 1131 1058 1126 1066 b 1048 1120 1096 1102 1072 1118 b 1000 1125 1023 1124 1008 1125 b 896 1101 966 1125 932 1117 b 715 882 834 1068 774 996 b 697 850 705 861 699 850 b 614 869 693 850 665 856 b 437 894 549 886 490 894 b 290 864 380 894 332 884 b 235 822 272 854 253 840 b 193 769 216 803 202 785 b 178 732 183 753 178 741 b 198 714 178 723 184 717 b 214 712 205 713 211 712 b 233 715 221 712 227 713 b 238 718 236 716 238 718 b 216 728 238 720 231 723 l 229 751 b 272 804 239 768 253 786 b 325 846 290 823 308 837 b 422 869 355 861 387 869 b 583 840 461 869 515 860 b 663 820 630 827 657 820 b 675 814 670 820 673 818 b 552 530 675 804 634 709 b 372 149 473 357 412 230 l 338 87 b 186 78 251 83 200 80 b 134 65 168 75 151 71 b 0 -67 45 35 0 -9 b 73 -159 0 -113 24 -143 b 137 -166 88 -163 109 -166 z m 850 845 b 849 846 850 845 849 845 b 891 928 849 852 863 879 b 968 1037 920 978 945 1015 b 996 1057 981 1050 989 1057 b 1008 1043 999 1057 1004 1053 b 1021 1000 1017 1026 1021 1012 b 985 932 1021 981 1009 958 b 905 867 962 905 935 884 b 850 845 874 852 856 845 z m 123 -126 b 94 -116 114 -126 104 -123 b 62 -56 73 -103 62 -83 b 258 60 68 13 133 51 b 302 61 275 60 290 61 b 319 58 313 60 319 60 b 287 9 319 56 309 40 b 220 -68 266 -19 243 -45 b 123 -126 180 -106 148 -126 z "},"[":{"ha":259,"x_min":0,"x_max":0,"o":"m 79 -191 b 170 -183 106 -191 136 -189 b 220 -167 198 -179 215 -174 b 224 -157 222 -164 224 -161 b 210 -142 224 -152 219 -146 b 149 -135 195 -138 175 -135 l 135 -135 l 144 1193 b 153 1195 144 1194 148 1194 b 210 1198 173 1195 192 1196 b 245 1216 234 1199 245 1205 b 195 1235 245 1229 229 1235 b 123 1238 165 1235 141 1236 b 78 1244 98 1242 83 1244 b 57 1240 71 1244 64 1242 b 37 1232 48 1239 41 1236 b 22 1152 28 1225 23 1198 l 22 1015 b 16 199 22 677 20 406 b 14 -28 14 114 14 38 b 16 -151 14 -73 14 -113 b 52 -187 18 -170 29 -182 l 60 -190 b 79 -191 64 -191 70 -191 z "},"\\":{"ha":597,"x_min":0,"x_max":0,"o":"m 541 -32 b 566 -28 547 -32 555 -31 b 583 -1 578 -26 583 -16 l 413 479 b 197 1057 296 804 224 997 b 172 1101 190 1073 181 1087 b 83 1143 150 1129 121 1143 b 59 1142 81 1143 73 1143 b 20 1120 45 1141 32 1134 b 14 1094 16 1114 14 1105 b 130 768 14 1044 52 935 b 309 405 198 621 258 499 b 429 136 361 304 401 214 b 477 24 447 91 463 54 b 517 -28 491 -5 504 -22 b 541 -32 525 -31 532 -32 z "},"]":{"ha":259,"x_min":0,"x_max":0,"o":"m 180 -191 b 199 -190 189 -191 195 -191 l 208 -187 b 243 -151 230 -182 241 -170 b 245 -28 245 -113 245 -73 b 243 199 245 38 245 114 b 237 1015 239 406 237 677 l 237 1152 b 222 1232 236 1198 231 1225 b 202 1240 218 1236 211 1239 b 181 1244 195 1242 189 1244 b 136 1238 176 1244 161 1242 b 64 1235 118 1236 94 1235 b 14 1216 31 1235 14 1229 b 49 1198 14 1205 25 1199 b 106 1195 67 1196 86 1195 b 115 1193 111 1194 115 1194 l 124 -135 l 111 -135 b 50 -142 84 -135 64 -138 b 35 -157 40 -146 35 -152 b 39 -167 35 -161 37 -164 b 89 -183 44 -174 61 -179 b 180 -191 123 -189 153 -191 z "},"^":{"ha":420,"x_min":0,"x_max":0,"o":"m 56 358 b 96 366 72 358 85 361 b 133 405 108 371 120 384 b 212 546 149 431 176 479 b 270 465 213 545 232 517 b 338 376 308 412 330 382 b 369 369 346 372 357 369 b 399 376 385 369 395 372 b 407 389 404 381 407 385 b 393 410 407 394 402 401 b 283 583 348 457 311 514 b 245 650 270 614 257 637 b 212 665 233 659 222 664 b 196 665 203 665 197 665 b 154 653 181 665 167 661 b 121 610 148 648 137 634 b 71 525 105 585 88 557 b 29 441 53 493 39 465 b 14 388 19 416 14 399 b 15 380 14 385 14 382 b 39 359 22 366 30 359 b 56 358 50 358 55 358 z "},"_":{"ha":433,"x_min":0,"x_max":0,"o":"m 134 -28 b 241 -24 175 -27 211 -26 b 385 2 313 -20 361 -12 b 420 34 408 15 420 26 b 277 71 420 58 372 71 b 179 67 249 71 216 69 b 39 43 109 62 62 54 b 14 13 22 35 14 24 b 65 -25 14 -3 31 -16 b 107 -28 75 -27 89 -28 z "},"`":{"ha":390,"x_min":0,"x_max":0,"o":"m 347 790 b 376 812 361 790 371 798 l 376 816 b 339 892 376 829 364 854 b 243 1016 315 930 282 971 b 125 1123 203 1060 165 1096 b 54 1152 98 1143 74 1152 b 31 1147 45 1152 38 1151 b 14 1115 19 1139 14 1128 b 52 1030 14 1091 26 1063 b 122 953 66 1011 90 985 b 322 795 204 869 271 817 b 347 790 332 791 340 790 z "},"a":{"ha":636,"x_min":0,"x_max":0,"o":"m 412 -113 b 553 18 460 -113 508 -69 b 603 125 568 47 585 83 b 641 225 621 168 633 201 b 667 288 646 245 655 266 l 677 308 b 687 328 684 320 687 327 b 675 331 687 330 683 331 b 644 304 665 331 655 322 b 551 120 621 269 591 208 b 446 -56 511 28 475 -30 l 420 -81 l 412 -64 b 389 66 403 -44 395 -1 b 388 97 388 75 388 85 b 417 482 388 191 397 319 b 422 544 421 513 422 534 b 421 562 422 553 422 559 b 404 575 417 570 412 574 l 388 576 l 352 574 b 334 577 342 574 337 575 b 328 587 332 579 330 583 b 294 612 319 602 308 610 b 264 616 279 614 270 616 b 80 487 197 616 136 572 b -5 283 41 427 12 359 b -15 193 -12 252 -15 222 b -12 140 -15 175 -14 157 b 28 38 -5 95 8 60 b 74 9 45 20 61 11 b 98 7 87 7 95 7 b 151 26 117 7 135 14 b 241 200 178 52 208 110 l 269 277 l 273 203 b 412 -113 285 -7 331 -113 z m 118 71 l 118 134 b 197 476 118 254 144 368 b 248 559 216 513 233 541 b 272 580 260 573 268 580 b 279 576 274 580 277 578 b 303 531 295 563 303 547 b 300 517 303 527 302 522 b 288 463 299 512 295 494 b 215 258 283 435 258 366 b 160 139 193 202 174 163 z "},"b":{"ha":661,"x_min":0,"x_max":0,"o":"m 165 -195 b 252 -177 198 -195 227 -189 b 443 141 332 -138 396 -32 b 460 202 454 181 459 201 b 566 241 464 205 499 218 b 734 314 678 281 734 305 b 723 318 734 315 730 317 b 699 320 715 319 707 320 b 613 296 676 320 648 312 b 522 259 563 275 533 262 b 492 248 511 255 500 252 l 470 241 b 467 252 468 241 467 244 b 469 279 467 258 467 267 b 471 323 470 294 471 309 b 464 387 471 347 469 368 b 428 447 456 418 445 438 b 389 454 418 452 405 454 b 363 450 377 454 369 453 b 337 427 357 447 348 439 b 248 298 311 399 281 356 b 157 117 214 239 183 179 b 132 72 144 87 136 72 b 122 167 125 72 122 104 b 127 376 122 195 123 265 l 161 414 b 436 981 345 613 436 802 b 363 1162 436 1067 412 1127 b 311 1173 349 1169 332 1173 b 254 1162 291 1173 272 1169 b 200 1118 239 1154 220 1139 b 150 1050 179 1095 163 1073 b 8 452 85 918 39 719 b -2 167 1 399 -2 304 b 1 -26 -2 56 -1 -9 b 9 -64 3 -39 6 -52 b 26 -129 16 -85 21 -106 b 70 -161 29 -151 43 -161 b 94 -172 79 -161 86 -165 b 165 -195 111 -187 134 -195 z m 206 132 l 243 205 b 308 319 264 245 286 283 b 369 397 340 371 361 397 b 371 389 370 397 371 394 b 334 243 371 370 359 322 l 313 181 l 256 155 z m 155 -127 b 134 -74 150 -127 143 -109 b 134 -68 134 -73 134 -71 b 152 -3 134 -56 140 -35 b 174 47 160 19 168 35 b 200 79 181 58 190 68 b 226 99 206 85 215 92 b 258 120 236 106 247 113 b 283 135 269 127 277 132 b 296 139 290 138 294 139 b 297 138 296 139 297 139 b 270 72 297 136 288 114 b 233 -10 250 26 237 -1 b 191 -80 229 -19 214 -42 b 155 -127 171 -111 159 -127 z m 134 432 b 133 437 133 432 133 434 b 146 569 133 450 137 494 b 174 779 155 654 165 725 b 293 1133 208 974 248 1091 b 316 1142 301 1139 309 1142 b 378 1067 338 1142 358 1117 b 390 971 386 1041 390 1009 b 378 859 390 934 386 897 b 181 487 351 735 285 611 b 134 432 152 450 136 432 z "},"c":{"ha":557,"x_min":0,"x_max":0,"o":"m 155 -130 b 251 -104 182 -130 214 -121 b 558 223 329 -68 431 41 b 608 299 581 256 597 281 b 625 330 619 316 625 327 b 625 337 625 334 625 336 b 612 347 625 344 621 347 b 565 306 601 347 585 334 b 511 229 552 288 534 262 b 196 -94 382 40 278 -68 b 168 -100 184 -98 174 -100 b 140 -76 157 -100 148 -92 b 114 97 123 -35 114 22 b 163 416 114 219 130 326 b 210 504 176 448 191 477 b 229 523 219 517 226 523 b 241 509 232 523 236 518 b 258 473 247 498 252 487 b 268 435 262 458 266 446 b 290 400 273 412 279 400 b 319 429 300 400 310 410 b 333 503 328 448 333 473 b 288 583 333 542 318 568 b 233 593 274 590 256 593 b 144 574 197 593 168 587 b 10 361 84 538 39 467 b -4 271 1 330 -3 300 b -5 191 -5 252 -5 226 b -1 69 -5 126 -4 85 b 7 32 1 58 4 45 b 155 -130 39 -76 88 -130 z "},"d":{"ha":762,"x_min":0,"x_max":0,"o":"m 463 -237 b 521 -223 483 -237 502 -232 b 567 -180 532 -216 548 -202 b 618 -111 585 -159 602 -136 b 727 129 641 -69 677 11 b 802 325 777 248 802 313 l 802 326 b 794 330 800 329 797 330 b 740 251 784 330 766 304 b 665 91 722 215 696 161 b 517 -158 610 -32 561 -115 l 480 -196 b 451 -11 462 -147 452 -85 l 449 115 b 463 412 449 214 454 313 l 475 541 l 530 622 b 680 922 596 723 646 823 b 705 1021 692 957 700 990 b 713 1091 711 1052 713 1076 b 713 1106 713 1097 713 1102 b 710 1122 712 1110 711 1116 b 699 1163 706 1142 703 1156 b 617 1213 682 1196 655 1213 b 522 1171 583 1213 551 1199 b 424 979 492 1136 458 1072 b 340 688 389 886 361 789 b 330 633 334 654 331 637 l 329 633 b 315 642 326 633 322 636 b 282 655 304 650 294 655 l 264 655 b 205 643 244 655 224 651 b 154 610 186 634 169 623 b 106 552 138 595 123 576 b -7 280 52 474 14 384 b -17 186 -14 246 -17 215 b -8 113 -17 159 -14 135 b 111 17 9 50 50 17 b 165 34 130 17 149 23 b 254 157 194 54 224 94 l 279 206 l 284 136 b 463 -237 299 -113 359 -237 z m 489 635 l 489 636 b 541 916 489 665 506 759 b 590 1098 559 996 576 1057 b 623 1158 604 1138 615 1158 b 645 1112 630 1158 637 1143 b 652 1049 650 1090 652 1069 b 621 900 652 1011 642 962 b 513 669 594 824 558 747 b 489 635 499 646 491 635 z m 136 80 b 133 90 134 80 133 83 b 153 228 133 109 140 155 b 197 409 164 287 179 347 b 254 566 216 471 235 523 b 276 599 263 588 271 599 b 302 564 282 599 291 587 l 315 537 l 306 467 b 279 351 300 420 292 381 b 222 220 264 311 245 267 b 164 117 199 174 180 139 b 145 91 157 106 151 98 b 136 80 140 83 136 80 z "},"e":{"ha":590,"x_min":0,"x_max":0,"o":"m 189 40 b 546 212 283 40 401 97 b 625 280 576 237 602 259 b 657 319 646 301 657 314 b 638 328 657 325 651 328 b 614 323 630 328 622 326 b 557 275 603 319 584 302 b 353 127 502 217 433 168 b 223 82 292 97 249 82 b 180 138 201 82 187 101 b 174 200 176 161 174 181 b 178 267 174 210 175 233 l 206 273 b 327 343 254 286 295 309 b 374 455 359 378 374 415 b 338 544 374 496 362 526 b 254 570 313 561 286 570 b 127 528 212 570 169 556 b 38 426 90 504 60 470 b -4 256 10 366 -4 309 b 3 194 -4 235 -2 214 b 123 52 18 123 58 76 b 189 40 143 43 165 40 z m 187 297 l 187 298 b 199 349 187 304 191 321 b 237 453 210 391 223 425 b 273 495 252 481 264 495 l 275 494 b 294 462 287 486 294 475 b 296 437 296 449 296 441 b 252 340 296 404 281 371 b 196 300 235 323 217 311 b 187 297 191 298 188 297 z "},"f":{"ha":394,"x_min":0,"x_max":0,"o":"m 130 -425 b 169 -419 146 -425 159 -422 b 275 -260 212 -402 247 -349 b 298 -125 290 -210 298 -165 b 193 62 298 -39 262 24 b 139 81 176 71 158 77 b 115 90 123 83 115 85 l 116 92 b 119 106 118 99 119 104 b 180 149 119 108 140 123 b 420 299 321 241 401 292 b 449 316 439 307 449 312 b 443 323 449 319 447 321 b 430 326 439 325 435 326 b 419 327 425 327 422 327 b 408 326 415 327 412 326 b 290 252 393 320 354 295 l 266 237 b 155 163 239 218 202 194 l 153 162 b 128 149 138 153 130 149 b 127 152 127 149 127 150 b 128 159 127 153 127 155 b 139 220 129 162 133 182 b 179 425 148 274 161 342 l 180 432 b 203 552 195 500 203 540 b 153 578 203 570 186 578 b 123 576 139 578 130 578 b 105 563 117 574 111 569 b 23 385 75 530 48 471 b -24 120 -2 299 -18 211 b -29 47 -26 82 -27 58 b -41 26 -31 37 -35 30 b -123 -50 -53 18 -81 -7 b -189 -122 -167 -94 -189 -117 b -157 -134 -189 -130 -178 -134 b -140 -132 -152 -134 -146 -133 b -117 -119 -134 -132 -127 -127 b -77 -77 -108 -111 -94 -96 l -32 -25 l -28 -108 b 79 -418 -19 -287 17 -391 b 111 -425 90 -422 101 -425 z m 139 -377 b 129 -364 136 -377 133 -373 b 97 -142 107 -320 97 -246 b 103 -19 97 -103 99 -62 l 111 53 l 133 43 b 209 -37 164 28 189 1 b 220 -62 214 -46 218 -54 b 224 -90 222 -69 223 -79 b 224 -137 224 -100 224 -116 b 222 -203 224 -166 224 -189 b 189 -303 218 -227 208 -260 b 174 -336 182 -318 177 -329 b 149 -371 163 -352 155 -363 b 139 -377 144 -375 141 -377 z "},"g":{"ha":702,"x_min":0,"x_max":0,"o":"m 192 -555 b 320 -498 236 -555 279 -536 b 488 -208 390 -429 446 -332 b 515 -97 502 -168 511 -131 b 521 29 519 -64 521 -21 l 519 181 b 635 249 571 212 610 235 b 762 323 715 292 757 317 l 762 327 b 751 334 762 332 758 334 b 712 326 743 334 730 332 b 576 263 675 314 630 293 b 515 231 538 241 517 231 b 508 309 515 232 512 258 b 492 449 505 357 499 404 b 470 540 484 494 477 524 b 449 564 465 551 458 559 b 407 570 439 568 425 570 b 363 562 387 570 372 568 b 346 530 355 555 349 545 l 340 503 l 330 517 b 280 547 314 536 298 546 b 248 547 262 547 252 547 b 160 526 220 547 190 541 b 32 395 106 499 64 455 b -16 191 0 334 -16 266 b 29 56 -16 127 -1 83 b 119 18 54 31 84 18 b 186 33 147 18 170 23 b 270 137 212 50 241 84 b 315 234 288 169 302 201 b 332 275 324 262 330 275 b 338 190 334 275 336 247 l 341 100 l 315 77 b 47 -360 136 -73 47 -219 l 47 -385 b 162 -553 51 -484 90 -540 b 192 -555 172 -555 182 -555 z m 187 -529 b 160 -519 180 -529 172 -526 b 99 -435 120 -496 100 -467 b 98 -385 98 -401 98 -385 b 156 -177 98 -320 117 -251 b 204 -100 170 -149 186 -124 b 289 -5 227 -71 255 -39 b 334 34 312 20 327 34 b 343 -9 340 34 343 19 b 341 -83 343 -28 342 -53 b 336 -197 340 -135 338 -173 b 323 -268 334 -220 330 -244 b 218 -509 294 -389 258 -469 b 187 -529 203 -522 193 -529 z m 149 77 l 149 127 b 165 281 150 175 155 226 b 202 426 175 336 187 384 b 255 504 221 478 239 504 b 328 424 275 504 300 477 b 336 395 333 414 336 404 b 300 311 336 378 324 351 b 228 189 284 286 260 244 b 172 102 207 151 188 122 z "},"h":{"ha":779,"x_min":0,"x_max":0,"o":"m 498 -284 b 547 -274 515 -284 531 -281 b 760 104 607 -241 678 -115 b 833 327 809 236 833 311 l 833 328 b 811 332 830 331 823 332 l 806 332 b 788 313 800 332 793 326 b 768 252 782 301 776 281 b 723 117 759 216 744 172 b 661 -31 702 62 682 13 b 606 -130 644 -65 626 -98 b 551 -205 585 -162 567 -187 b 519 -232 536 -223 526 -232 b 516 -230 519 -232 517 -231 b 514 -197 515 -229 515 -218 b 513 -123 513 -176 513 -152 b 522 26 513 -66 516 -16 b 541 137 526 52 532 90 b 572 410 562 260 572 352 b 560 451 572 426 568 439 b 522 480 547 469 534 479 b 498 483 509 482 501 483 b 438 465 479 483 458 477 b 326 353 411 447 374 410 b 199 182 277 296 235 239 l 159 117 b 153 218 156 157 154 191 l 151 334 l 186 364 b 329 519 232 400 279 452 b 424 709 369 576 400 640 b 459 907 448 779 459 844 b 420 1074 459 986 446 1042 b 337 1110 401 1093 373 1105 l 323 1111 b 166 1016 268 1111 216 1079 b 36 726 113 947 69 851 b 7 568 21 670 12 618 b 0 370 2 519 0 452 b 3 142 0 264 1 189 b 12 43 5 99 7 66 b 48 -43 18 11 31 -18 b 61 -60 54 -52 58 -58 b 104 -68 70 -65 84 -68 b 132 -64 117 -68 127 -66 b 194 55 136 -60 157 -20 b 271 208 223 117 249 169 b 336 302 288 235 309 267 b 408 391 362 336 387 366 b 448 427 430 415 443 427 l 449 427 l 449 427 b 427 359 449 422 441 399 b 368 157 403 294 383 227 b 345 -11 352 87 345 32 b 375 -175 345 -69 355 -124 b 449 -274 395 -226 420 -259 b 498 -284 465 -281 482 -284 z m 151 385 l 151 439 b 173 704 151 519 158 607 b 227 939 188 801 206 880 b 281 1039 243 979 261 1013 b 335 1078 301 1065 319 1078 b 363 1062 343 1078 353 1073 b 391 1019 373 1050 382 1036 b 405 950 399 998 404 975 b 407 897 406 925 407 907 b 401 819 407 869 405 843 b 250 491 378 693 327 583 b 151 385 238 478 205 442 z "},"i":{"ha":460,"x_min":0,"x_max":0,"o":"m 175 -50 b 243 -35 199 -50 222 -44 b 362 79 274 -18 314 20 b 495 270 410 138 455 201 b 519 320 511 297 519 314 b 516 326 519 323 518 325 b 508 330 514 327 511 328 b 500 331 505 330 503 331 b 473 309 494 331 485 323 b 437 257 460 295 449 277 b 347 119 411 209 381 163 b 256 19 313 75 282 42 b 196 -16 229 -4 209 -16 b 187 -14 193 -16 190 -15 b 149 136 162 3 149 54 b 152 197 149 155 150 176 b 157 260 154 216 155 237 b 159 323 158 284 159 304 b 159 364 159 340 159 354 b 149 400 159 380 155 392 b 123 422 142 410 134 418 b 83 428 113 426 100 428 b 56 425 71 428 62 427 b 35 409 50 422 43 417 b 10 361 22 397 14 381 b -6 219 -1 310 -6 262 b 10 100 -6 175 -1 136 b 133 -43 32 28 73 -19 b 175 -50 145 -47 159 -50 z m 86 519 b 128 527 102 519 117 522 b 169 566 144 536 157 549 b 186 614 180 583 186 600 b 176 646 186 624 182 635 b 149 670 168 656 159 665 b 110 678 136 675 123 677 b 83 678 96 678 87 678 b 41 673 66 678 52 677 b 1 594 14 661 1 635 b 28 530 1 564 9 543 b 64 519 41 524 53 520 b 86 519 76 519 83 519 z "},"j":{"ha":321,"x_min":0,"x_max":0,"o":"m 26 601 b 67 609 41 601 55 604 b 108 685 89 620 102 645 l 109 700 b 95 725 109 710 104 719 b 72 737 83 733 76 737 b 49 746 66 737 58 740 b 14 755 37 752 24 755 b -14 749 4 755 -5 753 b -50 695 -32 739 -44 722 b -54 669 -53 684 -54 675 b -44 640 -54 661 -51 652 b -14 608 -35 624 -24 613 b 23 601 -2 604 10 601 z m -63 -677 b 20 -667 -33 -677 -5 -674 b 220 -368 125 -629 193 -530 b 230 -231 227 -332 229 -286 b 221 -84 230 -175 227 -126 b 208 -7 218 -66 214 -40 b 189 87 202 25 195 57 b 174 153 183 118 178 140 l 174 156 b 215 199 174 163 188 178 b 286 250 232 212 256 229 b 374 320 345 290 374 313 b 368 323 374 322 372 323 b 321 310 359 323 343 319 b 254 275 298 302 276 290 b 212 248 240 267 227 258 b 161 218 184 227 168 218 b 155 227 157 218 155 220 b 140 279 155 232 150 249 b 110 370 131 308 121 338 b 85 436 99 400 91 422 b 55 474 75 456 64 469 b 23 480 45 478 34 480 b -11 470 10 480 -1 477 b -22 456 -17 465 -20 460 b -24 433 -23 450 -24 443 b -14 358 -24 420 -20 395 b 9 252 -7 326 0 291 b 41 110 31 162 41 115 b -1 56 41 105 27 87 b -245 -338 -113 -71 -195 -202 b -273 -477 -264 -389 -273 -435 b -262 -548 -273 -503 -269 -526 b -146 -667 -245 -606 -206 -645 b -63 -677 -121 -674 -94 -677 z m -73 -637 b -183 -555 -117 -637 -153 -610 b -195 -511 -190 -543 -194 -528 b -195 -479 -195 -502 -195 -492 b -192 -391 -195 -437 -195 -408 b -130 -216 -186 -349 -165 -290 b -13 -28 -99 -154 -60 -92 b 52 47 24 22 45 47 b 60 28 55 47 58 41 b 93 -206 77 -72 88 -150 b 96 -284 95 -233 96 -260 b 78 -455 96 -349 90 -406 b 30 -562 67 -494 51 -530 b -73 -637 -3 -612 -37 -637 z "},"k":{"ha":601,"x_min":0,"x_max":0,"o":"m 392 5 b 492 57 429 5 463 22 b 587 197 515 83 547 130 b 649 311 605 227 625 264 b 661 339 657 328 661 337 b 655 340 661 340 659 340 b 623 335 640 340 629 338 b 581 264 617 332 603 308 b 416 41 514 138 459 64 b 399 35 408 37 403 35 b 338 85 387 35 367 52 b 298 138 323 102 310 120 b 279 172 287 155 280 166 b 309 192 279 176 290 182 b 375 241 332 203 353 219 b 428 355 410 278 428 316 b 398 417 428 382 418 402 b 384 422 394 420 389 422 b 357 423 378 423 369 423 b 323 420 342 423 331 422 b 299 408 316 418 308 414 b 191 261 265 385 229 336 l 154 189 l 154 393 l 189 431 b 307 606 231 475 271 534 b 405 931 372 730 405 838 b 402 985 405 956 404 974 b 390 1017 400 995 396 1006 b 274 1085 365 1062 326 1085 b 240 1082 263 1085 252 1084 b 94 976 178 1071 130 1036 b 12 700 58 916 31 824 b 3 625 7 671 5 646 b -1 553 1 604 -1 579 b -3 437 -2 526 -3 487 b 4 208 -3 349 -1 273 b 20 85 8 144 14 102 b 85 33 33 50 55 33 b 122 44 105 33 117 37 b 139 56 130 52 136 56 b 168 113 143 56 152 75 b 194 170 182 151 191 170 b 222 132 196 170 205 157 b 357 12 261 71 307 31 b 392 5 370 7 382 5 z m 156 460 b 155 518 155 460 155 479 b 159 694 155 595 156 654 b 248 1017 174 863 203 971 b 279 1042 263 1034 274 1042 b 304 1023 286 1042 294 1036 b 328 981 314 1010 322 996 b 336 916 333 962 336 940 b 254 621 336 836 309 737 b 166 473 224 560 195 511 b 156 460 160 465 157 460 z m 207 200 b 205 201 205 200 205 201 b 252 288 205 208 220 236 b 319 375 275 326 297 355 b 345 392 331 387 340 392 b 347 368 347 392 347 384 b 330 308 347 351 342 330 b 289 252 319 286 305 267 b 256 227 280 244 269 236 b 223 207 243 218 232 212 b 207 200 214 202 209 200 z "},"l":{"ha":425,"x_min":0,"x_max":0,"o":"m 214 72 b 334 127 256 72 295 90 b 399 205 355 149 377 175 b 451 284 422 236 439 262 b 469 327 463 306 469 320 b 460 334 469 332 467 334 b 403 286 448 334 429 318 b 260 134 340 206 293 155 l 226 111 l 205 136 b 115 364 165 181 136 257 l 109 392 l 141 430 b 257 610 184 481 222 541 b 330 805 292 678 315 743 b 338 879 335 832 338 857 b 338 920 338 901 338 914 b 332 988 338 949 336 972 b 275 1063 322 1024 303 1049 b 227 1076 260 1072 243 1076 l 208 1075 b 87 1017 161 1074 121 1055 b -28 755 38 966 0 880 b -44 565 -39 704 -44 640 b -37 448 -44 521 -41 482 b 92 135 -14 302 28 198 b 156 84 117 109 139 92 b 214 72 176 76 195 72 z m 99 446 l 95 503 b 93 575 94 527 93 551 b 116 805 93 652 100 728 b 199 1018 137 905 165 977 b 224 1036 211 1030 219 1036 b 253 1015 232 1036 241 1029 b 277 971 264 1001 273 987 b 286 898 283 948 286 924 b 165 543 286 800 245 682 b 137 496 156 526 146 511 b 115 465 127 482 120 471 b 99 446 110 459 104 453 z "},"m":{"ha":987,"x_min":0,"x_max":0,"o":"m 170 15 b 240 45 201 15 224 25 b 267 100 249 56 258 75 b 301 212 275 126 287 163 b 445 637 359 416 407 557 b 463 667 454 656 460 667 b 463 664 463 667 463 665 b 446 558 463 656 458 621 b 425 355 432 475 425 407 b 473 242 425 300 441 262 b 532 222 494 229 514 222 b 576 234 552 222 566 227 b 627 330 585 242 602 274 b 670 424 647 378 661 409 b 718 494 697 471 713 494 b 721 492 720 494 720 493 b 722 473 722 490 722 484 b 722 450 722 463 722 455 l 721 376 b 730 245 721 329 724 286 b 762 135 737 196 747 159 b 842 92 780 106 807 92 b 870 95 850 92 860 93 b 1021 275 913 101 964 161 b 1046 336 1038 307 1046 328 b 1038 345 1046 342 1044 345 b 975 272 1022 345 1001 320 b 904 164 951 227 927 191 b 852 123 881 137 863 123 b 814 187 838 123 825 145 b 801 356 808 208 804 264 b 793 479 799 412 797 452 b 774 528 790 505 783 521 b 730 538 765 535 750 538 b 673 510 709 538 690 529 b 602 393 656 490 633 452 b 569 338 583 357 572 338 b 568 340 568 338 568 339 l 569 345 b 584 475 573 371 578 414 b 593 618 591 532 593 580 b 586 700 593 652 591 680 b 509 764 574 743 549 764 b 465 748 491 764 476 759 b 421 675 454 736 439 713 b 302 351 382 597 342 489 b 220 108 264 225 237 144 b 190 69 206 82 197 69 b 183 91 188 69 186 77 b 169 193 174 132 170 167 b 168 239 168 211 168 226 b 173 403 168 267 170 321 b 178 473 174 434 176 457 b 180 519 179 488 180 503 b 179 557 180 535 180 548 b 162 602 177 578 172 593 b 100 617 151 612 130 617 b 29 578 65 617 42 604 b 0 347 9 528 0 450 b 3 256 0 304 1 274 b 15 196 5 238 9 218 b 128 21 43 98 80 39 b 170 15 142 17 157 15 z "},"n":{"ha":784,"x_min":0,"x_max":0,"o":"m 505 -111 b 607 -68 540 -111 574 -96 b 725 100 640 -37 680 19 b 798 225 739 125 762 166 b 859 342 838 292 859 332 b 842 345 859 345 853 345 b 810 330 830 345 820 340 b 772 274 800 319 787 300 b 624 53 738 216 689 142 b 526 -56 571 -20 538 -56 b 514 13 518 -56 514 -33 b 519 194 514 84 516 144 b 539 382 523 237 529 300 b 555 564 549 472 555 532 b 551 611 555 583 553 599 b 524 675 545 642 535 664 b 465 692 511 687 492 692 b 443 692 455 692 448 692 b 410 668 435 690 424 682 b 351 572 396 652 376 620 b 283 425 326 524 302 475 b 177 189 260 369 224 291 b 174 228 176 202 175 215 b 172 282 172 241 172 258 b 172 336 172 305 172 323 l 173 489 b 170 576 173 538 172 567 b 150 604 165 588 159 597 b 92 618 137 613 117 618 b 58 613 80 618 68 616 b 13 545 37 608 22 585 b 0 340 4 505 0 436 b 5 208 0 269 1 224 b 14 179 7 197 9 188 b 91 81 32 130 58 98 b 137 74 99 76 114 74 b 191 84 165 74 183 77 b 227 165 199 94 211 121 l 229 170 l 261 254 b 429 634 342 470 398 596 l 443 650 b 439 617 441 640 441 628 b 427 545 438 606 434 583 b 402 420 420 508 412 466 b 366 218 382 324 370 257 b 357 117 360 179 357 145 b 359 81 357 104 358 93 b 444 -96 361 -13 389 -72 b 505 -111 465 -106 485 -111 z "},"o":{"ha":441,"x_min":0,"x_max":0,"o":"m 103 -90 b 251 37 165 -90 214 -47 b 306 224 277 95 296 157 b 313 252 311 239 313 248 b 335 256 313 252 321 254 b 449 275 391 264 429 271 b 484 301 473 280 484 289 b 466 315 484 310 478 315 b 443 311 460 315 452 313 b 373 296 413 304 390 299 b 345 292 363 294 353 293 b 327 289 336 290 330 289 b 321 290 325 289 323 290 b 317 310 319 291 318 298 b 314 353 317 322 315 336 b 276 519 309 418 296 474 b 227 589 264 543 248 566 b 158 639 204 611 182 627 b 122 652 145 646 133 650 b 65 654 111 654 92 654 b 24 654 47 654 33 654 b -2 649 14 653 5 651 b -28 638 -9 647 -18 643 b -104 553 -71 615 -96 587 b -117 475 -113 518 -117 492 b -60 335 -117 419 -98 372 b -18 301 -45 319 -31 309 l 1 291 l -16 252 b -50 78 -38 199 -50 141 b -47 29 -50 56 -50 39 b -35 -7 -45 19 -41 7 b 35 -81 -18 -47 5 -72 b 103 -90 52 -87 74 -90 z m 111 -22 b 104 50 107 12 104 36 b 136 235 104 109 115 171 l 146 264 l 241 248 l 235 239 b 132 2 216 152 182 73 z m 234 283 b 204 287 228 283 218 284 b 168 296 183 291 171 294 b 163 307 164 298 163 302 b 165 319 163 311 163 315 b 166 330 165 323 166 326 b 101 361 166 351 144 361 b 69 358 87 361 77 360 b 46 347 62 356 54 352 b 24 332 39 342 31 336 b -43 435 -16 370 -38 404 b -46 486 -45 446 -46 463 b -45 525 -46 503 -45 516 b -40 548 -44 534 -43 541 b -28 572 -38 555 -34 563 b 61 630 -5 610 25 630 b 122 614 79 630 100 625 b 243 332 203 570 243 476 b 241 284 243 303 243 288 b 234 283 239 283 237 283 z "},"p":{"ha":602,"x_min":0,"x_max":0,"o":"m 100 -348 b 131 -344 115 -348 125 -347 b 173 -228 141 -338 155 -300 l 243 72 b 260 55 248 66 254 61 b 277 43 266 49 271 45 b 305 40 283 41 292 40 b 358 50 325 40 342 43 b 431 119 383 62 408 85 b 481 224 455 152 471 187 b 490 245 481 231 484 239 b 511 255 493 249 500 252 b 578 268 538 261 560 266 b 652 299 616 274 641 285 b 657 308 656 302 657 306 b 649 317 657 311 654 313 b 627 323 644 321 637 323 b 564 309 614 323 593 318 b 499 291 540 301 518 295 l 497 355 b 474 467 495 408 487 446 b 412 498 461 488 441 498 b 380 495 397 498 387 497 b 191 23 329 477 266 319 b 133 -186 169 -66 149 -136 b 150 199 144 -74 150 54 b 125 465 150 346 141 434 b 64 490 115 481 96 490 b 28 484 51 490 39 488 b 5 465 16 480 7 474 b 0 154 3 456 1 353 l 0 60 b 8 -196 0 -75 3 -160 b 56 -328 17 -259 33 -303 b 75 -344 63 -336 69 -342 b 100 -348 81 -347 90 -348 z m 277 194 l 277 195 b 299 268 277 199 284 224 b 347 389 315 314 330 355 b 389 458 363 424 377 446 l 407 475 l 414 458 b 423 345 420 440 423 402 b 415 279 423 311 420 290 b 378 260 412 274 399 267 b 314 229 350 250 329 239 b 281 201 296 216 286 207 b 277 194 279 196 277 194 z m 309 69 b 298 79 304 69 301 73 b 293 106 295 88 293 97 b 336 189 293 132 307 159 b 363 210 344 196 353 203 b 389 226 373 216 382 222 b 404 231 397 229 401 231 b 406 231 405 231 405 231 b 406 231 406 231 406 231 b 385 172 406 224 399 205 b 357 116 375 146 366 128 b 337 93 351 108 344 100 b 309 69 323 77 314 69 z "},"q":{"ha":749,"x_min":0,"x_max":0,"o":"m 487 -322 b 537 -294 507 -321 524 -311 b 576 -205 550 -277 563 -248 b 591 -119 585 -172 591 -143 b 498 -25 591 -58 559 -27 l 489 -25 b 471 -24 480 -25 474 -24 b 465 -16 467 -22 465 -20 b 503 27 465 -12 477 2 b 699 209 556 81 622 142 l 794 291 b 830 327 818 310 830 321 b 823 332 830 330 828 332 l 815 332 b 770 321 798 332 783 328 b 603 178 750 307 694 260 b 471 55 557 137 513 96 b 525 392 480 134 498 245 b 558 625 547 512 558 589 b 555 644 558 635 557 642 b 521 670 546 660 534 669 b 495 672 507 671 498 672 b 433 633 465 672 444 659 b 422 601 429 623 425 612 b 408 560 414 574 410 560 b 394 581 406 560 401 567 b 357 623 385 595 373 610 b 309 650 340 637 324 646 b 259 657 292 655 276 657 b 201 649 240 657 220 654 b 106 593 164 639 132 620 b 26 448 70 554 43 506 b 0 300 9 391 0 342 b 3 253 0 284 1 268 b 62 140 13 201 33 164 b 154 106 92 117 123 106 b 188 109 165 106 176 106 b 332 246 232 115 280 161 l 358 289 b 341 125 348 212 342 158 b 340 49 340 88 340 63 b 345 -39 340 14 341 -16 b 346 -54 346 -45 346 -50 b 341 -73 346 -61 345 -68 b 324 -95 338 -78 332 -85 b 300 -130 309 -115 300 -127 b 313 -138 300 -134 304 -136 b 336 -142 320 -140 328 -142 l 363 -139 l 382 -197 b 418 -286 396 -238 408 -267 b 454 -320 429 -304 441 -315 b 465 -322 456 -321 460 -321 b 477 -322 469 -322 473 -322 z m 203 186 b 197 215 199 186 197 196 b 199 256 197 226 198 239 b 273 574 207 380 231 486 l 287 602 l 312 578 b 351 530 328 564 340 548 b 372 467 366 505 372 484 b 363 432 372 458 370 446 b 299 303 342 381 321 338 b 244 228 286 281 267 256 b 203 186 223 201 210 186 z m 495 -249 b 481 -190 490 -249 486 -229 b 471 -92 474 -141 471 -109 b 473 -66 471 -79 471 -71 b 485 -56 475 -62 479 -59 b 498 -53 491 -54 496 -53 b 511 -59 503 -53 507 -55 b 532 -119 525 -73 532 -93 b 517 -201 532 -142 527 -170 b 495 -249 507 -233 500 -249 z "},"r":{"ha":571,"x_min":0,"x_max":0,"o":"m 184 -363 b 234 -351 202 -363 219 -359 b 297 -276 248 -344 269 -319 b 503 92 351 -193 420 -70 b 616 326 578 239 616 317 b 611 329 616 328 614 329 b 587 319 602 329 593 326 b 543 233 583 314 568 286 b 410 -24 485 119 441 34 b 250 -288 340 -157 286 -245 b 201 -323 229 -311 213 -323 b 174 -241 182 -323 174 -296 b 220 38 174 -214 189 -121 b 256 282 244 166 256 248 l 256 290 b 163 328 252 301 220 314 b 90 353 134 336 110 344 b 61 375 71 363 61 370 b 87 430 61 377 70 395 b 155 628 117 493 140 559 b 168 743 163 672 168 711 b 147 838 168 785 161 816 b 75 881 129 867 104 881 b 45 877 66 881 56 880 b -81 789 1 865 -41 836 b -155 653 -121 743 -146 697 b -169 557 -164 609 -169 577 b -130 398 -169 506 -155 453 b -41 307 -107 354 -77 323 b 92 277 -5 291 39 281 b 134 271 117 275 132 273 b 138 265 136 269 138 267 b 127 231 138 264 134 253 b 37 -174 67 45 37 -90 b 54 -264 37 -212 43 -242 b 89 -319 62 -284 75 -302 b 180 -363 115 -349 145 -363 z m 26 426 l 14 454 b -12 536 -2 490 -11 518 b -13 571 -12 555 -13 566 b 3 674 -13 600 -7 635 b 54 809 26 762 44 807 b 72 812 65 811 71 812 b 102 718 92 812 102 781 b 65 519 102 665 90 600 b 51 478 60 505 56 492 b 37 447 45 464 41 454 b 26 426 34 440 31 433 z "},"s":{"ha":361,"x_min":0,"x_max":0,"o":"m 63 -346 b 125 -332 85 -345 106 -340 b 184 -285 143 -323 163 -307 b 231 -220 204 -263 220 -241 b 254 -151 239 -199 248 -176 b 264 -85 260 -125 264 -103 b 242 26 264 -66 257 -29 b 212 109 235 52 224 79 b 277 186 229 132 251 158 b 398 308 339 253 380 294 b 414 323 409 315 414 321 b 404 329 414 328 410 329 b 386 326 397 329 392 328 b 321 282 371 319 349 305 b 241 208 293 259 267 234 b 193 161 212 177 196 161 b 170 229 191 167 182 190 b 144 383 153 285 144 336 b 178 526 144 434 155 481 b 207 561 189 545 198 557 b 245 595 220 567 233 578 b 252 612 250 602 252 608 b 235 634 252 621 247 629 b 194 642 224 639 210 642 l 190 642 b 52 555 136 638 90 609 b -10 355 10 498 -10 431 b 60 115 -10 290 13 210 l 100 31 b 0 -162 50 -50 16 -114 b -23 -267 -16 -207 -23 -242 b -12 -318 -23 -290 -19 -308 b 59 -346 1 -337 25 -346 z m 54 -313 l 44 -295 b 37 -248 39 -284 37 -269 b 53 -155 37 -218 42 -186 b 101 -50 65 -122 81 -87 b 123 -20 112 -30 119 -20 b 138 -45 129 -20 134 -28 b 147 -126 144 -66 147 -93 b 87 -285 147 -188 127 -241 b 54 -313 80 -292 69 -302 z "},"t":{"ha":429,"x_min":0,"x_max":0,"o":"m 207 -194 b 252 -186 224 -194 239 -191 b 399 82 292 -176 340 -87 b 451 236 427 158 444 210 b 473 307 462 273 470 296 b 479 332 477 317 479 326 b 471 342 479 338 477 342 b 463 340 469 342 466 341 b 442 315 458 338 451 329 b 415 263 433 300 424 283 b 393 208 406 243 398 224 b 319 17 373 146 349 83 b 245 -119 290 -49 264 -94 l 229 -140 l 220 -110 b 182 134 207 -62 194 20 b 154 819 163 319 154 548 b 157 920 154 882 155 915 b 351 945 163 922 227 930 l 509 964 b 636 984 579 971 621 978 b 654 1000 648 989 654 995 b 627 1019 654 1007 646 1013 b 602 1025 618 1023 610 1025 b 549 1015 593 1025 576 1021 b 371 989 511 1007 452 998 l 177 966 l 161 964 b 154 1052 156 964 154 993 b 132 1265 154 1165 146 1236 b 83 1286 120 1280 104 1286 b 31 1263 60 1286 43 1279 b -5 1050 10 1233 -1 1162 b -13 937 -7 979 -9 942 b -189 911 -29 931 -87 922 b -290 903 -230 907 -264 904 b -361 897 -327 901 -351 899 b -376 888 -371 895 -376 892 b -374 885 -376 888 -376 886 b -326 869 -367 876 -351 870 b -275 867 -302 868 -285 867 b -157 876 -241 867 -201 870 l -9 891 b -7 406 -9 605 -8 444 b 1 288 -5 359 -3 319 b 48 7 15 172 31 78 b 99 -118 61 -41 78 -83 b 162 -186 119 -153 140 -176 b 207 -194 175 -191 190 -194 z "},"u":{"ha":832,"x_min":0,"x_max":0,"o":"m 570 -89 b 643 -75 595 -89 620 -84 b 696 -33 661 -67 679 -54 b 760 69 713 -13 734 21 b 880 310 787 120 827 200 b 890 334 887 325 890 333 b 876 336 890 336 886 336 b 855 329 868 336 861 334 b 833 296 849 323 842 313 b 797 221 824 279 812 254 b 615 -48 727 71 667 -19 b 596 -54 608 -52 602 -54 b 568 -18 587 -54 577 -42 b 559 46 564 -5 560 16 b 559 117 559 63 559 86 b 571 310 559 183 563 248 b 592 461 576 347 583 398 b 604 570 600 515 604 551 b 604 580 604 574 604 578 b 544 621 597 608 578 621 b 508 614 532 621 520 618 b 476 581 495 608 485 597 b 448 499 467 564 458 536 b 363 300 432 449 404 382 b 256 116 321 217 286 156 b 228 82 245 102 236 91 b 214 68 220 73 215 68 b 191 276 204 68 196 138 b 181 433 188 345 184 397 b 165 508 178 469 172 494 b 133 535 157 522 146 531 b 87 541 119 539 104 541 b 43 535 71 541 56 539 b 11 505 28 530 18 521 b 3 483 7 499 5 492 b 1 438 1 474 1 459 b 0 342 0 417 0 385 b 3 220 1 286 1 245 b 13 159 5 196 8 176 b 169 1 37 57 90 5 l 182 1 b 273 37 224 1 254 13 b 357 197 288 60 316 113 b 406 305 370 223 386 259 b 408 121 406 200 406 139 b 417 68 410 102 412 85 b 465 -35 429 23 445 -11 b 544 -85 484 -58 510 -75 b 570 -89 551 -87 559 -89 z "},"v":{"ha":652,"x_min":0,"x_max":0,"o":"m 220 -107 b 259 -94 237 -107 251 -102 b 309 2 268 -84 284 -52 b 406 241 334 59 367 139 b 425 289 416 267 422 282 b 439 302 429 298 433 302 l 447 301 b 530 292 469 297 496 294 b 612 288 564 289 591 288 b 702 312 672 288 702 296 b 678 323 702 317 694 321 b 555 331 659 326 618 328 l 414 335 b 395 331 407 335 401 334 b 380 307 391 329 385 321 b 346 207 373 290 361 256 b 272 20 321 132 296 69 b 252 -12 262 -1 255 -12 b 186 238 249 -12 227 71 b 115 467 160 343 136 420 b 41 548 93 513 68 541 b 0 553 30 551 16 553 b -52 547 -21 553 -39 551 b -73 533 -66 543 -73 538 b -50 450 -73 527 -65 499 b 5 282 -34 400 -16 344 b 62 118 26 220 45 165 b 191 -102 111 -15 153 -88 b 220 -107 200 -105 210 -107 z "},"w":{"ha":762,"x_min":0,"x_max":0,"o":"m 421 -80 b 501 -52 457 -80 484 -71 b 523 -5 509 -40 517 -24 b 557 155 528 10 538 64 b 584 300 575 245 584 294 b 597 321 584 314 589 321 b 618 313 603 321 610 319 b 673 299 631 309 649 304 b 732 290 696 294 716 292 b 766 288 747 288 759 288 b 785 290 774 288 781 288 b 796 296 789 292 793 294 b 800 301 799 298 800 299 b 732 321 800 312 777 319 b 648 339 692 323 665 329 b 614 440 625 353 614 387 b 624 589 614 463 617 513 b 627 638 626 612 627 628 b 623 659 627 648 626 655 b 611 665 621 661 616 663 b 595 666 606 665 600 666 b 576 662 587 666 580 665 b 561 595 571 659 566 637 b 530 376 553 524 543 451 b 464 114 510 273 488 184 b 429 31 445 58 433 31 b 406 95 425 35 416 56 b 376 230 396 134 386 178 b 353 335 366 278 359 313 b 335 374 347 356 341 370 b 305 381 328 379 318 381 b 277 369 292 381 283 377 b 255 319 270 361 262 344 b 235 262 250 304 243 286 b 206 195 225 238 216 216 b 184 147 196 174 189 157 b 173 129 178 137 175 131 b 169 127 171 127 170 127 b 167 130 168 127 168 127 b 138 359 154 165 144 241 b 127 483 135 434 132 475 b 102 500 122 491 114 496 b 71 505 90 503 80 505 b 54 503 66 505 60 505 b 12 456 35 499 20 484 b 0 321 4 429 0 385 b 18 170 0 258 6 208 b 79 73 29 133 50 101 l 111 42 b 184 45 153 42 178 43 b 203 55 191 46 197 50 b 256 156 216 68 234 102 b 258 159 256 158 257 159 b 264 123 260 159 262 147 b 378 -74 276 13 314 -53 b 421 -80 393 -78 408 -80 z "},"x":{"ha":583,"x_min":0,"x_max":0,"o":"m 35 -21 b 43 -16 40 -20 43 -19 b 74 65 43 -12 53 14 b 110 143 96 117 108 143 b 136 123 112 143 121 137 b 327 22 206 56 270 22 b 435 57 363 22 399 33 b 534 156 465 79 498 112 b 606 267 570 200 594 237 b 630 314 614 286 621 302 b 641 331 637 321 641 328 b 628 338 641 336 637 338 b 507 202 612 338 572 292 b 363 63 450 130 403 83 l 338 52 b 298 87 319 67 305 79 b 280 111 291 96 285 104 b 217 250 266 136 245 182 b 198 306 204 282 198 300 b 254 432 198 317 216 359 b 311 553 292 509 311 549 b 294 565 311 561 305 565 b 279 562 290 565 285 564 b 164 372 269 559 231 496 l 136 425 b 35 526 104 484 71 517 b -17 532 16 530 -1 532 b -98 507 -50 532 -77 524 l -114 493 l -87 437 b 26 255 -60 381 -22 320 l 54 217 b 68 193 63 204 68 196 b 59 166 68 186 65 177 b 19 77 47 143 34 113 b -9 7 1 33 -9 9 b 3 -9 -9 3 -5 -3 b 32 -21 9 -17 20 -21 z "},"y":{"ha":720,"x_min":0,"x_max":0,"o":"m 248 -515 b 310 -508 273 -515 294 -513 b 495 -293 378 -480 440 -409 b 602 110 549 -177 585 -43 l 608 180 b 772 325 718 263 772 311 b 762 329 772 328 769 329 b 721 310 753 329 740 323 b 631 244 684 285 653 263 l 612 229 l 612 288 b 590 435 612 364 604 413 b 545 462 577 450 562 459 b 508 465 528 464 515 465 b 450 454 488 465 469 461 b 429 441 439 449 431 445 b 424 422 425 438 424 431 b 402 377 424 408 416 393 b 370 338 396 370 385 356 b 320 278 354 319 337 299 b 180 134 253 197 206 149 b 172 132 177 132 174 132 b 161 157 169 132 165 140 b 157 208 158 172 157 189 b 178 368 157 251 164 304 b 195 460 190 414 195 445 b 123 510 195 493 172 510 b 100 509 116 510 109 509 b 56 492 80 508 66 503 b 26 424 47 480 37 458 b 0 271 9 367 0 316 b 50 120 0 209 16 159 b 92 89 64 104 79 94 b 144 80 106 83 123 80 b 237 114 179 80 210 92 b 355 258 263 136 302 184 b 430 351 401 320 426 351 b 448 239 434 345 440 308 b 458 102 452 203 455 157 l 407 57 b 292 -53 368 23 330 -14 b 209 -153 255 -93 227 -126 b 156 -245 191 -180 173 -210 b 122 -330 139 -279 128 -308 b 116 -398 118 -348 116 -370 b 123 -456 116 -424 119 -444 b 149 -487 128 -467 137 -477 b 187 -510 160 -497 173 -505 b 240 -515 200 -513 218 -515 z m 243 -487 l 238 -487 b 213 -478 232 -487 224 -484 b 180 -448 197 -471 186 -460 b 168 -391 172 -434 168 -416 b 422 24 168 -264 253 -126 l 455 52 l 454 12 b 421 -187 450 -52 439 -118 b 355 -361 403 -256 380 -314 b 309 -429 340 -385 326 -408 b 266 -473 292 -450 277 -465 b 243 -487 254 -482 247 -486 z "},"z":{"ha":345,"x_min":0,"x_max":0,"o":"m -174 -472 b -108 -462 -154 -472 -132 -469 b 25 -395 -62 -449 -18 -427 b 197 -180 94 -341 151 -269 b 281 105 243 -91 271 4 b 284 154 283 123 284 139 b 273 231 284 185 280 211 l 273 233 b 306 259 273 239 283 248 b 365 293 328 271 348 281 b 390 315 382 304 390 312 b 380 321 390 319 387 321 b 304 296 362 321 336 313 l 256 271 l 235 290 b 148 321 210 311 180 321 l 127 321 b 193 435 151 356 173 394 b 256 604 235 519 256 576 b 246 632 256 616 253 625 b 199 650 236 644 220 650 b 136 638 182 650 161 646 b 41 613 107 629 76 621 b -28 601 7 605 -17 601 b -64 594 -41 601 -52 599 b -77 587 -73 591 -77 589 b -34 575 -77 579 -62 575 b 67 587 -9 575 24 578 b 110 593 90 591 104 593 b 115 592 113 593 114 593 b 88 547 115 588 106 573 b 32 446 71 519 52 486 b -18 332 5 395 -11 357 b -19 324 -18 329 -19 326 b -13 308 -19 319 -17 314 b 47 283 -2 292 18 283 b 96 289 62 283 77 286 b 149 298 126 295 144 298 b 173 250 165 296 173 280 l 173 221 l 121 186 b -182 -81 -18 96 -119 6 b -259 -223 -214 -125 -239 -172 b -288 -361 -279 -274 -288 -320 b -274 -429 -288 -390 -283 -413 b -228 -463 -265 -444 -250 -456 b -174 -472 -212 -469 -193 -472 z m -191 -427 l -203 -411 b -224 -332 -217 -391 -224 -365 b -138 -93 -224 -260 -196 -180 b -43 13 -118 -64 -86 -28 b 82 119 -1 54 41 89 l 99 132 b 158 172 135 157 155 171 b 165 175 162 174 164 175 b 168 174 167 175 168 174 l 166 165 l 165 160 b 101 -34 157 124 136 60 b -88 -348 55 -155 -8 -260 b -162 -411 -120 -380 -144 -401 z "},"{":{"ha":345,"x_min":0,"x_max":0,"o":"m 218 -208 b 309 -151 248 -208 278 -189 b 326 -122 320 -137 326 -127 b 316 -115 326 -117 322 -115 b 291 -131 311 -115 302 -121 b 246 -152 274 -145 259 -152 b 214 -128 233 -152 222 -144 b 184 5 199 -98 189 -53 b 178 172 180 62 178 118 b 174 262 177 211 176 241 b 120 433 168 330 149 386 b 103 457 110 449 104 457 b 101 459 102 457 101 458 b 112 467 101 461 104 464 b 203 561 146 481 176 512 b 235 688 220 593 231 635 b 243 903 239 741 242 813 b 252 1115 245 1010 248 1080 b 283 1213 259 1171 269 1203 b 298 1220 289 1218 294 1220 b 318 1214 305 1220 311 1218 b 328 1211 322 1212 326 1211 b 331 1218 330 1211 331 1213 b 315 1242 331 1230 326 1237 b 288 1248 304 1246 295 1248 b 186 1184 251 1248 217 1227 b 132 1048 165 1154 146 1109 b 116 882 125 1008 119 953 b 92 646 113 802 104 723 b 20 488 80 569 56 516 b 14 477 16 485 14 481 b 29 456 14 471 19 465 b 77 376 58 433 75 406 b 79 306 79 345 79 322 b 73 201 79 274 77 239 b 66 68 68 146 66 102 b 127 -152 66 -23 86 -96 b 188 -204 151 -184 171 -202 b 218 -208 205 -206 215 -208 z "},"|":{"ha":216,"x_min":0,"x_max":0,"o":"m 132 -32 b 159 -28 138 -32 147 -31 b 186 -1 171 -26 180 -16 b 202 913 197 483 202 787 b 199 1057 202 984 201 1032 b 190 1101 198 1073 195 1087 b 119 1143 180 1129 156 1143 b 94 1142 116 1143 108 1143 b 45 1120 79 1141 64 1134 b 14 952 24 1099 14 1043 b 23 768 14 902 17 840 b 65 405 36 621 50 499 b 83 151 77 310 83 226 l 83 136 b 90 24 84 91 86 54 b 110 -28 92 -5 99 -22 b 132 -32 116 -31 123 -32 z "},"}":{"ha":345,"x_min":0,"x_max":0,"o":"m 126 -208 b 157 -204 130 -208 139 -206 b 218 -152 174 -202 195 -184 b 279 68 258 -96 279 -23 b 271 201 279 102 276 146 b 265 306 267 239 265 274 b 268 376 265 322 266 345 b 315 456 270 406 286 433 b 331 477 326 465 331 471 b 324 488 331 481 329 485 b 252 646 288 516 264 569 b 229 882 240 723 232 802 b 212 1048 225 953 220 1008 b 158 1184 198 1109 180 1154 b 57 1248 127 1227 94 1248 b 30 1242 50 1248 40 1246 b 14 1218 19 1237 14 1230 b 16 1211 14 1213 14 1211 b 26 1214 19 1211 22 1212 b 46 1220 33 1218 39 1220 b 62 1213 51 1220 56 1218 b 93 1115 75 1203 85 1171 b 102 903 97 1080 100 1010 b 110 688 102 813 105 741 b 141 561 114 635 124 593 b 233 467 168 512 199 481 b 243 459 240 464 243 461 b 242 457 243 458 243 457 b 224 433 241 457 235 449 b 170 262 195 386 177 330 b 167 172 168 241 168 211 b 161 5 167 118 165 62 b 130 -128 156 -53 146 -98 b 98 -152 122 -144 111 -152 b 54 -131 85 -152 71 -145 b 28 -115 42 -121 33 -115 b 19 -122 22 -115 19 -117 b 35 -151 19 -127 24 -137 b 126 -208 66 -189 97 -208 z "},"~":{"ha":489,"x_min":0,"x_max":0,"o":"m 353 217 b 422 236 382 217 406 223 b 468 300 448 255 463 277 b 475 359 473 324 475 343 b 473 391 475 370 475 381 b 456 431 469 416 463 429 b 430 398 448 431 439 420 b 412 363 425 385 419 374 b 368 340 403 348 388 340 b 253 376 345 340 306 353 b 125 416 197 403 155 416 b 74 404 106 416 90 412 b 15 307 49 390 29 358 b 14 297 14 304 14 300 b 17 283 14 292 15 288 b 32 273 20 277 25 273 b 56 292 39 273 47 279 b 92 327 68 315 81 327 b 133 304 102 326 116 319 b 306 222 176 267 234 239 b 353 217 323 218 339 217 z "},"":{"ha":168,"x_min":0,"x_max":0,"o":"m 82 824 b 68 804 79 824 74 817 b 25 391 54 770 39 632 b 14 108 18 257 14 163 b 16 41 14 79 14 56 b 86 -61 28 -27 52 -61 b 153 37 119 -61 142 -28 b 155 87 154 52 155 68 b 144 235 155 128 151 178 b 113 659 132 323 122 464 b 106 747 113 688 110 717 b 82 824 99 798 91 824 z m 80 1031 b 60 1027 74 1031 67 1030 b 25 965 37 1017 25 996 b 31 931 25 956 27 945 b 50 903 35 918 41 909 b 77 895 58 898 67 895 b 100 899 82 895 90 897 b 130 926 111 901 121 910 b 136 954 134 933 136 943 b 130 988 136 964 134 975 b 80 1031 118 1017 101 1031 z "},"":{"ha":404,"x_min":0,"x_max":0,"o":"m 233 -72 b 273 56 260 -72 273 -29 b 268 152 273 92 271 124 b 340 191 296 158 320 171 b 377 237 355 208 368 222 b 391 267 386 251 391 261 l 391 269 b 326 294 380 286 359 294 b 296 289 312 294 302 292 b 271 265 290 286 281 278 b 216 253 250 257 231 253 b 159 338 178 253 159 281 b 174 431 159 366 164 396 b 240 579 191 490 214 539 b 311 639 267 619 290 639 b 324 637 316 639 320 638 b 368 612 343 620 358 612 b 380 625 376 612 380 616 b 368 659 380 632 376 644 b 262 712 347 694 311 712 l 257 712 b 259 772 258 723 259 743 b 219 899 259 857 245 899 b 194 881 211 899 203 893 b 166 765 177 857 168 819 b 165 748 166 759 166 753 l 165 685 b 22 463 92 644 44 569 b 14 380 16 433 14 406 b 49 249 14 328 26 283 b 179 154 83 198 126 166 b 180 79 179 138 180 114 b 202 -45 180 17 188 -24 b 233 -72 215 -62 225 -72 z "},"":{"ha":546,"x_min":0,"x_max":0,"o":"m 321 782 b 385 800 351 786 372 792 b 420 832 409 813 420 824 b 321 867 420 852 387 864 b 342 987 324 913 331 953 b 412 1078 363 1047 387 1078 b 477 851 452 1078 474 1002 l 477 847 b 446 677 477 787 467 730 b 436 638 439 660 436 647 b 446 623 436 628 439 623 b 469 641 453 623 461 629 b 526 802 503 700 522 753 b 532 905 530 850 532 885 b 515 1038 532 954 527 999 b 431 1168 488 1120 460 1164 b 377 1175 403 1173 385 1175 b 252 1115 334 1175 293 1155 b 157 956 204 1068 173 1015 b 138 862 148 921 142 889 b 39 842 90 857 57 850 b 14 811 22 833 14 823 b 65 773 14 795 31 782 b 108 770 75 771 89 770 l 136 770 b 160 645 139 730 147 688 b 211 529 177 595 194 556 b 256 466 228 501 243 480 b 281 425 269 452 277 438 b 283 405 283 419 283 412 b 174 121 283 358 247 263 b 130 27 157 85 142 54 b 111 -30 117 0 111 -19 b 170 -63 113 -52 132 -63 l 174 -63 b 306 -50 214 -62 258 -58 b 406 -38 353 -42 387 -38 b 431 -41 416 -38 425 -39 b 460 -46 441 -44 451 -46 b 481 -42 467 -46 475 -45 b 500 -19 494 -37 500 -29 b 463 13 500 -7 488 4 b 418 19 450 16 435 18 b 372 19 399 19 385 19 l 290 18 b 245 24 260 18 245 20 b 310 227 251 51 273 118 b 374 429 349 339 370 406 l 374 448 b 353 575 374 486 368 528 b 330 684 345 608 337 644 b 321 782 326 718 323 751 z "},"":{"ha":452,"x_min":0,"x_max":0,"o":"m 88 256 b 116 267 99 256 108 260 b 171 342 132 281 151 306 b 193 381 183 363 191 376 l 193 382 b 256 391 227 385 248 387 b 266 392 260 392 263 392 b 305 349 267 392 280 378 b 327 323 313 339 321 331 b 336 312 333 316 336 313 b 359 307 342 309 350 307 b 384 326 376 307 384 313 l 384 329 b 340 441 375 376 361 413 b 334 454 336 447 334 452 b 339 465 334 455 335 458 b 370 566 359 496 370 530 l 370 572 b 403 658 370 596 380 625 b 439 755 427 692 439 725 b 420 785 439 775 433 785 b 399 779 414 785 408 783 b 337 713 387 770 366 749 b 335 711 336 712 336 711 b 322 699 328 703 324 699 b 315 701 320 699 317 699 b 296 712 312 703 306 707 b 300 720 296 714 298 717 b 304 726 302 722 304 724 b 304 730 304 728 304 730 b 298 743 304 734 302 738 b 245 762 286 755 269 762 b 163 736 215 762 188 753 b 153 729 158 731 155 729 l 140 743 b 81 791 120 764 100 780 b 33 807 60 802 45 807 b 14 789 20 807 14 801 b 46 719 14 772 24 749 b 96 656 58 703 74 682 l 96 656 b 69 547 78 615 69 579 b 85 466 69 516 75 489 b 102 435 94 448 99 437 l 102 435 b 63 300 83 393 71 347 b 60 271 61 283 60 274 l 60 270 b 88 256 63 260 73 256 z m 227 455 b 205 474 218 455 212 462 b 185 577 192 499 185 534 b 194 650 185 601 188 625 b 227 709 204 690 215 709 b 232 708 229 709 231 709 b 264 657 246 703 257 686 b 277 574 273 629 277 602 b 237 459 277 522 264 483 b 227 455 233 456 230 455 z "},"":{"ha":742,"x_min":0,"x_max":0,"o":"m 576 -12 b 682 11 627 -8 663 -1 b 717 43 705 24 717 35 b 578 79 717 67 671 79 l 578 121 b 703 145 640 125 682 133 b 738 177 726 158 738 169 b 597 214 738 201 691 214 b 634 245 610 225 622 235 b 701 289 673 274 696 289 b 712 301 707 289 710 293 l 713 307 b 688 318 713 314 705 318 b 666 314 680 318 672 317 b 644 296 660 311 652 305 b 621 276 636 290 629 283 b 598 258 612 269 605 263 b 578 243 591 254 585 248 l 580 690 b 579 836 580 773 580 821 b 575 880 578 859 577 874 b 540 894 572 889 560 894 b 511 888 527 894 517 892 b 494 865 505 884 499 877 b 473 793 488 850 481 825 b 457 701 466 760 460 729 b 445 640 455 682 451 661 b 410 538 439 617 427 583 b 321 310 374 437 345 361 b 252 194 298 258 275 220 l 233 170 l 223 190 b 172 409 203 239 186 312 b 159 594 169 430 165 492 b 148 782 155 684 151 746 b 136 845 144 817 140 838 b 107 867 128 857 119 865 b 79 870 96 869 86 870 b 50 865 69 870 60 869 b 17 838 33 860 22 851 b 0 569 5 804 0 715 b 6 428 0 509 2 463 b 32 304 9 391 18 349 b 215 96 71 165 132 96 b 290 129 248 96 273 106 b 366 306 313 162 338 221 b 443 551 413 458 439 539 b 452 206 448 551 452 436 b 357 186 406 201 374 195 b 332 156 340 178 332 168 b 383 118 332 140 349 127 b 425 115 393 116 407 115 l 446 115 l 414 71 b 414 70 414 71 414 70 b 336 52 377 65 351 59 b 311 22 319 43 311 33 b 362 -16 311 5 328 -7 l 363 -16 b 356 -33 361 -22 358 -27 b 319 -130 338 -70 326 -102 b 312 -198 315 -155 312 -178 b 366 -307 312 -251 330 -287 b 403 -314 376 -311 388 -314 b 468 -299 428 -314 450 -309 b 570 -115 524 -269 558 -207 b 576 -12 572 -91 574 -57 z m 452 -18 l 452 -81 b 444 -194 451 -132 448 -169 b 420 -252 439 -219 431 -238 b 402 -269 413 -263 407 -269 b 382 -252 396 -269 390 -263 b 368 -222 375 -241 370 -231 b 366 -194 366 -214 366 -204 b 367 -165 366 -185 366 -176 b 410 -19 369 -121 384 -72 l 431 -19 b 452 -18 438 -19 445 -19 z "},"":{"ha":340,"x_min":0,"x_max":0,"o":"m 137 -47 b 234 -17 169 -47 201 -37 b 315 132 283 14 311 64 l 315 136 b 304 197 315 157 311 177 b 264 273 297 216 283 241 l 202 376 l 212 379 b 299 437 262 397 292 416 b 311 490 307 458 311 475 b 239 677 311 528 286 591 b 142 956 175 793 142 885 b 146 1000 142 970 144 985 b 189 1119 161 1078 176 1118 b 212 1120 203 1120 211 1120 b 276 1055 237 1120 258 1099 b 294 952 288 1025 294 991 b 290 892 294 933 292 913 b 286 868 288 880 286 871 b 294 861 286 863 289 861 b 307 870 300 861 304 864 b 326 991 319 909 326 949 b 297 1099 326 1036 317 1072 b 193 1160 269 1140 234 1160 b 52 1042 134 1160 87 1121 b 23 897 33 989 23 941 l 24 876 b 85 687 29 802 50 739 b 90 677 88 682 90 679 b 84 667 90 676 88 673 b 37 514 53 626 37 574 l 37 509 b 76 356 41 454 54 404 b 145 226 98 309 121 265 b 207 86 186 159 207 113 b 203 64 207 79 205 71 b 125 -8 186 16 160 -8 b 71 37 106 -8 88 7 b 61 83 64 51 61 66 b 65 120 61 100 62 112 b 69 141 68 129 69 136 b 55 159 69 153 64 159 b 33 147 48 159 41 155 b 14 93 22 136 16 118 b 64 -31 14 20 31 -21 b 137 -47 96 -42 121 -47 z m 178 417 b 140 510 160 453 148 484 b 127 567 133 536 128 555 b 126 594 126 579 126 588 b 127 609 126 600 126 605 b 130 620 128 616 129 620 b 143 600 130 619 135 613 b 168 551 151 587 159 571 b 184 498 176 530 182 513 b 187 466 186 483 187 472 b 178 417 187 449 184 433 z "},"":{"ha":332,"x_min":0,"x_max":0,"o":"m 73 985 b 127 1031 96 985 114 1001 b 134 1068 132 1045 134 1057 b 126 1097 134 1080 131 1089 b 96 1126 117 1114 107 1123 b 70 1129 84 1128 75 1129 b 40 1121 59 1129 49 1126 b 20 1091 31 1115 24 1105 b 14 1055 16 1077 14 1065 b 51 990 14 1023 26 1002 b 73 985 58 987 66 985 z m 258 985 b 311 1031 280 985 298 1001 b 318 1068 316 1045 318 1057 b 311 1097 318 1080 315 1089 b 280 1126 302 1114 292 1123 b 254 1129 269 1128 260 1129 b 224 1121 243 1129 233 1126 b 204 1091 215 1115 208 1105 b 198 1055 200 1077 198 1065 b 235 990 198 1023 210 1002 b 258 985 243 987 250 985 z "},"":{"ha":357,"x_min":0,"x_max":0,"o":"m 177 694 b 235 729 201 694 220 706 b 240 741 239 734 240 738 l 240 741 b 215 751 236 748 228 751 b 203 749 210 751 205 751 b 194 740 201 748 197 745 b 162 766 176 746 165 755 b 157 796 159 779 157 788 b 162 827 157 806 159 817 b 184 871 168 846 175 861 b 208 886 193 881 200 886 b 214 885 210 886 212 886 b 231 875 222 878 227 875 b 236 880 235 875 236 877 b 231 893 236 883 235 887 b 205 914 223 907 214 913 b 190 914 195 914 190 914 b 136 891 172 914 154 907 b 97 817 117 876 104 851 b 94 784 95 805 94 794 b 110 730 94 762 99 743 b 153 697 125 710 140 699 b 177 694 165 695 174 694 z m 163 606 b 286 665 208 606 250 625 b 337 767 316 703 333 736 b 343 833 341 798 343 819 b 329 916 343 863 338 890 b 264 989 312 955 290 979 b 199 1003 237 998 216 1003 b 40 882 130 1003 76 963 b 14 760 22 836 14 795 b 32 684 14 731 20 706 b 114 610 58 637 86 612 b 163 606 142 607 158 606 z m 154 624 b 48 785 100 624 65 677 b 60 794 53 789 56 792 b 68 801 63 796 66 799 b 73 809 70 803 71 806 b 77 823 74 812 75 817 b 133 930 88 867 106 903 b 182 969 155 956 171 968 b 199 969 193 969 199 969 b 262 919 220 969 241 952 b 286 821 278 888 286 856 b 277 752 286 799 283 776 b 178 629 261 690 228 649 b 154 624 170 625 162 624 z "},"":{"ha":420,"x_min":0,"x_max":0,"o":"m 363 271 b 385 276 372 271 378 273 b 397 290 392 281 397 286 b 380 314 397 295 391 303 b 339 350 368 325 354 337 b 288 399 304 378 288 395 b 299 412 288 400 292 404 b 399 542 345 456 378 499 b 407 572 404 553 407 564 b 401 589 407 579 405 585 b 376 605 393 600 385 604 b 363 605 368 605 363 605 b 326 596 349 605 336 602 b 295 570 321 593 311 585 b 243 517 279 555 261 537 b 197 459 224 496 209 477 b 180 416 186 441 180 427 b 208 376 180 405 189 392 b 258 336 222 363 239 351 b 316 292 279 322 298 307 b 349 272 330 279 341 273 b 363 271 356 271 361 271 z m 224 249 b 258 257 239 249 250 252 b 267 270 264 261 267 265 b 265 277 267 273 266 275 b 231 309 262 281 250 292 b 168 364 210 326 189 344 b 126 413 146 384 132 400 l 176 467 b 247 555 200 493 224 522 b 285 627 269 588 282 612 b 290 656 288 643 290 652 b 253 699 290 677 277 691 b 232 702 246 701 239 702 b 142 657 203 702 174 687 b 106 614 138 653 126 639 b 44 529 85 589 64 561 b 14 444 24 496 14 468 b 104 340 16 427 46 391 b 150 300 125 320 141 307 l 151 298 b 189 264 171 281 184 271 b 224 249 199 254 211 249 z "},"":{"ha":357,"x_min":0,"x_max":0,"o":"m 163 606 b 286 665 208 606 250 625 b 337 766 316 703 333 736 b 343 832 341 797 343 819 b 328 916 343 863 338 890 b 264 989 311 955 290 979 b 199 1003 237 998 216 1003 b 40 882 129 1003 76 963 b 14 760 22 836 14 795 b 32 684 14 731 20 706 b 114 610 58 637 86 612 b 163 606 142 607 158 606 z m 154 624 b 102 646 136 624 119 631 b 48 785 77 667 60 713 b 60 794 53 789 56 792 b 68 801 63 796 66 799 b 73 809 70 803 71 806 b 77 823 74 812 75 817 b 132 930 87 867 106 903 b 182 969 155 956 171 968 b 199 969 193 969 199 969 b 261 919 220 969 240 952 b 286 820 277 888 286 855 b 277 752 286 798 283 776 b 178 629 260 690 228 649 b 154 624 170 625 162 624 z m 199 701 b 205 704 203 701 205 702 b 191 724 205 707 200 714 b 168 743 180 734 172 740 l 168 744 b 168 745 168 745 168 745 b 224 773 195 745 213 754 b 239 835 234 795 239 815 b 223 895 239 863 234 882 b 201 908 215 903 208 908 b 188 903 197 908 193 906 b 162 827 180 895 172 869 l 159 814 l 160 833 l 161 862 b 159 905 161 888 160 903 b 144 908 157 907 152 908 b 129 906 138 908 133 907 l 128 906 l 128 905 l 127 899 b 125 884 125 895 125 890 b 123 820 123 874 123 853 b 122 763 122 812 122 793 l 122 732 b 125 705 122 714 123 705 l 126 705 b 140 704 128 704 133 704 b 153 705 147 704 151 704 b 159 739 157 709 159 720 b 181 715 163 739 170 731 b 193 702 187 707 191 703 b 199 701 195 701 197 701 z m 159 753 l 159 774 b 164 805 159 777 161 787 b 186 888 174 854 182 882 b 195 897 191 894 194 897 b 200 875 199 897 200 889 b 188 803 200 857 196 833 b 178 775 184 791 181 783 b 159 753 174 768 168 761 z "},"":{"ha":433,"x_min":0,"x_max":0,"o":"m 133 849 b 241 853 174 850 210 851 b 385 879 313 857 361 865 b 420 911 408 892 420 903 b 277 947 420 935 372 947 b 178 944 248 947 216 946 b 38 920 108 939 61 930 b 13 890 21 911 13 901 b 64 852 13 873 30 861 b 107 848 74 850 88 848 z "},"":{"ha":321,"x_min":0,"x_max":0,"o":"m 171 844 b 307 988 246 844 291 892 l 307 1003 b 263 1109 307 1048 292 1083 b 161 1153 230 1138 196 1153 b 154 1150 158 1153 156 1152 b 136 1142 151 1147 144 1144 b 20 1034 78 1126 39 1090 b 14 991 16 1019 14 1004 b 37 917 14 963 21 939 b 171 844 71 868 116 844 z m 193 904 b 177 958 184 904 179 922 l 176 980 b 213 1080 176 1047 189 1080 b 228 1074 218 1080 222 1078 b 248 1035 241 1062 248 1049 b 249 1012 249 1021 249 1013 b 216 925 249 985 238 956 b 193 904 205 911 197 904 z "},"":{"ha":431,"x_min":0,"x_max":0,"o":"m 218 196 b 258 212 236 196 250 201 b 275 318 262 216 267 252 l 290 447 b 370 451 324 448 351 449 b 405 461 385 452 397 455 b 417 479 413 467 417 473 b 406 499 417 486 414 492 b 368 514 396 507 384 512 l 295 518 b 296 552 296 522 296 532 b 286 680 296 609 292 652 b 234 756 269 729 252 754 b 204 758 216 758 206 758 b 144 679 172 758 153 732 b 140 572 142 636 140 601 l 140 534 b 137 505 140 516 139 507 b 99 501 127 503 115 501 l 68 502 b 33 499 56 502 43 501 b 14 481 20 497 14 491 b 37 458 14 471 21 464 b 122 441 58 450 86 444 l 146 440 b 164 282 155 370 161 317 b 173 220 168 245 170 225 b 202 197 182 205 192 197 b 218 196 212 196 217 196 z m 133 1 b 241 5 174 1 210 3 b 385 31 313 8 361 17 b 420 62 408 43 420 54 b 277 98 420 86 372 98 b 178 96 248 98 216 98 b 38 72 108 90 61 82 b 13 41 21 63 13 53 b 64 3 13 24 30 12 b 107 0 74 1 88 0 z "},"":{"ha":248,"x_min":0,"x_max":0,"o":"m 50 721 b 70 725 56 721 63 722 b 83 728 73 726 77 727 b 108 726 87 728 96 727 b 157 724 126 725 142 724 b 229 740 193 724 218 729 b 234 750 232 744 234 747 b 194 762 234 758 220 762 b 129 759 176 762 155 761 b 97 758 115 758 104 758 b 204 937 165 844 201 904 b 209 999 208 970 209 991 b 174 1082 209 1042 197 1069 b 146 1090 165 1088 155 1090 b 82 1055 125 1090 104 1078 b 54 1010 71 1041 61 1026 b 41 973 45 995 41 982 b 46 961 41 968 43 964 b 57 956 49 958 52 956 b 64 959 59 956 62 957 b 72 968 66 960 68 964 b 85 989 75 973 79 980 b 125 1038 106 1022 119 1038 b 129 1031 128 1038 129 1036 b 117 975 129 1021 125 1002 b 101 941 116 974 111 962 b 66 865 91 919 79 894 b 31 791 53 837 41 812 b 15 756 21 769 16 758 b 14 752 14 755 14 753 b 18 740 14 749 16 745 b 50 721 26 727 36 721 z "},"":{"ha":252,"x_min":0,"x_max":0,"o":"m 132 697 b 182 712 149 697 165 702 b 239 785 220 739 238 762 b 239 819 239 807 239 818 b 178 915 239 862 218 895 b 173 918 176 916 175 917 b 169 919 171 918 170 918 b 167 920 168 920 167 920 b 172 927 167 921 169 923 b 203 972 182 937 193 952 b 219 1029 214 992 219 1011 b 214 1067 219 1042 217 1054 b 144 1135 195 1112 172 1135 b 122 1131 137 1135 130 1133 b 47 1019 83 1117 58 1080 l 46 1010 b 66 992 46 998 53 992 b 73 999 71 992 73 995 l 73 1002 b 81 1036 73 1010 76 1022 b 121 1088 95 1071 108 1088 b 130 1084 124 1088 127 1087 b 145 1017 140 1074 145 1052 b 121 921 145 976 137 944 b 109 902 113 916 109 910 b 122 890 109 895 113 892 b 140 876 130 888 136 884 b 150 837 146 863 150 851 b 147 820 150 831 149 825 b 116 782 138 798 127 785 b 94 777 104 779 97 777 b 47 805 78 777 62 786 b 33 840 41 813 37 824 b 30 842 32 841 31 842 b 14 825 19 842 14 836 b 40 755 15 802 24 779 b 91 709 56 731 73 716 b 132 697 109 701 122 697 z "},"":{"ha":390,"x_min":0,"x_max":0,"o":"m 43 790 b 67 795 50 790 58 791 b 267 953 119 817 186 869 b 338 1030 299 985 323 1011 b 376 1115 363 1063 376 1091 b 359 1147 376 1128 370 1139 b 336 1152 352 1151 344 1152 b 264 1123 315 1152 292 1143 b 146 1016 225 1096 186 1060 b 50 892 107 971 75 930 b 14 816 26 854 14 829 l 14 812 b 43 790 19 798 28 790 z "},"":{"ha":532,"x_min":0,"x_max":0,"o":"m 83 -121 b 93 -119 86 -121 90 -121 b 128 -75 111 -113 123 -98 l 129 -58 b 159 734 143 471 153 734 l 159 733 b 198 564 166 681 179 625 b 283 447 223 486 252 447 b 334 488 304 447 321 460 b 401 795 358 538 380 640 l 401 772 b 412 583 401 710 405 647 b 463 403 418 519 435 459 b 484 378 470 389 477 380 b 496 376 490 376 494 376 b 517 398 506 376 513 383 b 518 408 518 401 518 404 l 517 421 b 507 633 510 462 507 532 b 512 876 507 730 509 811 b 515 981 515 914 515 949 b 481 1154 515 1087 505 1144 b 463 1158 473 1157 467 1158 b 406 1041 431 1158 412 1119 b 398 965 406 1038 404 1013 b 338 625 380 821 361 708 b 301 539 323 574 311 545 b 283 530 292 533 286 530 b 236 607 268 530 252 556 b 205 732 224 640 214 682 b 170 952 196 781 184 854 b 155 1054 167 987 161 1021 b 129 1124 148 1087 139 1110 b 100 1145 119 1138 109 1145 b 68 1130 91 1145 80 1140 b 26 978 52 1118 39 1067 b 14 741 18 911 14 832 b 14 572 14 651 14 594 b 20 180 14 437 16 307 b 44 -89 26 33 34 -56 b 83 -121 56 -111 68 -121 z "},"":{"ha":547,"x_min":0,"x_max":0,"o":"m 260 -50 b 309 -5 292 -50 308 -35 b 308 37 309 5 309 19 l 304 471 b 302 905 302 696 302 841 b 338 910 304 906 316 908 b 369 913 353 911 363 913 l 372 912 l 369 760 b 367 489 368 658 367 568 b 368 236 367 410 367 326 l 369 132 b 371 37 370 92 370 60 b 378 -19 372 14 374 -5 b 420 -42 384 -35 398 -42 b 446 -35 429 -42 437 -40 b 454 -26 450 -33 452 -30 b 462 708 456 -20 459 224 l 462 907 b 470 928 462 918 465 924 b 494 935 476 931 484 934 b 532 954 517 939 530 945 l 533 964 b 526 978 533 969 531 974 b 435 987 517 984 487 987 b 261 981 409 987 351 985 b 81 903 182 976 121 950 b 17 780 41 857 19 815 b 14 718 15 745 14 724 b 56 559 14 661 28 608 b 199 448 87 505 135 468 l 208 446 l 208 370 b 210 3 208 149 209 27 b 260 -50 214 -32 231 -50 z "},"":{"ha":147,"x_min":0,"x_max":0,"o":"m 73 414 b 127 460 96 414 114 430 b 134 497 132 474 134 486 b 126 526 134 509 131 518 b 96 555 117 543 107 552 b 70 558 84 557 75 558 b 40 550 59 558 49 555 b 20 520 31 544 24 534 b 14 484 16 506 14 494 b 51 419 14 452 26 431 b 73 414 58 416 66 414 z "},"":{"ha":341,"x_min":0,"x_max":0,"o":"m 54 -482 b 86 -477 63 -482 74 -480 b 328 -234 247 -418 328 -338 l 328 -232 b 186 -85 324 -165 277 -117 l 188 49 b 136 66 186 60 169 66 b 92 60 119 66 104 64 b 73 45 80 56 74 52 b 73 30 73 40 73 35 b 90 -106 73 -36 79 -81 b 180 -149 102 -133 132 -147 b 240 -223 218 -155 238 -180 b 205 -307 240 -251 229 -279 b 135 -366 181 -335 158 -355 b 81 -381 112 -376 94 -381 b 50 -372 70 -381 60 -378 b 41 -369 47 -370 44 -369 b 28 -378 37 -369 33 -372 b 14 -436 18 -395 14 -414 b 54 -482 14 -467 27 -482 z "},"":{"ha":221,"x_min":0,"x_max":0,"o":"m 132 721 b 176 739 146 721 161 727 b 188 760 182 743 186 750 b 193 810 190 769 191 786 b 201 924 195 851 198 890 b 208 1023 205 962 208 995 b 206 1061 208 1037 208 1049 b 140 1122 202 1102 180 1122 b 90 1091 117 1122 100 1112 b 58 1042 81 1077 71 1061 b 27 998 46 1027 36 1013 b 14 962 18 984 14 972 b 20 941 14 949 16 942 b 30 938 24 939 27 938 b 64 955 38 938 50 943 b 76 965 70 960 74 963 l 76 875 l 75 813 b 76 779 75 798 75 787 b 77 763 76 772 77 766 b 80 753 78 760 79 756 b 109 724 87 736 97 726 b 132 721 120 722 127 721 z "},"":{"ha":321,"x_min":0,"x_max":0,"o":"m 171 844 b 307 988 246 844 291 892 l 307 1003 b 263 1109 307 1048 292 1083 b 161 1153 230 1138 196 1153 b 154 1150 158 1153 156 1152 b 136 1142 151 1147 144 1144 b 20 1034 78 1126 39 1090 b 14 991 16 1019 14 1004 b 37 917 14 963 21 939 b 171 844 71 868 116 844 z m 193 904 b 177 958 184 904 179 922 l 176 980 b 213 1080 176 1047 189 1080 b 228 1074 218 1080 222 1078 b 248 1035 241 1062 248 1049 b 249 1012 249 1021 249 1013 b 216 925 249 985 238 956 b 193 904 205 911 197 904 z "},"":{"ha":420,"x_min":0,"x_max":0,"o":"m 58 271 b 73 272 60 271 65 271 b 104 292 80 273 90 279 b 162 336 122 307 141 322 b 213 376 181 351 198 363 b 241 416 231 392 241 405 b 223 459 241 427 235 441 b 178 517 212 477 196 496 b 126 570 159 537 142 555 b 95 596 110 585 100 593 b 58 605 84 602 72 605 b 44 605 57 605 52 605 b 20 589 36 604 28 600 b 14 572 16 585 14 579 b 21 542 14 564 16 553 b 121 412 43 499 76 456 b 133 399 129 404 133 400 b 81 350 133 395 116 378 b 41 314 66 337 53 325 b 23 290 29 303 23 295 b 36 276 24 286 28 281 b 58 271 42 273 49 271 z m 196 249 b 232 264 210 249 222 254 b 269 298 237 271 250 281 l 271 300 b 317 340 279 307 295 320 b 407 444 374 391 405 427 b 376 529 407 468 397 496 b 315 614 356 561 336 589 b 278 657 294 639 282 653 b 189 702 247 687 217 702 b 168 699 182 702 174 701 b 131 656 143 691 131 677 b 136 627 131 652 132 643 b 174 555 138 612 151 588 b 244 467 197 522 220 493 l 294 413 b 253 364 288 400 275 384 b 191 309 231 344 210 326 b 155 277 170 292 159 281 b 154 270 155 275 154 273 b 162 257 154 265 157 261 b 196 249 170 252 182 249 z "},"":{"ha":594,"x_min":0,"x_max":0,"o":"m 138 721 b 182 739 153 721 168 727 b 194 760 188 743 192 750 b 199 810 196 769 197 786 b 208 924 201 851 204 890 b 214 1023 212 962 214 995 b 212 1061 214 1037 214 1049 b 146 1122 208 1102 186 1122 b 96 1091 123 1122 106 1112 b 64 1042 87 1077 77 1061 b 33 998 52 1027 42 1013 b 20 962 24 984 20 972 b 26 941 20 949 22 942 b 36 938 30 939 33 938 b 70 955 44 938 56 943 b 82 965 76 960 80 963 l 82 875 l 81 813 b 82 779 81 798 81 787 b 83 763 82 772 83 766 b 86 753 84 760 85 756 b 115 724 94 736 103 726 b 138 721 126 722 134 721 z m 58 -23 b 123 18 85 -23 107 -9 b 170 123 130 33 146 68 b 278 363 223 245 260 326 b 361 531 293 391 321 447 b 574 1025 471 759 542 924 b 581 1069 578 1042 581 1057 b 569 1105 581 1085 576 1097 b 531 1122 559 1116 546 1122 b 466 1093 505 1122 483 1112 b 283 735 407 1015 346 896 b 115 284 219 574 163 425 b 35 68 79 180 52 108 b 14 7 21 37 14 16 b 29 -16 14 -3 19 -11 b 58 -23 40 -20 50 -23 z m 531 -52 b 568 -26 547 -52 559 -43 b 572 14 570 -20 572 -7 l 570 97 b 570 165 570 115 570 138 b 566 220 570 186 568 205 b 531 248 562 239 551 248 b 488 201 509 248 494 233 b 483 171 486 189 484 179 b 481 162 482 166 482 163 b 441 159 481 161 467 161 l 435 159 l 418 158 b 404 162 409 158 404 159 b 416 180 404 165 408 171 l 418 184 b 470 267 442 215 459 243 b 481 319 477 286 481 304 b 460 367 481 343 474 359 b 441 371 454 370 447 371 b 363 302 417 371 391 348 b 317 214 345 273 330 243 b 297 157 304 184 297 165 b 326 126 297 140 307 130 b 379 121 345 123 362 121 b 475 130 407 121 439 124 l 479 131 l 479 100 b 484 -14 479 46 480 9 b 512 -49 492 -36 500 -47 b 531 -52 523 -51 529 -52 z "},"":{"ha":594,"x_min":0,"x_max":0,"o":"m 178 721 b 221 739 192 721 207 727 b 233 760 227 743 231 750 b 238 810 235 769 237 786 b 247 924 240 851 243 890 b 253 1023 251 962 253 995 b 252 1061 253 1037 252 1049 b 186 1122 247 1102 225 1122 b 136 1091 163 1122 146 1112 b 103 1042 127 1077 117 1061 b 73 998 92 1027 81 1013 b 59 962 64 984 59 972 b 65 941 59 949 61 942 b 75 938 69 939 73 938 b 109 955 83 938 95 943 b 119 963 115 959 118 962 b 122 966 121 964 121 965 b 121 813 121 930 121 879 b 123 763 121 787 122 770 b 125 753 123 760 124 756 b 155 724 133 736 143 726 b 178 721 166 722 174 721 z m 58 -23 b 123 18 85 -23 107 -9 b 170 123 130 33 146 68 b 278 363 223 245 260 326 b 361 531 293 391 321 447 b 574 1025 471 760 542 924 b 581 1069 578 1042 581 1057 b 569 1105 581 1085 576 1097 b 531 1122 559 1116 547 1122 b 466 1093 505 1122 483 1112 b 283 735 407 1015 346 896 b 115 284 219 574 163 425 b 35 68 79 180 52 108 b 14 7 21 37 14 16 b 30 -16 14 -3 19 -11 b 58 -23 40 -20 50 -23 z m 334 -46 b 353 -42 340 -46 346 -45 b 366 -39 357 -41 361 -40 b 391 -41 371 -39 380 -40 b 440 -43 410 -43 426 -43 b 513 -27 477 -43 501 -38 b 517 -17 516 -24 517 -20 b 477 -5 517 -9 504 -5 b 412 -8 459 -5 437 -6 b 380 -9 399 -9 388 -9 b 488 170 449 77 484 137 b 492 232 491 203 492 224 b 457 315 492 275 481 302 b 429 323 448 320 439 323 b 366 288 409 323 388 311 b 337 243 354 274 345 259 b 325 206 329 228 325 215 b 330 194 325 201 326 197 b 340 189 332 191 336 189 b 347 192 342 189 345 190 b 355 201 349 193 352 197 b 368 222 359 206 363 213 b 409 271 389 255 403 271 b 412 264 411 271 412 269 b 400 208 412 254 408 236 b 385 174 399 207 395 195 b 349 98 374 152 362 127 b 315 24 336 70 325 45 b 298 -10 304 2 299 -9 b 297 -15 298 -12 297 -13 b 302 -27 297 -18 298 -22 b 334 -46 309 -40 319 -46 z "},"":{"ha":623,"x_min":0,"x_max":0,"o":"m 132 697 b 182 712 149 697 165 702 b 239 785 220 739 238 762 b 239 819 239 807 239 818 b 178 915 239 862 218 895 b 173 918 176 916 175 917 b 169 919 171 918 170 918 b 167 920 168 920 167 920 b 172 927 167 921 169 923 b 203 972 182 937 193 952 b 219 1029 214 992 219 1011 b 214 1067 219 1042 217 1054 b 144 1135 195 1112 172 1135 b 122 1131 137 1135 130 1133 b 47 1019 83 1117 58 1080 l 46 1010 b 66 992 46 998 53 992 b 73 999 71 992 73 995 l 73 1002 b 81 1036 73 1010 76 1022 b 121 1088 95 1071 108 1088 b 130 1084 124 1088 127 1087 b 145 1017 140 1074 145 1052 b 121 921 145 976 137 944 b 109 902 113 916 109 910 b 122 890 109 895 113 892 b 140 876 130 888 136 884 b 150 837 146 863 150 851 b 147 820 150 831 149 825 b 116 782 138 798 127 785 b 94 777 104 779 97 777 b 47 805 78 777 62 786 b 33 840 41 813 37 824 b 30 842 32 841 31 842 b 14 825 19 842 14 836 b 40 755 15 802 24 779 b 91 709 56 731 73 716 b 132 697 109 701 122 697 z m 87 -23 b 152 18 115 -23 136 -9 b 199 123 159 33 175 68 b 307 363 252 245 289 326 b 391 531 322 391 350 447 b 603 1025 500 759 571 924 b 610 1069 608 1042 610 1057 b 598 1105 610 1085 606 1097 b 560 1122 588 1116 575 1122 b 495 1093 534 1122 512 1112 b 312 735 436 1015 375 896 b 144 284 248 574 192 425 b 64 68 108 180 81 108 b 43 7 50 37 43 16 b 58 -16 43 -3 48 -11 b 87 -23 69 -20 79 -23 z m 560 -52 b 597 -26 576 -52 589 -43 b 601 0 599 -22 600 -14 l 600 97 b 599 165 599 115 599 138 b 595 220 599 186 597 205 b 560 248 591 239 580 248 b 517 201 538 248 524 233 b 512 171 515 189 513 179 b 511 162 511 166 511 163 b 471 159 510 161 496 161 b 465 159 469 159 467 159 l 447 158 b 433 162 438 158 433 159 b 445 180 433 165 437 171 l 448 184 b 510 319 489 235 510 281 b 489 367 510 343 503 359 b 471 371 483 370 477 371 b 393 302 446 371 420 348 b 346 214 374 273 359 243 b 326 157 333 184 326 165 b 355 126 326 140 336 130 b 409 121 374 123 392 121 b 504 130 436 121 468 124 l 508 131 l 508 100 b 513 -14 508 46 509 9 b 541 -49 521 -36 530 -47 b 560 -52 552 -51 558 -52 z "},"":{"ha":371,"x_min":0,"x_max":0,"o":"m 272 995 b 222 951 251 995 235 980 b 216 916 218 938 216 926 b 222 889 216 905 218 897 b 252 862 232 873 241 865 b 275 859 262 860 270 859 b 304 867 285 859 295 861 b 321 895 312 872 317 882 b 328 930 326 908 328 920 b 292 991 328 960 315 980 b 272 995 285 994 278 995 z m 273 837 b 250 828 260 835 252 832 b 245 810 246 824 245 819 l 248 776 b 119 707 195 774 153 752 b 43 538 85 663 60 606 b 16 373 27 471 18 416 b 14 286 14 330 14 302 b 23 157 14 237 17 194 b 101 -37 45 44 71 -20 b 170 -61 131 -53 153 -61 b 237 -29 193 -61 216 -51 b 313 121 269 5 295 56 b 349 309 331 186 343 249 b 357 462 355 370 357 421 b 340 581 357 541 351 581 b 330 567 333 581 330 576 l 330 562 b 337 446 335 523 337 484 b 321 277 337 389 332 333 b 253 54 304 182 281 108 b 176 -26 225 1 199 -26 b 160 -22 170 -26 165 -25 b 107 181 133 -9 115 59 l 106 224 b 134 488 106 320 116 408 b 197 682 156 580 176 644 b 240 738 217 720 231 738 b 250 724 245 738 248 734 b 258 707 252 715 254 709 b 276 702 262 703 268 702 b 298 720 286 702 294 708 b 308 758 304 732 307 745 b 310 791 309 772 310 783 b 304 829 310 814 308 826 b 276 837 294 834 285 837 z "},"":{"ha":923,"x_min":0,"x_max":0,"o":"m 227 315 b 213 317 218 315 213 316 b 238 412 213 323 221 355 b 497 902 296 609 382 772 b 541 941 521 928 536 941 b 553 876 549 941 553 920 b 529 619 553 812 545 727 b 494 399 522 572 511 498 b 481 332 487 356 483 334 b 444 326 477 329 465 326 b 397 323 433 325 416 324 b 262 317 357 322 313 320 b 227 315 249 316 237 315 z m 617 -420 b 648 -415 626 -420 636 -418 b 700 -370 666 -410 683 -395 b 807 -125 723 -335 759 -254 b 857 12 825 -79 842 -33 b 943 243 884 86 912 163 b 971 324 962 290 971 317 b 959 330 971 328 967 330 b 909 264 946 330 930 309 b 818 33 888 220 858 143 b 749 -149 789 -47 766 -107 b 650 -346 712 -237 680 -303 b 626 -373 639 -364 631 -373 b 624 -372 625 -373 625 -373 b 593 -184 604 -347 593 -285 b 595 -117 593 -162 594 -140 b 626 117 600 -70 610 8 b 656 302 642 231 652 292 b 717 309 657 303 677 305 b 799 330 772 313 799 320 b 776 347 799 334 791 340 b 749 351 768 349 760 351 b 711 349 739 351 727 351 b 665 345 696 347 680 345 b 678 475 665 361 669 404 b 692 602 685 527 690 569 b 695 742 694 635 695 682 b 691 883 695 812 694 859 b 685 913 690 895 688 905 b 593 1008 666 973 635 1005 b 562 1010 578 1009 568 1010 b 517 1004 545 1010 530 1008 b 381 868 480 989 435 943 b 189 469 297 751 233 618 b 153 325 173 414 161 366 b 149 309 153 317 151 312 b 133 300 146 305 141 302 b 77 292 107 295 88 292 b 45 298 65 292 55 294 b 24 302 38 300 31 302 b 10 299 19 302 14 301 b 0 288 3 296 0 292 b 33 264 0 276 11 269 b 79 260 48 261 63 260 l 103 260 l 146 264 l 142 251 b 134 41 137 232 134 162 b 139 -227 134 -61 136 -150 b 148 -326 141 -281 144 -315 b 167 -336 151 -332 157 -336 l 182 -336 b 180 -96 180 -219 180 -139 b 196 229 180 48 185 157 b 208 273 199 254 203 269 b 269 281 213 276 233 279 b 354 286 294 283 323 284 b 427 289 385 287 410 288 b 463 290 445 290 457 290 b 474 289 469 290 473 290 b 467 222 474 281 472 258 b 449 -47 455 134 449 44 b 452 -123 449 -77 450 -102 b 581 -413 469 -288 512 -384 b 617 -420 594 -418 606 -420 z m 738 1012 b 767 1034 752 1012 762 1019 l 767 1038 b 730 1114 767 1050 755 1076 b 634 1238 705 1152 673 1193 b 517 1345 595 1282 555 1318 b 445 1374 489 1364 465 1374 b 422 1369 437 1374 429 1373 b 404 1337 410 1361 404 1350 b 443 1252 404 1313 417 1285 b 513 1175 458 1233 481 1207 b 713 1017 595 1091 661 1038 b 738 1012 723 1014 731 1012 z "},"":{"ha":923,"x_min":0,"x_max":0,"o":"m 227 315 b 213 317 218 315 213 316 b 238 412 213 323 221 355 b 497 902 296 609 382 772 b 541 941 521 928 536 941 b 553 876 549 941 553 920 b 529 619 553 812 545 727 b 494 399 522 572 511 498 b 481 332 487 356 483 334 b 444 326 477 329 465 326 b 397 323 433 325 416 324 b 262 317 357 322 313 320 b 227 315 249 316 237 315 z m 617 -420 b 648 -415 626 -420 636 -418 b 700 -370 666 -410 683 -395 b 807 -125 723 -335 759 -254 b 857 12 825 -79 842 -33 b 943 243 884 86 912 163 b 971 324 962 290 971 317 b 959 330 971 328 967 330 b 909 264 946 330 930 309 b 818 33 888 220 858 143 b 749 -149 789 -47 766 -107 b 650 -346 712 -237 680 -303 b 626 -373 639 -364 631 -373 b 624 -372 625 -373 625 -373 b 593 -184 604 -347 593 -285 b 595 -117 593 -162 594 -140 b 626 117 600 -70 610 8 b 656 302 642 231 652 292 b 717 309 657 303 677 305 b 799 330 772 313 799 320 b 776 347 799 334 791 340 b 749 351 768 349 760 351 b 711 349 739 351 727 351 b 665 345 696 347 680 345 b 678 475 665 361 669 404 b 692 602 685 527 690 569 b 695 742 694 635 695 682 b 691 883 695 812 694 859 b 685 913 690 895 688 905 b 593 1008 666 973 635 1005 b 562 1010 578 1009 568 1010 b 517 1004 545 1010 530 1008 b 381 868 480 989 435 943 b 189 469 297 751 233 618 b 153 325 173 414 161 366 b 149 309 153 317 151 312 b 133 300 146 305 141 302 b 77 292 107 295 88 292 b 45 298 65 292 55 294 b 24 302 38 300 31 302 b 10 299 19 302 14 301 b 0 288 3 296 0 292 b 33 264 0 276 11 269 b 79 260 48 261 63 260 l 103 260 l 146 264 l 142 251 b 134 41 137 232 134 162 b 139 -227 134 -61 136 -150 b 148 -326 141 -281 144 -315 b 167 -336 151 -332 157 -336 l 182 -336 b 180 -96 180 -219 180 -139 b 196 229 180 48 185 157 b 208 273 199 254 203 269 b 269 281 213 276 233 279 b 354 286 294 283 323 284 b 427 289 385 287 410 288 b 463 290 445 290 457 290 b 474 289 469 290 473 290 b 467 222 474 281 472 258 b 449 -47 455 134 449 44 b 452 -123 449 -77 450 -102 b 581 -413 469 -288 512 -384 b 617 -420 594 -418 606 -420 z m 394 1068 b 418 1074 401 1068 409 1070 b 618 1231 471 1095 537 1147 b 689 1308 650 1263 674 1289 b 728 1393 715 1341 728 1369 b 710 1426 728 1407 722 1417 b 687 1430 703 1429 695 1430 b 615 1401 667 1430 643 1421 b 498 1294 576 1374 537 1338 b 402 1171 458 1249 427 1208 b 365 1094 377 1133 365 1107 l 365 1090 b 394 1068 370 1076 380 1068 z "},"":{"ha":923,"x_min":0,"x_max":0,"o":"m 227 315 b 213 317 218 315 213 316 b 238 412 213 323 221 355 b 497 902 296 609 382 772 b 541 941 521 928 536 941 b 553 876 549 941 553 920 b 529 619 553 812 545 727 b 494 399 522 572 511 498 b 481 332 487 356 483 334 b 444 326 477 329 465 326 b 397 323 433 325 416 324 b 262 317 357 322 313 320 b 227 315 249 316 237 315 z m 617 -420 b 648 -415 626 -420 636 -418 b 700 -370 666 -410 683 -395 b 807 -125 723 -335 759 -254 b 857 12 825 -79 842 -33 b 943 243 884 86 912 163 b 971 324 962 290 971 317 b 959 330 971 328 967 330 b 909 264 946 330 930 309 b 818 33 888 220 858 143 b 749 -149 789 -47 766 -107 b 650 -346 712 -237 680 -303 b 626 -373 639 -364 631 -373 b 624 -372 625 -373 625 -373 b 593 -184 604 -347 593 -285 b 595 -117 593 -162 594 -140 b 626 117 600 -70 610 8 b 656 302 642 231 652 292 b 717 309 657 303 677 305 b 799 330 772 313 799 320 b 776 347 799 334 791 340 b 749 351 768 349 760 351 b 711 349 739 351 727 351 b 665 345 696 347 680 345 b 678 475 665 361 669 404 b 692 602 685 527 690 569 b 695 742 694 635 695 682 b 691 883 695 812 694 859 b 685 913 690 895 688 905 b 593 1008 666 973 635 1005 b 562 1010 578 1009 568 1010 b 517 1004 545 1010 530 1008 b 381 868 480 989 435 943 b 189 469 297 751 233 618 b 153 325 173 414 161 366 b 149 309 153 317 151 312 b 133 300 146 305 141 302 b 77 292 107 295 88 292 b 45 298 65 292 55 294 b 24 302 38 300 31 302 b 10 299 19 302 14 301 b 0 288 3 296 0 292 b 33 264 0 276 11 269 b 79 260 48 261 63 260 l 103 260 l 146 264 l 142 251 b 134 41 137 232 134 162 b 139 -227 134 -61 136 -150 b 148 -326 141 -281 144 -315 b 167 -336 151 -332 157 -336 l 182 -336 b 180 -96 180 -219 180 -139 b 196 229 180 48 185 157 b 208 273 199 254 203 269 b 269 281 213 276 233 279 b 354 286 294 283 323 284 b 427 289 385 287 410 288 b 463 290 445 290 457 290 b 474 289 469 290 473 290 b 467 222 474 281 472 258 b 449 -47 455 134 449 44 b 452 -123 449 -77 450 -102 b 581 -413 469 -288 512 -384 b 617 -420 594 -418 606 -420 z m 407 1061 b 448 1069 423 1061 437 1063 b 484 1107 459 1074 471 1086 b 564 1249 500 1134 528 1181 b 621 1167 564 1247 583 1220 b 689 1079 659 1114 682 1085 b 720 1072 697 1074 707 1072 b 751 1079 736 1072 747 1074 b 758 1091 756 1084 758 1088 b 745 1113 758 1097 753 1104 b 634 1285 699 1160 663 1217 b 596 1352 621 1317 608 1339 b 564 1367 584 1362 573 1367 b 547 1368 554 1368 549 1368 b 505 1356 532 1368 518 1364 b 473 1312 499 1351 488 1337 b 422 1227 456 1288 439 1259 b 380 1143 404 1196 391 1167 b 365 1090 370 1119 365 1101 b 366 1082 365 1087 366 1084 b 391 1061 373 1069 381 1062 b 407 1061 401 1061 406 1061 z "},"":{"ha":923,"x_min":0,"x_max":0,"o":"m 227 315 b 213 317 218 315 213 316 b 238 412 213 323 221 355 b 497 902 296 609 382 772 b 541 941 521 928 536 941 b 553 876 549 941 553 920 b 529 619 553 812 545 727 b 494 399 522 572 511 498 b 481 332 487 356 483 334 b 444 326 477 329 465 326 b 397 323 433 325 416 324 b 262 317 357 322 313 320 b 227 315 249 316 237 315 z m 617 -420 b 648 -415 626 -420 636 -418 b 700 -370 666 -410 683 -395 b 807 -125 723 -335 759 -254 b 857 12 825 -79 842 -33 b 943 243 884 86 912 163 b 971 324 962 290 971 317 b 959 330 971 328 967 330 b 909 264 946 330 930 309 b 818 33 888 220 858 143 b 749 -149 789 -47 766 -107 b 650 -346 712 -237 680 -303 b 626 -373 639 -364 631 -373 b 624 -372 625 -373 625 -373 b 593 -184 604 -347 593 -285 b 595 -117 593 -162 594 -140 b 626 117 600 -70 610 8 b 656 302 642 231 652 292 b 717 309 657 303 677 305 b 799 330 772 313 799 320 b 776 347 799 334 791 340 b 749 351 768 349 760 351 b 711 349 739 351 727 351 b 665 345 696 347 680 345 b 678 475 665 361 669 404 b 692 602 685 527 690 569 b 695 742 694 635 695 682 b 691 883 695 812 694 859 b 685 913 690 895 688 905 b 593 1008 666 973 635 1005 b 562 1010 578 1009 568 1010 b 517 1004 545 1010 530 1008 b 381 868 480 989 435 943 b 189 469 297 751 233 618 b 153 325 173 414 161 366 b 149 309 153 317 151 312 b 133 300 146 305 141 302 b 77 292 107 295 88 292 b 45 298 65 292 55 294 b 24 302 38 300 31 302 b 10 299 19 302 14 301 b 0 288 3 296 0 292 b 33 264 0 276 11 269 b 79 260 48 261 63 260 l 103 260 l 146 264 l 142 251 b 134 41 137 232 134 162 b 139 -227 134 -61 136 -150 b 148 -326 141 -281 144 -315 b 167 -336 151 -332 157 -336 l 182 -336 b 180 -96 180 -219 180 -139 b 196 229 180 48 185 157 b 208 273 199 254 203 269 b 269 281 213 276 233 279 b 354 286 294 283 323 284 b 427 289 385 287 410 288 b 463 290 445 290 457 290 b 474 289 469 290 473 290 b 467 222 474 281 472 258 b 449 -47 455 134 449 44 b 452 -123 449 -77 450 -102 b 581 -413 469 -288 512 -384 b 617 -420 594 -418 606 -420 z m 654 1097 b 723 1116 683 1097 706 1103 b 768 1181 748 1135 764 1157 b 776 1239 773 1204 776 1223 b 773 1272 776 1251 775 1261 b 756 1312 769 1296 764 1310 b 730 1278 749 1312 740 1301 b 713 1243 726 1265 720 1254 b 669 1221 703 1228 688 1221 b 553 1257 645 1221 606 1233 b 425 1297 497 1283 454 1297 b 374 1284 407 1297 390 1293 b 315 1187 349 1270 330 1238 b 314 1177 315 1184 314 1181 b 317 1163 314 1173 315 1168 b 332 1154 321 1157 326 1154 b 356 1173 340 1154 347 1160 b 393 1207 369 1196 381 1207 b 433 1185 403 1206 416 1199 b 606 1102 476 1147 534 1119 b 654 1097 623 1099 640 1097 z "},"":{"ha":923,"x_min":0,"x_max":0,"o":"m 227 315 b 213 317 218 315 213 316 b 238 412 213 323 221 355 b 497 902 296 609 382 772 b 541 941 521 928 536 941 b 553 876 549 941 553 920 b 529 619 553 812 545 727 b 494 399 522 572 511 498 b 481 332 487 356 483 334 b 444 326 477 329 465 326 b 397 323 433 325 416 324 b 262 317 357 322 313 320 b 227 315 249 316 237 315 z m 617 -420 b 648 -415 626 -420 636 -418 b 700 -370 666 -410 683 -395 b 807 -125 723 -335 759 -254 b 857 12 825 -79 842 -33 b 943 243 884 86 912 163 b 971 324 962 290 971 317 b 959 330 971 328 967 330 b 909 264 946 330 930 309 b 818 33 888 220 858 143 b 749 -149 789 -47 766 -107 b 650 -346 712 -237 680 -303 b 626 -373 639 -364 631 -373 b 624 -372 625 -373 625 -373 b 593 -184 604 -347 593 -285 b 595 -117 593 -162 594 -140 b 626 117 600 -70 610 8 b 656 302 642 231 652 292 b 717 309 657 303 677 305 b 799 330 772 313 799 320 b 776 347 799 334 791 340 b 749 351 768 349 760 351 b 711 349 739 351 727 351 b 665 345 696 347 680 345 b 678 475 665 361 669 404 b 692 602 685 527 690 569 b 695 742 694 635 695 682 b 691 883 695 812 694 859 b 685 913 690 895 688 905 b 593 1008 666 973 635 1005 b 562 1010 578 1009 568 1010 b 517 1004 545 1010 530 1008 b 381 868 480 989 435 943 b 189 469 297 751 233 618 b 153 325 173 414 161 366 b 149 309 153 317 151 312 b 133 300 146 305 141 302 b 77 292 107 295 88 292 b 45 298 65 292 55 294 b 24 302 38 300 31 302 b 10 299 19 302 14 301 b 0 288 3 296 0 292 b 33 264 0 276 11 269 b 79 260 48 261 63 260 l 103 260 l 146 264 l 142 251 b 134 41 137 232 134 162 b 139 -227 134 -61 136 -150 b 148 -326 141 -281 144 -315 b 167 -336 151 -332 157 -336 l 182 -336 b 180 -96 180 -219 180 -139 b 196 229 180 48 185 157 b 208 273 199 254 203 269 b 269 281 213 276 233 279 b 354 286 294 283 323 284 b 427 289 385 287 410 288 b 463 290 445 290 457 290 b 474 289 469 290 473 290 b 467 222 474 281 472 258 b 449 -47 455 134 449 44 b 452 -123 449 -77 450 -102 b 581 -413 469 -288 512 -384 b 617 -420 594 -418 606 -420 z m 625 1082 b 679 1128 648 1082 666 1098 b 686 1165 684 1142 686 1154 b 678 1194 686 1177 683 1186 b 648 1223 669 1211 659 1220 b 622 1226 636 1225 627 1226 b 592 1218 611 1226 601 1223 b 572 1188 583 1212 576 1202 b 566 1152 568 1174 566 1162 b 603 1087 566 1120 578 1099 b 625 1082 610 1084 618 1082 z m 441 1082 b 494 1128 463 1082 481 1098 b 501 1165 499 1142 501 1154 b 494 1194 501 1177 498 1186 b 463 1223 485 1211 475 1220 b 437 1226 452 1225 443 1226 b 408 1218 427 1226 416 1223 b 387 1188 398 1212 391 1202 b 381 1152 383 1174 381 1162 b 418 1087 381 1120 393 1099 b 441 1082 426 1084 433 1082 z "},"":{"ha":923,"x_min":0,"x_max":0,"o":"m 227 315 b 213 317 218 315 213 316 b 238 412 213 323 221 355 b 497 902 296 609 382 772 b 541 941 521 928 536 941 b 553 876 549 941 553 920 b 529 619 553 812 545 727 b 494 399 522 572 511 498 b 481 332 487 356 483 334 b 444 326 477 329 465 326 b 397 323 433 325 416 324 b 262 317 357 322 313 320 b 227 315 249 316 237 315 z m 600 1021 b 584 1076 591 1021 586 1040 l 584 1097 b 620 1198 584 1164 596 1198 b 635 1191 625 1198 630 1196 b 655 1153 648 1179 654 1167 b 656 1129 656 1139 656 1131 b 623 1042 656 1103 645 1074 b 600 1021 612 1028 604 1021 z m 649 981 b 713 1105 682 1003 704 1044 l 714 1120 b 670 1226 714 1164 699 1200 b 568 1270 637 1255 603 1270 b 561 1267 565 1270 563 1270 b 543 1259 557 1264 552 1261 b 427 1152 485 1243 446 1207 b 421 1108 423 1136 421 1122 b 444 1034 421 1080 429 1056 b 490 987 457 1015 473 1000 b 381 868 458 965 422 926 b 189 469 297 751 233 618 b 153 325 173 414 161 366 b 149 309 153 317 151 312 b 133 300 146 305 141 302 b 77 292 107 295 88 292 b 45 298 65 292 55 294 b 24 302 38 300 31 302 b 10 299 19 302 14 301 b 0 288 3 296 0 292 b 33 264 0 276 11 269 b 79 260 48 261 63 260 l 103 260 l 146 264 l 142 251 b 134 41 137 232 134 162 b 139 -227 134 -61 136 -150 b 148 -326 141 -281 144 -315 b 167 -336 151 -332 157 -336 l 182 -336 b 180 -96 180 -219 180 -139 b 196 229 180 48 185 157 b 208 273 199 254 203 269 b 269 281 213 276 233 279 b 354 286 294 283 323 284 b 427 289 385 287 410 288 b 463 290 445 290 457 290 b 474 289 469 290 473 290 b 467 222 474 281 472 258 b 449 -47 455 134 449 44 b 452 -123 449 -77 450 -102 b 581 -413 469 -288 512 -384 b 617 -420 594 -418 606 -420 b 648 -415 626 -420 636 -418 b 700 -370 666 -410 683 -395 b 807 -125 723 -335 759 -254 b 857 12 825 -79 842 -33 b 943 243 884 86 912 163 b 971 324 962 290 971 317 b 959 330 971 328 967 330 b 909 264 946 330 930 309 b 818 33 888 220 858 143 b 749 -149 789 -47 766 -107 b 650 -346 712 -237 680 -303 b 626 -373 639 -364 631 -373 b 624 -372 625 -373 625 -373 b 593 -184 604 -347 593 -285 b 595 -117 593 -162 594 -140 b 626 117 600 -70 610 8 b 656 302 642 231 652 292 b 717 309 657 303 677 305 b 799 330 772 313 799 320 b 776 347 799 334 791 340 b 749 351 768 349 760 351 b 711 349 739 351 727 351 b 665 345 696 347 680 345 b 678 475 665 361 669 404 b 692 602 685 527 690 569 b 695 742 694 635 695 682 b 691 883 695 812 694 859 b 685 913 690 895 688 905 b 649 981 675 942 664 964 z "},"":{"ha":1247,"x_min":0,"x_max":0,"o":"m 227 315 b 213 317 218 315 213 316 b 238 412 213 323 221 355 b 497 902 296 609 382 772 b 541 941 521 928 536 941 b 553 876 549 941 553 920 b 529 619 553 812 545 727 b 494 399 522 572 511 498 b 481 332 487 356 483 334 b 444 326 477 329 465 326 b 397 323 433 325 416 324 b 262 317 357 322 313 320 b 227 315 249 316 237 315 z m 723 -328 b 775 -355 739 -339 755 -348 b 828 -363 794 -361 812 -363 b 913 -328 861 -363 889 -352 b 943 -290 920 -321 930 -309 b 996 -199 956 -271 973 -241 b 1090 -28 1019 -158 1050 -101 b 1266 264 1162 104 1221 202 b 1297 319 1287 292 1297 311 b 1290 326 1297 324 1295 326 b 1278 323 1286 326 1282 326 b 1216 256 1266 322 1245 300 b 1073 20 1186 212 1139 134 b 873 -277 981 -135 915 -235 l 843 -309 l 827 -288 b 784 -184 804 -260 790 -226 b 807 -125 791 -166 799 -146 b 857 12 825 -79 842 -33 b 943 243 884 86 912 163 b 971 324 962 290 971 317 b 962 330 971 328 968 330 b 966 337 964 333 966 336 b 958 346 966 339 963 342 b 937 353 952 351 945 353 b 886 332 926 353 909 346 l 850 309 b 841 328 846 315 844 321 b 835 361 838 334 836 345 b 833 439 833 378 833 404 b 856 656 833 519 840 591 b 919 809 871 722 892 772 b 934 824 926 819 931 824 b 943 819 937 824 940 822 b 971 764 953 810 962 791 b 991 677 980 737 987 708 b 1002 622 995 643 998 625 b 1013 618 1004 619 1008 618 b 1029 616 1018 617 1023 616 l 1029 681 b 1007 829 1029 751 1021 801 b 928 872 993 857 966 871 l 912 873 b 855 857 895 873 876 867 b 751 743 814 838 779 800 b 699 594 728 699 711 649 b 682 446 688 539 682 490 b 692 347 682 401 686 368 b 665 345 684 346 674 345 b 678 475 665 361 669 404 b 692 602 685 527 690 569 b 695 742 694 635 695 682 b 691 883 695 812 694 859 b 685 913 690 895 688 905 b 593 1008 666 973 635 1005 b 562 1010 578 1009 568 1010 b 517 1004 545 1010 530 1008 b 381 868 480 989 435 943 b 189 469 297 751 233 618 b 153 325 173 414 161 366 b 149 309 153 317 151 312 b 133 300 146 305 141 302 b 77 292 107 295 88 292 b 45 298 65 292 55 294 b 24 302 38 300 31 302 b 10 299 19 302 14 301 b 0 288 3 296 0 292 b 33 264 0 276 11 269 b 79 260 48 261 63 260 l 103 260 l 146 264 l 142 251 b 134 41 137 232 134 162 b 139 -227 134 -61 136 -150 b 148 -326 141 -281 144 -315 b 167 -336 151 -332 157 -336 l 182 -336 b 180 -96 180 -219 180 -139 b 196 229 180 48 185 157 b 208 273 199 254 203 269 b 269 281 213 276 233 279 b 354 286 294 283 323 284 b 427 289 385 287 410 288 b 463 290 445 290 457 290 b 474 289 469 290 473 290 b 467 222 474 281 472 258 b 449 -47 455 134 449 44 b 452 -123 449 -77 450 -102 b 581 -413 469 -288 512 -384 b 617 -420 594 -418 606 -420 b 648 -415 626 -420 636 -418 b 700 -370 666 -410 683 -395 b 723 -328 707 -359 714 -346 z m 791 -42 b 803 25 794 -16 798 6 b 868 182 814 69 836 121 b 891 223 876 197 884 210 b 818 33 872 178 848 114 z m 713 309 b 722 298 716 304 719 302 b 760 269 735 286 747 275 b 808 258 773 263 789 259 l 840 254 l 795 198 b 701 64 753 146 722 101 b 645 -144 664 -3 645 -73 b 654 -228 645 -178 648 -205 b 684 -288 661 -251 672 -271 b 650 -346 673 -311 661 -330 b 626 -373 639 -364 631 -373 b 624 -372 625 -373 625 -373 b 593 -184 604 -347 593 -285 b 595 -117 593 -162 594 -140 b 626 117 600 -70 610 8 b 656 302 642 231 652 292 b 713 309 657 303 676 305 z "},"":{"ha":652,"x_min":0,"x_max":0,"o":"m 149 -262 l 149 -264 b 148 -280 148 -270 148 -275 b 165 -416 148 -346 153 -391 b 254 -459 177 -443 207 -457 b 315 -533 292 -465 313 -490 b 279 -617 315 -561 303 -589 b 210 -675 256 -645 233 -665 b 157 -691 187 -686 170 -691 b 125 -682 145 -691 134 -688 b 117 -679 122 -680 119 -679 b 103 -688 112 -679 107 -682 b 88 -746 93 -705 88 -724 b 129 -792 88 -777 102 -792 b 161 -787 138 -792 149 -790 b 402 -544 321 -729 402 -648 l 402 -542 b 260 -395 399 -475 352 -427 l 262 -292 b 368 -239 302 -288 337 -271 b 473 -107 399 -212 433 -168 b 632 163 512 -47 565 43 b 713 304 676 242 703 290 b 721 322 718 312 721 318 b 713 329 721 327 718 329 b 652 292 699 329 678 317 b 541 123 636 274 600 218 b 416 -75 492 43 450 -23 b 308 -201 384 -119 348 -161 b 265 -232 287 -222 273 -232 b 251 -225 260 -232 256 -230 b 227 -185 245 -219 237 -205 b 171 52 190 -100 172 -22 b 170 169 170 126 170 165 b 212 576 170 307 184 443 b 333 882 240 713 281 814 b 347 895 340 890 345 895 b 356 887 349 895 353 892 b 382 839 365 876 374 859 b 402 730 395 803 402 767 b 383 586 402 695 396 647 b 372 514 376 551 372 527 b 387 502 372 506 376 502 b 412 516 398 502 406 507 b 433 574 418 526 425 545 b 460 764 451 643 460 706 b 343 940 460 881 421 940 b 280 929 324 940 303 937 b 157 812 239 912 198 873 b 58 594 116 750 83 677 b 0 178 20 456 0 317 b 13 -25 0 85 4 17 b 149 -262 42 -142 87 -222 z "},"":{"ha":602,"x_min":0,"x_max":0,"o":"m 183 -363 b 268 -328 216 -363 244 -352 b 298 -290 275 -321 286 -309 b 351 -199 311 -271 328 -241 b 446 -28 374 -158 406 -101 b 621 264 517 104 576 202 b 652 319 642 292 652 311 b 645 326 652 324 650 326 b 633 323 642 326 637 326 b 571 256 621 322 600 300 b 428 20 541 212 494 134 b 229 -277 336 -135 270 -235 l 198 -309 l 182 -288 b 136 -139 151 -250 136 -201 b 141 -75 136 -119 138 -97 b 159 25 146 -35 152 -2 b 224 182 169 69 191 121 b 309 321 264 256 292 302 b 321 337 317 329 321 334 b 313 346 321 339 318 342 b 292 353 307 351 300 353 b 241 332 281 353 264 346 l 205 309 b 196 328 202 315 199 321 b 190 361 193 334 191 345 b 188 439 189 378 188 404 b 211 656 188 519 195 591 b 274 809 226 722 247 772 b 289 824 281 819 286 824 b 298 819 292 824 295 822 b 326 764 308 810 317 791 b 346 677 335 737 342 708 b 357 622 350 643 353 625 b 369 618 359 619 363 618 b 384 616 374 617 379 616 l 384 681 b 362 829 384 751 376 801 b 283 872 348 857 321 871 l 267 873 b 210 857 250 873 231 867 b 106 743 169 838 134 800 b 54 594 83 699 66 649 b 37 446 43 539 37 490 b 49 345 37 400 41 367 b 77 298 55 327 64 311 b 115 269 90 286 102 275 b 163 258 128 263 144 259 l 195 254 l 150 198 b 56 64 108 146 77 101 b 0 -144 19 -3 0 -73 b 9 -228 0 -178 3 -205 b 130 -355 31 -292 71 -334 b 183 -363 149 -361 167 -363 z m 426 879 b 455 901 440 879 450 886 l 456 905 b 418 981 456 918 444 943 b 322 1105 393 1019 361 1060 b 205 1212 283 1149 243 1185 b 133 1241 177 1232 153 1241 b 110 1236 125 1241 117 1240 b 92 1204 98 1228 92 1217 b 131 1119 92 1180 105 1152 b 201 1042 146 1100 170 1074 b 401 884 283 958 350 905 b 426 879 411 881 419 879 z "},"":{"ha":602,"x_min":0,"x_max":0,"o":"m 183 -363 b 268 -328 216 -363 244 -352 b 298 -290 275 -321 286 -309 b 351 -199 311 -271 328 -241 b 446 -28 374 -158 406 -101 b 621 264 517 104 576 202 b 652 319 642 292 652 311 b 645 326 652 324 650 326 b 633 323 642 326 637 326 b 571 256 621 322 600 300 b 428 20 541 212 494 134 b 229 -277 336 -135 270 -235 l 198 -309 l 182 -288 b 136 -139 151 -250 136 -201 b 141 -75 136 -119 138 -97 b 159 25 146 -35 152 -2 b 224 182 169 69 191 121 b 309 321 264 256 292 302 b 321 337 317 329 321 334 b 313 346 321 339 318 342 b 292 353 307 351 300 353 b 241 332 281 353 264 346 l 205 309 b 196 328 202 315 199 321 b 190 361 193 334 191 345 b 188 439 189 378 188 404 b 211 656 188 519 195 591 b 274 809 226 722 247 772 b 289 824 281 819 286 824 b 298 819 292 824 295 822 b 326 764 308 810 317 791 b 346 677 335 737 342 708 b 357 622 350 643 353 625 b 369 618 359 619 363 618 b 384 616 374 617 379 616 l 384 681 b 362 829 384 751 376 801 b 283 872 348 857 321 871 l 267 873 b 210 857 250 873 231 867 b 106 743 169 838 134 800 b 54 594 83 699 66 649 b 37 446 43 539 37 490 b 49 345 37 400 41 367 b 77 298 55 327 64 311 b 115 269 90 286 102 275 b 163 258 128 263 144 259 l 195 254 l 150 198 b 56 64 108 146 77 101 b 0 -144 19 -3 0 -73 b 9 -228 0 -178 3 -205 b 130 -355 31 -292 71 -334 b 183 -363 149 -361 167 -363 z m 75 876 b 99 881 81 876 90 878 b 299 1038 151 902 218 955 b 370 1116 331 1071 355 1097 b 408 1200 395 1149 408 1177 b 391 1233 408 1214 402 1225 b 368 1238 383 1236 376 1238 b 296 1208 347 1238 323 1228 b 178 1101 257 1181 218 1145 b 83 978 139 1057 107 1015 b 45 901 58 940 45 914 l 45 898 b 75 876 50 883 60 876 z "},"":{"ha":602,"x_min":0,"x_max":0,"o":"m 183 -363 b 268 -328 216 -363 244 -352 b 298 -290 275 -321 286 -309 b 351 -199 311 -271 328 -241 b 446 -28 374 -158 406 -101 b 621 264 517 104 576 202 b 652 319 642 292 652 311 b 645 326 652 324 650 326 b 633 323 642 326 637 326 b 571 256 621 322 600 300 b 428 20 541 212 494 134 b 229 -277 336 -135 270 -235 l 198 -309 l 182 -288 b 136 -139 151 -250 136 -201 b 141 -75 136 -119 138 -97 b 159 25 146 -35 152 -2 b 224 182 169 69 191 121 b 309 321 264 256 292 302 b 321 337 317 329 321 334 b 313 346 321 339 318 342 b 292 353 307 351 300 353 b 241 332 281 353 264 346 l 205 309 b 196 328 202 315 199 321 b 190 361 193 334 191 345 b 188 439 189 378 188 404 b 211 656 188 519 195 591 b 274 809 226 722 247 772 b 289 824 281 819 286 824 b 298 819 292 824 295 822 b 326 764 308 810 317 791 b 346 677 335 737 342 708 b 357 622 350 643 353 625 b 369 618 359 619 363 618 b 384 616 374 617 379 616 l 384 681 b 362 829 384 751 376 801 b 283 872 348 857 321 871 l 267 873 b 210 857 250 873 231 867 b 106 743 169 838 134 800 b 54 594 83 699 66 649 b 37 446 43 539 37 490 b 49 345 37 400 41 367 b 77 298 55 327 64 311 b 115 269 90 286 102 275 b 163 258 128 263 144 259 l 195 254 l 150 198 b 56 64 108 146 77 101 b 0 -144 19 -3 0 -73 b 9 -228 0 -178 3 -205 b 130 -355 31 -292 71 -334 b 183 -363 149 -361 167 -363 z m 126 906 b 168 914 142 906 156 909 b 203 953 178 919 190 932 b 283 1094 220 979 247 1027 b 340 1013 283 1093 302 1065 b 408 924 378 960 401 930 b 439 917 416 920 427 917 b 471 924 455 917 466 920 b 477 937 475 929 477 933 b 464 958 477 943 473 949 b 353 1131 418 1005 382 1062 b 315 1198 340 1162 328 1185 b 283 1213 303 1207 292 1212 b 267 1213 273 1213 268 1213 b 224 1201 251 1213 237 1209 b 192 1158 218 1196 208 1182 b 141 1073 176 1133 159 1105 b 100 989 123 1041 110 1013 b 84 936 90 964 84 947 b 85 928 84 932 85 930 b 111 907 92 914 100 907 b 126 906 120 906 125 906 z "},"":{"ha":602,"x_min":0,"x_max":0,"o":"m 183 -363 b 268 -328 216 -363 244 -352 b 298 -290 275 -321 286 -309 b 351 -199 311 -271 328 -241 b 446 -28 374 -158 406 -101 b 621 264 517 104 576 202 b 652 319 642 292 652 311 b 645 326 652 324 650 326 b 633 323 642 326 637 326 b 571 256 621 322 600 300 b 428 20 541 212 494 134 b 229 -277 336 -135 270 -235 l 198 -309 l 182 -288 b 136 -139 151 -250 136 -201 b 141 -75 136 -119 138 -97 b 159 25 146 -35 152 -2 b 224 182 169 69 191 121 b 309 321 264 256 292 302 b 321 337 317 329 321 334 b 313 346 321 339 318 342 b 292 353 307 351 300 353 b 241 332 281 353 264 346 l 205 309 b 196 328 202 315 199 321 b 190 361 193 334 191 345 b 188 439 189 378 188 404 b 211 656 188 519 195 591 b 274 809 226 722 247 772 b 289 824 281 819 286 824 b 298 819 292 824 295 822 b 326 764 308 810 317 791 b 346 677 335 737 342 708 b 357 622 350 643 353 625 b 369 618 359 619 363 618 b 384 616 374 617 379 616 l 384 681 b 362 829 384 751 376 801 b 283 872 348 857 321 871 l 267 873 b 210 857 250 873 231 867 b 106 743 169 838 134 800 b 54 594 83 699 66 649 b 37 446 43 539 37 490 b 49 345 37 400 41 367 b 77 298 55 327 64 311 b 115 269 90 286 102 275 b 163 258 128 263 144 259 l 195 254 l 150 198 b 56 64 108 146 77 101 b 0 -144 19 -3 0 -73 b 9 -228 0 -178 3 -205 b 130 -355 31 -292 71 -334 b 183 -363 149 -361 167 -363 z m 317 892 b 371 938 340 892 358 907 b 378 975 376 951 378 964 b 370 1004 378 986 375 996 b 340 1032 361 1020 351 1029 b 314 1036 328 1034 319 1036 b 284 1027 303 1036 293 1033 b 264 998 275 1021 268 1012 b 258 962 260 983 258 972 b 295 897 258 930 270 908 b 317 892 302 893 310 892 z m 133 892 b 186 938 155 892 174 907 b 193 975 191 951 193 964 b 186 1004 193 986 191 996 b 155 1032 177 1020 167 1029 b 130 1036 144 1034 135 1036 b 100 1027 119 1036 109 1033 b 79 998 90 1021 83 1012 b 73 962 75 983 73 972 b 111 897 73 930 85 908 b 133 892 118 893 125 892 z "},"":{"ha":331,"x_min":0,"x_max":0,"o":"m 25 -311 b 100 -300 46 -311 71 -307 b 153 -288 130 -292 146 -288 b 185 -277 158 -288 169 -285 b 268 -257 201 -270 229 -263 b 353 -226 325 -248 353 -237 b 344 -211 353 -220 350 -215 b 327 -205 338 -207 332 -205 l 267 -216 b 216 -226 236 -222 219 -226 b 211 -161 212 -226 211 -204 l 211 -76 b 222 390 211 98 215 254 b 236 789 229 522 234 654 l 238 975 b 350 1007 304 994 342 1004 b 376 1023 366 1013 374 1019 b 379 1036 378 1028 379 1032 b 371 1048 379 1042 376 1046 b 360 1051 368 1050 364 1051 b 339 1044 354 1051 347 1049 b 299 1032 331 1040 317 1036 b 237 1017 277 1029 256 1023 b 179 1006 214 1010 195 1006 b 146 996 163 1006 152 1003 b 98 975 137 988 121 981 b 36 955 73 968 52 962 b 11 938 19 947 11 942 b 29 929 11 932 17 929 b 82 937 41 929 59 932 b 129 947 109 943 124 947 b 130 947 130 947 130 947 b 130 945 130 947 130 946 b 123 865 130 935 127 908 b 73 123 107 719 90 471 b 70 -23 71 71 70 22 b 86 -235 70 -140 75 -210 b 94 -257 91 -245 94 -253 b 44 -279 94 -261 77 -269 b 1 -298 18 -289 3 -295 l 0 -302 b 25 -311 0 -308 8 -311 z m 281 1068 b 311 1090 296 1068 305 1076 l 311 1094 b 274 1171 311 1107 298 1133 b 178 1294 249 1208 217 1249 b 60 1401 138 1338 99 1374 b -12 1430 33 1421 9 1430 b -35 1426 -20 1430 -28 1429 b -52 1393 -46 1417 -52 1407 b -14 1308 -52 1369 -39 1341 b 57 1231 1 1289 25 1263 b 257 1074 138 1147 205 1095 b 281 1068 266 1070 274 1068 z "},"":{"ha":331,"x_min":0,"x_max":0,"o":"m 25 -311 b 100 -300 46 -311 71 -307 b 153 -288 130 -292 146 -288 b 185 -277 158 -288 169 -285 b 268 -257 201 -270 229 -263 b 353 -226 325 -248 353 -237 b 344 -211 353 -220 350 -215 b 327 -205 338 -207 332 -205 l 267 -216 b 216 -226 236 -222 219 -226 b 211 -161 212 -226 211 -204 l 211 -76 b 222 390 211 98 215 254 b 236 789 229 522 234 654 l 238 975 b 350 1007 304 994 342 1004 b 376 1023 366 1013 374 1019 b 379 1036 378 1028 379 1032 b 371 1048 379 1042 376 1046 b 360 1051 368 1050 364 1051 b 339 1044 354 1051 347 1049 b 299 1032 331 1040 317 1036 b 237 1017 277 1029 256 1023 b 179 1006 214 1010 195 1006 b 146 996 163 1006 152 1003 b 98 975 137 988 121 981 b 36 955 73 968 52 962 b 11 938 19 947 11 942 b 29 929 11 932 17 929 b 82 937 41 929 59 932 b 129 947 109 943 124 947 b 130 947 130 947 130 947 b 130 945 130 947 130 946 b 123 865 130 935 127 908 b 73 123 107 719 90 471 b 70 -23 71 71 70 22 b 86 -235 70 -140 75 -210 b 94 -257 91 -245 94 -253 b 44 -279 94 -261 77 -269 b 1 -298 18 -289 3 -295 l 0 -302 b 25 -311 0 -308 8 -311 z m 98 1068 b 123 1074 105 1068 113 1070 b 323 1231 174 1095 241 1147 b 393 1308 355 1263 378 1289 b 431 1393 418 1341 431 1369 b 414 1426 431 1407 426 1417 b 391 1430 407 1429 399 1430 b 319 1401 371 1430 347 1421 b 202 1294 281 1374 241 1338 b 106 1171 163 1249 131 1208 b 68 1094 81 1133 68 1107 l 69 1090 b 98 1068 74 1076 83 1068 z "},"":{"ha":331,"x_min":0,"x_max":0,"o":"m 25 -311 b 100 -300 46 -311 71 -307 b 153 -288 130 -292 146 -288 b 185 -277 158 -288 169 -285 b 268 -257 201 -270 229 -263 b 353 -226 325 -248 353 -237 b 344 -211 353 -220 350 -215 b 327 -205 338 -207 332 -205 l 267 -216 b 216 -226 236 -222 219 -226 b 211 -161 212 -226 211 -204 l 211 -76 b 222 390 211 98 215 254 b 236 789 229 522 234 654 l 238 975 b 350 1007 304 994 342 1004 b 376 1023 366 1013 374 1019 b 379 1036 378 1028 379 1032 b 371 1048 379 1042 376 1046 b 360 1051 368 1050 364 1051 b 339 1044 354 1051 347 1049 b 299 1032 331 1040 317 1036 b 237 1017 277 1029 256 1023 b 179 1006 214 1010 195 1006 b 146 996 163 1006 152 1003 b 98 975 137 988 121 981 b 36 955 73 968 52 962 b 11 938 19 947 11 942 b 29 929 11 932 17 929 b 82 937 41 929 59 932 b 129 947 109 943 124 947 b 130 947 130 947 130 947 b 130 945 130 947 130 946 b 123 865 130 935 127 908 b 73 123 107 719 90 471 b 70 -23 71 71 70 22 b 86 -235 70 -140 75 -210 b 94 -257 91 -245 94 -253 b 44 -279 94 -261 77 -269 b 1 -298 18 -289 3 -295 l 0 -302 b 25 -311 0 -308 8 -311 z m 35 1120 b 76 1128 51 1120 64 1122 b 112 1166 87 1133 99 1145 b 191 1308 129 1193 155 1240 b 249 1226 192 1306 211 1279 b 317 1138 287 1173 309 1144 b 349 1131 326 1133 336 1131 b 379 1138 364 1131 374 1133 b 386 1150 384 1143 386 1147 b 372 1172 386 1156 381 1163 b 262 1344 327 1219 290 1276 b 224 1411 249 1376 236 1398 b 192 1426 212 1421 201 1426 b 175 1427 182 1427 177 1427 b 133 1415 160 1427 146 1423 b 100 1371 127 1410 116 1396 b 50 1286 84 1347 67 1318 b 8 1202 32 1255 18 1226 b -7 1149 -2 1178 -7 1160 b -6 1141 -7 1146 -7 1143 b 19 1120 1 1128 9 1121 b 35 1120 28 1120 34 1120 z "},"":{"ha":331,"x_min":0,"x_max":0,"o":"m 25 -311 b 100 -300 46 -311 71 -307 b 153 -288 130 -292 146 -288 b 185 -277 158 -288 169 -285 b 268 -257 201 -270 229 -263 b 353 -226 325 -248 353 -237 b 344 -211 353 -220 350 -215 b 327 -205 338 -207 332 -205 l 267 -216 b 216 -226 236 -222 219 -226 b 211 -161 212 -226 211 -204 l 211 -76 b 222 390 211 98 215 254 b 236 789 229 522 234 654 l 238 975 b 350 1007 304 994 342 1004 b 376 1023 366 1013 374 1019 b 379 1036 378 1028 379 1032 b 371 1048 379 1042 376 1046 b 360 1051 368 1050 364 1051 b 339 1044 354 1051 347 1049 b 299 1032 331 1040 317 1036 b 237 1017 277 1029 256 1023 b 179 1006 214 1010 195 1006 b 146 996 163 1006 152 1003 b 98 975 137 988 121 981 b 36 955 73 968 52 962 b 11 938 19 947 11 942 b 29 929 11 932 17 929 b 82 937 41 929 59 932 b 129 947 109 943 124 947 b 130 947 130 947 130 947 b 130 945 130 947 130 946 b 123 865 130 935 127 908 b 73 123 107 719 90 471 b 70 -23 71 71 70 22 b 86 -235 70 -140 75 -210 b 94 -257 91 -245 94 -253 b 44 -279 94 -261 77 -269 b 1 -298 18 -289 3 -295 l 0 -302 b 25 -311 0 -308 8 -311 z m 267 1118 b 320 1164 289 1118 307 1133 b 327 1200 325 1177 327 1190 b 319 1230 327 1212 324 1221 b 289 1258 311 1246 300 1255 b 263 1261 277 1260 269 1261 b 233 1253 252 1261 242 1259 b 213 1223 224 1247 217 1238 b 207 1187 209 1209 207 1198 b 244 1122 207 1156 219 1134 b 267 1118 252 1119 259 1118 z m 82 1118 b 136 1164 104 1118 123 1133 b 142 1200 140 1177 142 1190 b 135 1230 142 1212 140 1221 b 104 1258 126 1246 116 1255 b 79 1261 93 1260 84 1261 b 49 1253 68 1261 58 1259 b 28 1223 39 1247 33 1238 b 22 1187 24 1209 22 1198 b 60 1122 22 1156 35 1134 b 82 1118 67 1119 75 1118 z "},"":{"ha":800,"x_min":0,"x_max":0,"o":"m 158 -312 b 102 -273 139 -312 121 -299 b 83 -241 90 -256 83 -245 b 88 -238 83 -239 85 -238 b 98 -239 91 -238 94 -239 b 107 -241 101 -240 104 -241 b 121 -233 112 -241 116 -238 b 152 -181 135 -216 146 -198 b 159 -146 155 -172 157 -160 b 178 -27 161 -121 167 -82 l 193 54 l 243 89 b 332 140 268 105 297 122 b 423 180 371 161 401 174 l 410 138 b 206 -286 342 -77 275 -219 b 158 -312 190 -303 174 -312 z m 241 255 b 342 276 289 259 322 267 b 383 307 370 289 383 300 b 266 342 383 328 344 339 b 406 720 306 479 353 605 b 492 858 449 812 477 858 b 503 833 494 858 498 850 b 513 724 509 803 513 766 b 451 297 513 618 492 477 l 433 218 b 332 182 387 202 353 191 b 237 136 293 168 261 153 b 209 121 222 125 212 121 b 208 122 208 121 208 121 b 241 255 208 132 218 176 z m 229 344 l 193 344 b 195 569 195 395 195 469 b 193 805 195 669 195 747 b 182 913 191 863 188 899 b 165 949 176 932 170 944 b 121 960 155 956 141 960 b 94 955 111 960 102 958 b 67 922 83 951 74 941 b 45 823 60 904 53 871 b 5 333 24 692 11 528 b -68 317 -28 328 -53 323 b -98 287 -88 309 -98 298 b -37 249 -98 270 -78 258 b 3 245 -28 247 -14 246 b 1 77 2 191 1 135 b 0 -186 1 -68 1 -155 l 0 -197 b 2 -231 0 -212 1 -223 b 16 -266 4 -241 9 -253 b 176 -361 47 -330 100 -361 b 492 -82 299 -361 404 -269 b 584 198 533 4 564 98 b 592 231 589 220 591 231 b 639 239 593 231 608 233 b 743 256 667 245 702 250 b 849 288 814 265 849 276 b 838 295 849 292 845 295 b 644 270 729 283 665 275 b 609 265 629 267 617 265 l 597 265 l 607 335 b 627 587 621 429 627 513 b 619 718 627 635 625 678 b 507 895 602 836 565 895 b 443 865 484 895 463 885 b 330 636 414 830 377 753 b 229 344 292 540 258 443 z m 189 251 b 203 252 193 252 198 252 b 187 198 193 216 188 198 l 187 203 b 189 251 187 207 188 223 z "},"":{"ha":1116,"x_min":0,"x_max":0,"o":"m 221 -302 b 256 -298 235 -302 247 -301 b 284 -242 265 -292 275 -274 b 303 -165 289 -224 296 -199 b 357 45 313 -123 331 -54 b 390 163 359 52 370 92 l 414 256 b 608 731 469 465 533 623 b 673 806 632 764 654 789 b 645 629 665 753 656 695 b 616 417 631 547 622 476 b 604 154 608 334 604 247 b 608 54 604 113 605 79 b 639 -48 613 16 623 -18 b 675 -107 651 -75 663 -94 b 724 -143 686 -121 703 -133 b 808 -165 751 -158 780 -165 b 904 -136 843 -165 875 -155 b 1015 -6 941 -109 978 -66 b 1116 179 1040 35 1074 97 b 1161 273 1138 224 1154 255 b 1172 313 1168 291 1172 304 b 1158 334 1170 327 1166 334 b 1143 326 1154 334 1149 331 b 1096 251 1128 313 1112 288 b 970 7 1057 156 1015 75 b 847 -123 926 -60 884 -103 b 828 -132 838 -127 832 -130 b 818 -134 824 -134 821 -134 b 755 -47 793 -134 772 -105 b 746 60 749 -28 746 7 b 777 457 747 115 758 248 b 789 633 785 547 789 605 b 790 719 790 657 790 686 b 778 824 789 769 785 804 b 738 863 770 844 758 857 b 702 870 725 868 713 870 b 659 859 686 870 672 866 b 631 829 654 855 644 846 b 588 771 617 812 603 792 b 550 714 572 750 560 731 b 372 254 491 616 431 463 b 330 113 359 210 345 163 b 291 -17 315 64 302 20 b 269 -83 279 -54 272 -76 b 268 -45 268 -83 268 -71 b 269 54 268 -20 269 14 b 277 562 275 314 277 484 b 270 741 277 643 275 703 b 153 882 256 835 217 882 b 60 815 121 882 90 859 b 6 686 35 778 16 734 b 0 634 2 668 0 650 b 11 547 0 610 3 581 b 32 491 18 517 24 498 b 59 484 36 486 45 484 b 66 486 63 484 65 485 l 66 487 b 58 505 66 490 63 496 b 58 506 58 506 58 506 b 40 576 50 526 45 549 b 34 627 36 598 34 615 b 40 673 34 639 36 654 b 109 819 52 732 75 780 b 137 841 122 833 131 841 b 149 772 145 841 149 818 b 136 518 149 703 145 619 b 110 42 119 334 110 175 b 117 -157 110 -63 113 -130 b 183 -298 132 -237 153 -283 b 221 -302 194 -301 207 -302 z m 612 966 b 682 985 642 966 665 972 b 727 1049 707 1004 722 1025 b 734 1107 732 1073 734 1092 b 732 1140 734 1119 734 1130 b 715 1180 728 1164 722 1178 b 689 1147 707 1180 699 1169 b 671 1112 684 1134 678 1122 b 627 1089 662 1097 647 1089 b 512 1125 604 1089 565 1101 b 384 1165 456 1152 414 1165 b 333 1152 366 1165 349 1161 b 274 1056 308 1139 288 1107 b 273 1046 273 1053 273 1049 b 276 1031 273 1041 274 1036 b 291 1022 279 1025 285 1022 b 315 1041 298 1022 307 1028 b 351 1076 328 1064 340 1076 b 392 1053 361 1075 375 1067 b 565 970 435 1015 493 987 b 612 966 582 967 598 966 z "},"":{"ha":758,"x_min":0,"x_max":0,"o":"m 443 222 b 361 231 410 222 382 225 b 275 265 335 239 306 250 b 247 280 260 271 252 277 b 266 356 247 285 253 311 b 317 512 283 421 300 473 b 357 570 334 551 347 570 l 363 570 b 379 577 368 570 374 572 b 387 593 384 582 387 587 b 364 619 387 604 379 612 b 311 628 351 625 334 628 b 150 477 251 628 197 578 l 117 413 l 105 441 b 79 568 88 484 79 526 b 220 853 79 666 126 762 b 416 960 298 924 363 960 l 420 960 b 591 690 497 947 554 857 b 608 524 602 636 608 581 b 574 269 608 443 597 358 b 555 229 568 244 561 231 b 473 222 544 225 517 223 z m 276 -229 b 254 -209 270 -229 262 -222 b 212 -10 227 -165 212 -99 b 220 114 212 26 215 67 b 236 231 227 184 232 222 b 276 218 239 231 253 227 b 458 187 331 197 391 187 b 552 192 470 187 501 189 l 545 167 b 425 -79 520 87 480 5 b 356 -166 405 -109 382 -138 b 276 -229 318 -208 292 -229 z m 262 -291 b 357 -268 296 -291 327 -283 b 416 -218 373 -259 393 -243 b 568 22 469 -164 519 -84 b 627 184 595 84 616 138 l 635 212 b 739 248 683 227 718 239 b 842 311 807 275 842 296 b 829 332 842 323 838 330 b 809 335 821 334 814 335 b 747 307 785 335 765 326 b 646 254 728 288 694 271 l 659 312 b 684 534 675 387 684 461 b 644 800 684 625 671 713 b 556 949 623 867 593 917 b 410 996 519 980 470 996 b 125 849 316 996 220 947 b 0 571 41 758 0 665 b 51 393 0 511 17 451 b 93 332 59 378 73 357 l 81 281 b 45 -12 58 177 45 80 b 51 -92 45 -42 47 -68 b 218 -286 73 -199 129 -264 b 262 -291 233 -290 248 -291 z m 513 1068 b 541 1090 527 1068 536 1076 l 542 1094 b 505 1171 542 1107 530 1133 b 408 1294 479 1208 448 1249 b 291 1401 369 1338 330 1374 b 219 1430 263 1421 239 1430 b 196 1426 211 1430 203 1429 b 178 1393 184 1417 178 1407 b 217 1308 178 1369 191 1341 b 288 1231 232 1289 256 1263 b 488 1074 370 1147 436 1095 b 513 1068 497 1070 505 1068 z "},"":{"ha":758,"x_min":0,"x_max":0,"o":"m 443 222 b 361 231 410 222 382 225 b 275 265 335 239 306 250 b 247 280 260 271 252 277 b 266 356 247 285 253 311 b 317 512 283 421 300 473 b 357 570 334 551 347 570 l 363 570 b 379 577 368 570 374 572 b 387 593 384 582 387 587 b 364 619 387 604 379 612 b 311 628 351 625 334 628 b 150 477 251 628 197 578 l 117 413 l 105 441 b 79 568 88 484 79 526 b 220 853 79 666 126 762 b 416 960 298 924 363 960 l 420 960 b 591 690 497 947 554 857 b 608 524 602 636 608 581 b 574 269 608 443 597 358 b 555 229 568 244 561 231 b 473 222 544 225 517 223 z m 276 -229 b 254 -209 270 -229 262 -222 b 212 -10 227 -165 212 -99 b 220 114 212 26 215 67 b 236 231 227 184 232 222 b 276 218 239 231 253 227 b 458 187 331 197 391 187 b 552 192 470 187 501 189 l 545 167 b 425 -79 520 87 480 5 b 356 -166 405 -109 382 -138 b 276 -229 318 -208 292 -229 z m 262 -291 b 357 -268 296 -291 327 -283 b 416 -218 373 -259 393 -243 b 568 22 469 -164 519 -84 b 627 184 595 84 616 138 l 635 212 b 739 248 683 227 718 239 b 842 311 807 275 842 296 b 829 332 842 323 838 330 b 809 335 821 334 814 335 b 747 307 785 335 765 326 b 646 254 728 288 694 271 l 659 312 b 684 534 675 387 684 461 b 644 800 684 625 671 713 b 556 949 623 867 593 917 b 410 996 519 980 470 996 b 125 849 316 996 220 947 b 0 571 41 758 0 665 b 51 393 0 511 17 451 b 93 332 59 378 73 357 l 81 281 b 45 -12 58 177 45 80 b 51 -92 45 -42 47 -68 b 218 -286 73 -199 129 -264 b 262 -291 233 -290 248 -291 z m 329 1068 b 353 1074 336 1068 345 1070 b 553 1231 406 1095 472 1147 b 624 1308 585 1263 609 1289 b 663 1393 650 1341 663 1369 b 645 1426 663 1407 656 1417 b 622 1430 638 1429 631 1430 b 550 1401 602 1430 578 1421 b 433 1294 511 1374 472 1338 b 337 1171 393 1249 361 1208 b 300 1094 312 1133 300 1107 l 300 1090 b 329 1068 305 1076 315 1068 z "},"":{"ha":758,"x_min":0,"x_max":0,"o":"m 443 222 b 361 231 410 222 382 225 b 275 265 335 239 306 250 b 247 280 260 271 252 277 b 266 356 247 285 253 311 b 317 512 283 421 300 473 b 357 570 334 551 347 570 l 363 570 b 379 577 368 570 374 572 b 387 593 384 582 387 587 b 364 619 387 604 379 612 b 311 628 351 625 334 628 b 150 477 251 628 197 578 l 117 413 l 105 441 b 79 568 88 484 79 526 b 220 853 79 666 126 762 b 416 960 298 924 363 960 l 420 960 b 591 690 497 947 554 857 b 608 524 602 636 608 581 b 574 269 608 443 597 358 b 555 229 568 244 561 231 b 473 222 544 225 517 223 z m 276 -229 b 254 -209 270 -229 262 -222 b 212 -10 227 -165 212 -99 b 220 114 212 26 215 67 b 236 231 227 184 232 222 b 276 218 239 231 253 227 b 458 187 331 197 391 187 b 552 192 470 187 501 189 l 545 167 b 425 -79 520 87 480 5 b 356 -166 405 -109 382 -138 b 276 -229 318 -208 292 -229 z m 262 -291 b 357 -268 296 -291 327 -283 b 416 -218 373 -259 393 -243 b 568 22 469 -164 519 -84 b 627 184 595 84 616 138 l 635 212 b 739 248 683 227 718 239 b 842 311 807 275 842 296 b 829 332 842 323 838 330 b 809 335 821 334 814 335 b 747 307 785 335 765 326 b 646 254 728 288 694 271 l 659 312 b 684 534 675 387 684 461 b 644 800 684 625 671 713 b 556 949 623 867 593 917 b 410 996 519 980 470 996 b 125 849 316 996 220 947 b 0 571 41 758 0 665 b 51 393 0 511 17 451 b 93 332 59 378 73 357 l 81 281 b 45 -12 58 177 45 80 b 51 -92 45 -42 47 -68 b 218 -286 73 -199 129 -264 b 262 -291 233 -290 248 -291 z m 267 1120 b 307 1128 282 1120 296 1122 b 343 1166 318 1133 330 1145 b 422 1308 360 1193 387 1240 b 480 1226 423 1306 442 1279 b 548 1138 518 1173 541 1144 b 579 1131 557 1133 567 1131 b 610 1138 595 1131 606 1133 b 617 1150 615 1143 617 1147 b 604 1172 617 1156 612 1163 b 493 1344 558 1219 522 1276 b 455 1411 480 1376 467 1398 b 423 1426 443 1421 432 1426 b 406 1427 414 1427 408 1427 b 364 1415 391 1427 377 1423 b 332 1371 358 1410 347 1396 b 281 1286 315 1347 298 1318 b 239 1202 263 1255 250 1226 b 224 1149 229 1178 224 1160 b 225 1141 224 1146 224 1143 b 250 1120 232 1128 240 1121 b 267 1120 260 1120 265 1120 z "},"":{"ha":758,"x_min":0,"x_max":0,"o":"m 443 222 b 361 231 410 222 382 225 b 275 265 335 239 306 250 b 247 280 260 271 252 277 b 266 356 247 285 253 311 b 317 512 283 421 300 473 b 357 570 334 551 347 570 l 363 570 b 379 577 368 570 374 572 b 387 593 384 582 387 587 b 364 619 387 604 379 612 b 311 628 351 625 334 628 b 150 477 251 628 197 578 l 117 413 l 105 441 b 79 568 88 484 79 526 b 220 853 79 666 126 762 b 416 960 298 924 363 960 l 420 960 b 591 690 497 947 554 857 b 608 524 602 636 608 581 b 574 269 608 443 597 358 b 555 229 568 244 561 231 b 473 222 544 225 517 223 z m 276 -229 b 254 -209 270 -229 262 -222 b 212 -10 227 -165 212 -99 b 220 114 212 26 215 67 b 236 231 227 184 232 222 b 276 218 239 231 253 227 b 458 187 331 197 391 187 b 552 192 470 187 501 189 l 545 167 b 425 -79 520 87 480 5 b 356 -166 405 -109 382 -138 b 276 -229 318 -208 292 -229 z m 262 -291 b 357 -268 296 -291 327 -283 b 416 -218 373 -259 393 -243 b 568 22 469 -164 519 -84 b 627 184 595 84 616 138 l 635 212 b 739 248 683 227 718 239 b 842 311 807 275 842 296 b 829 332 842 323 838 330 b 809 335 821 334 814 335 b 747 307 785 335 765 326 b 646 254 728 288 694 271 l 659 312 b 684 534 675 387 684 461 b 644 800 684 625 671 713 b 556 949 623 867 593 917 b 410 996 519 980 470 996 b 125 849 316 996 220 947 b 0 571 41 758 0 665 b 51 393 0 511 17 451 b 93 332 59 378 73 357 l 81 281 b 45 -12 58 177 45 80 b 51 -92 45 -42 47 -68 b 218 -286 73 -199 129 -264 b 262 -291 233 -290 248 -291 z m 530 1162 b 599 1181 559 1162 582 1168 b 644 1246 624 1200 640 1222 b 652 1304 649 1270 652 1289 b 649 1337 652 1316 651 1326 b 632 1377 645 1361 640 1375 b 606 1343 625 1377 616 1366 b 589 1308 602 1331 595 1319 b 545 1286 579 1293 564 1286 b 429 1322 521 1286 482 1298 b 301 1362 374 1348 331 1362 b 250 1349 283 1362 266 1358 b 191 1253 225 1335 205 1303 b 190 1242 191 1249 190 1246 b 193 1228 190 1238 191 1233 b 208 1219 197 1222 201 1219 b 232 1238 216 1219 224 1225 b 269 1272 245 1261 257 1272 b 309 1250 279 1272 292 1264 b 482 1167 353 1212 410 1184 b 530 1162 499 1164 515 1162 z "},"":{"ha":758,"x_min":0,"x_max":0,"o":"m 443 222 b 361 231 410 222 382 225 b 275 265 335 239 306 250 b 247 280 260 271 252 277 b 266 356 247 285 253 311 b 317 512 283 421 300 473 b 357 570 334 551 347 570 l 363 570 b 379 577 368 570 374 572 b 387 593 384 582 387 587 b 364 619 387 604 379 612 b 311 628 351 625 334 628 b 150 477 251 628 197 578 l 117 413 l 105 441 b 79 568 88 484 79 526 b 220 853 79 666 126 762 b 416 960 298 924 363 960 l 420 960 b 591 690 497 947 554 857 b 608 524 602 636 608 581 b 574 269 608 443 597 358 b 555 229 568 244 561 231 b 473 222 544 225 517 223 z m 276 -229 b 254 -209 270 -229 262 -222 b 212 -10 227 -165 212 -99 b 220 114 212 26 215 67 b 236 231 227 184 232 222 b 276 218 239 231 253 227 b 458 187 331 197 391 187 b 552 192 470 187 501 189 l 545 167 b 425 -79 520 87 480 5 b 356 -166 405 -109 382 -138 b 276 -229 318 -208 292 -229 z m 262 -291 b 357 -268 296 -291 327 -283 b 416 -218 373 -259 393 -243 b 568 22 469 -164 519 -84 b 627 184 595 84 616 138 l 635 212 b 739 248 683 227 718 239 b 842 311 807 275 842 296 b 829 332 842 323 838 330 b 809 335 821 334 814 335 b 747 307 785 335 765 326 b 646 254 728 288 694 271 l 659 312 b 684 534 675 387 684 461 b 644 800 684 625 671 713 b 556 949 623 867 593 917 b 410 996 519 980 470 996 b 125 849 316 996 220 947 b 0 571 41 758 0 665 b 51 393 0 511 17 451 b 93 332 59 378 73 357 l 81 281 b 45 -12 58 177 45 80 b 51 -92 45 -42 47 -68 b 218 -286 73 -199 129 -264 b 262 -291 233 -290 248 -291 z m 507 1064 b 560 1110 529 1064 547 1080 b 567 1147 565 1124 567 1136 b 559 1176 567 1158 564 1168 b 529 1204 551 1192 541 1202 b 503 1208 517 1206 509 1208 b 473 1200 492 1208 482 1205 b 453 1170 464 1194 457 1184 b 447 1134 449 1156 447 1144 b 484 1069 447 1102 459 1080 b 507 1064 492 1065 499 1064 z m 322 1064 b 376 1110 345 1064 363 1080 b 382 1147 380 1124 382 1136 b 375 1176 382 1158 380 1168 b 345 1204 366 1192 356 1202 b 319 1208 333 1206 324 1208 b 289 1200 308 1208 298 1205 b 269 1170 279 1194 273 1184 b 262 1134 264 1156 262 1144 b 300 1069 262 1102 275 1080 b 322 1064 307 1065 315 1064 z "},"":{"ha":549,"x_min":0,"x_max":0,"o":"m 406 130 b 420 134 412 130 416 131 b 433 144 428 140 432 144 b 454 182 447 155 454 168 b 399 274 454 188 435 218 l 328 383 b 512 522 437 462 498 508 b 533 562 526 536 533 549 b 509 582 533 574 525 581 b 470 569 496 582 483 578 l 288 441 b 266 468 286 444 279 453 b 176 560 230 512 200 543 b 104 590 145 581 121 590 b 89 586 98 590 93 589 l 64 569 b 47 532 53 559 47 547 b 68 469 47 514 54 494 b 146 370 94 435 119 402 b 174 330 165 347 174 334 b 76 241 168 322 135 292 b 26 197 52 222 36 208 b 19 180 21 191 19 186 b 22 171 19 177 20 174 b 39 164 26 166 31 164 b 56 168 43 164 49 165 b 203 272 124 217 174 252 l 222 286 b 336 176 274 238 312 201 b 382 134 362 150 378 136 b 406 130 391 131 399 130 z "},"":{"ha":758,"x_min":0,"x_max":0,"o":"m 302 209 b 279 143 295 187 288 165 l 213 -44 b 212 -10 212 -33 212 -22 b 220 114 212 26 215 67 b 236 231 227 184 232 222 b 276 218 239 231 253 227 b 302 209 285 214 294 212 z m 316 247 b 275 265 303 252 289 258 b 247 280 260 271 252 277 b 266 356 247 285 253 311 b 317 512 283 421 300 473 b 357 570 334 551 347 570 l 363 570 b 379 577 368 570 374 572 b 387 593 384 582 387 587 b 364 619 387 604 379 612 b 311 628 351 625 334 628 b 150 477 251 628 197 578 l 117 413 l 105 441 b 79 568 88 484 79 526 b 220 853 79 666 126 762 b 416 960 298 924 363 960 l 420 960 b 537 854 467 952 505 917 b 316 247 496 745 422 543 z m 669 699 b 753 972 725 847 753 939 b 747 998 753 983 751 992 b 708 1020 734 1012 722 1019 b 684 1021 694 1021 686 1021 b 595 979 646 1021 617 1007 b 570 936 585 965 577 951 b 556 949 566 940 561 945 b 410 996 519 980 470 996 b 125 849 316 996 220 947 b 0 571 41 758 0 665 b 51 393 0 511 17 451 b 93 332 59 378 73 357 l 81 281 b 45 -12 58 177 45 80 b 51 -92 45 -42 47 -68 b 140 -250 66 -163 96 -216 l 109 -337 b 126 -364 109 -353 115 -362 b 151 -368 137 -367 145 -368 b 175 -364 160 -368 168 -367 b 216 -312 188 -358 201 -341 b 227 -288 219 -304 222 -296 b 262 -291 239 -290 251 -291 b 357 -268 296 -291 327 -283 b 416 -218 373 -259 393 -243 b 568 22 469 -164 519 -84 b 627 184 595 84 616 138 l 635 212 b 739 248 683 227 718 239 b 842 311 807 275 842 296 b 829 332 842 323 838 330 b 809 335 821 334 814 335 b 747 307 785 335 765 326 b 646 254 728 288 694 271 l 659 312 b 684 534 675 387 684 461 b 669 699 684 590 679 645 z m 258 -214 b 263 -200 259 -210 261 -205 b 383 68 292 -122 332 -33 b 446 187 403 104 423 144 l 458 187 b 552 192 470 187 501 189 l 545 167 b 425 -79 520 87 480 5 b 356 -166 405 -109 382 -138 b 276 -229 318 -208 292 -229 b 258 -214 271 -229 264 -224 z m 463 222 b 563 432 494 285 527 355 b 608 543 579 471 594 509 l 608 524 b 574 269 608 443 597 358 b 555 229 568 244 561 231 b 473 222 544 225 517 223 z "},"":{"ha":734,"x_min":0,"x_max":0,"o":"m 231 -200 b 273 -194 249 -200 263 -198 b 295 -178 280 -191 288 -186 b 399 59 331 -140 366 -61 b 495 404 441 212 473 326 b 503 136 497 281 500 192 b 528 -84 507 58 515 -15 b 546 -161 535 -124 541 -150 b 573 -185 552 -171 561 -179 b 610 -195 585 -191 597 -195 b 644 -183 621 -195 632 -191 b 665 -149 658 -174 665 -163 b 659 -29 665 -126 663 -87 b 653 194 655 31 653 105 b 665 601 653 360 657 496 b 678 865 673 717 678 805 b 675 917 678 895 677 912 b 644 926 670 923 659 926 b 604 914 624 926 611 922 b 562 791 595 902 581 861 b 540 706 553 761 546 732 b 500 555 531 665 518 615 b 473 460 494 532 484 501 l 429 310 b 328 -14 385 156 351 48 b 262 -140 305 -75 283 -118 l 243 -163 l 231 -136 b 178 59 211 -92 193 -26 b 162 353 168 112 162 210 b 168 671 162 431 164 536 b 171 822 170 731 171 781 b 159 899 171 867 167 892 b 136 903 153 902 146 903 b 112 906 126 905 118 906 b 52 867 85 906 64 893 b 15 680 36 837 24 774 b 0 378 5 579 0 479 b 16 144 0 277 5 199 b 89 -68 33 65 57 -6 b 185 -189 121 -130 153 -170 b 210 -198 194 -193 202 -197 b 231 -200 216 -199 223 -200 z m 500 949 b 528 972 514 949 524 957 l 529 975 b 492 1052 529 988 517 1014 b 395 1175 467 1089 435 1131 b 278 1282 356 1219 317 1255 b 206 1312 250 1302 227 1312 b 183 1307 198 1312 191 1310 b 165 1274 172 1299 165 1288 b 204 1190 165 1251 178 1223 b 275 1112 219 1171 243 1145 b 475 955 357 1029 423 976 b 500 949 484 951 492 949 z "},"":{"ha":734,"x_min":0,"x_max":0,"o":"m 231 -200 b 273 -194 249 -200 263 -198 b 295 -178 280 -191 288 -186 b 399 59 331 -140 366 -61 b 495 404 441 212 473 326 b 503 136 497 281 500 192 b 528 -84 507 58 515 -15 b 546 -161 535 -124 541 -150 b 573 -185 552 -171 561 -179 b 610 -195 585 -191 597 -195 b 644 -183 621 -195 632 -191 b 665 -149 658 -174 665 -163 b 659 -29 665 -126 663 -87 b 653 194 655 31 653 105 b 665 601 653 360 657 496 b 678 865 673 717 678 805 b 675 917 678 895 677 912 b 644 926 670 923 659 926 b 604 914 624 926 611 922 b 562 791 595 902 581 861 b 540 706 553 761 546 732 b 500 555 531 665 518 615 b 473 460 494 532 484 501 l 429 310 b 328 -14 385 156 351 48 b 262 -140 305 -75 283 -118 l 243 -163 l 231 -136 b 178 59 211 -92 193 -26 b 162 353 168 112 162 210 b 168 671 162 431 164 536 b 171 822 170 731 171 781 b 159 899 171 867 167 892 b 136 903 153 902 146 903 b 112 906 126 905 118 906 b 52 867 85 906 64 893 b 15 680 36 837 24 774 b 0 378 5 579 0 479 b 16 144 0 277 5 199 b 89 -68 33 65 57 -6 b 185 -189 121 -130 153 -170 b 210 -198 194 -193 202 -197 b 231 -200 216 -199 223 -200 z m 224 991 b 248 996 231 991 239 993 b 448 1154 300 1017 367 1070 b 519 1231 480 1186 504 1212 b 557 1316 545 1264 557 1292 b 540 1348 557 1329 551 1340 b 517 1353 532 1352 525 1353 b 445 1324 496 1353 473 1343 b 328 1217 406 1297 367 1261 b 232 1093 288 1172 256 1131 b 195 1017 207 1055 195 1029 l 195 1013 b 224 991 199 998 210 991 z "},"":{"ha":734,"x_min":0,"x_max":0,"o":"m 231 -200 b 273 -194 249 -200 263 -198 b 295 -178 280 -191 288 -186 b 399 59 331 -140 366 -61 b 495 404 441 212 473 326 b 503 136 497 281 500 192 b 528 -84 507 58 515 -15 b 546 -161 535 -124 541 -150 b 573 -185 552 -171 561 -179 b 610 -195 585 -191 597 -195 b 644 -183 621 -195 632 -191 b 665 -149 658 -174 665 -163 b 659 -29 665 -126 663 -87 b 653 194 655 31 653 105 b 665 601 653 360 657 496 b 678 865 673 717 678 805 b 675 917 678 895 677 912 b 644 926 670 923 659 926 b 604 914 624 926 611 922 b 562 791 595 902 581 861 b 540 706 553 761 546 732 b 500 555 531 665 518 615 b 473 460 494 532 484 501 l 429 310 b 328 -14 385 156 351 48 b 262 -140 305 -75 283 -118 l 243 -163 l 231 -136 b 178 59 211 -92 193 -26 b 162 353 168 112 162 210 b 168 671 162 431 164 536 b 171 822 170 731 171 781 b 159 899 171 867 167 892 b 136 903 153 902 146 903 b 112 906 126 905 118 906 b 52 867 85 906 64 893 b 15 680 36 837 24 774 b 0 378 5 579 0 479 b 16 144 0 277 5 199 b 89 -68 33 65 57 -6 b 185 -189 121 -130 153 -170 b 210 -198 194 -193 202 -197 b 231 -200 216 -199 223 -200 z m 208 1010 b 250 1018 224 1010 238 1013 b 285 1057 260 1023 272 1036 b 365 1198 302 1083 329 1131 b 422 1116 366 1196 385 1169 b 490 1028 460 1063 483 1034 b 522 1021 498 1023 509 1021 b 553 1028 537 1021 548 1023 b 559 1040 557 1033 559 1037 b 546 1062 559 1046 555 1053 b 435 1234 500 1109 464 1166 b 397 1301 422 1266 410 1289 b 365 1316 385 1311 374 1316 b 349 1317 355 1317 350 1317 b 307 1305 333 1317 319 1313 b 274 1261 300 1300 290 1286 b 223 1177 258 1237 241 1208 b 182 1093 205 1145 192 1116 b 166 1040 172 1068 166 1050 b 168 1031 166 1036 167 1034 b 193 1010 174 1018 182 1011 b 208 1010 202 1010 208 1010 z "},"":{"ha":734,"x_min":0,"x_max":0,"o":"m 231 -200 b 273 -194 249 -200 263 -198 b 295 -178 280 -191 288 -186 b 399 59 331 -140 366 -61 b 495 404 441 212 473 326 b 503 136 497 281 500 192 b 528 -84 507 58 515 -15 b 546 -161 535 -124 541 -150 b 573 -185 552 -171 561 -179 b 610 -195 585 -191 597 -195 b 644 -183 621 -195 632 -191 b 665 -149 658 -174 665 -163 b 659 -29 665 -126 663 -87 b 653 194 655 31 653 105 b 665 601 653 360 657 496 b 678 865 673 717 678 805 b 675 917 678 895 677 912 b 644 926 670 923 659 926 b 604 914 624 926 611 922 b 562 791 595 902 581 861 b 540 706 553 761 546 732 b 500 555 531 665 518 615 b 473 460 494 532 484 501 l 429 310 b 328 -14 385 156 351 48 b 262 -140 305 -75 283 -118 l 243 -163 l 231 -136 b 178 59 211 -92 193 -26 b 162 353 168 112 162 210 b 168 671 162 431 164 536 b 171 822 170 731 171 781 b 159 899 171 867 167 892 b 136 903 153 902 146 903 b 112 906 126 905 118 906 b 52 867 85 906 64 893 b 15 680 36 837 24 774 b 0 378 5 579 0 479 b 16 144 0 277 5 199 b 89 -68 33 65 57 -6 b 185 -189 121 -130 153 -170 b 210 -198 194 -193 202 -197 b 231 -200 216 -199 223 -200 z m 416 1008 b 470 1054 439 1008 457 1023 b 477 1090 475 1067 477 1080 b 469 1120 477 1102 474 1112 b 439 1148 460 1136 450 1145 b 413 1152 427 1150 418 1152 b 383 1143 402 1152 392 1149 b 363 1114 374 1137 367 1128 b 357 1078 359 1099 357 1088 b 394 1013 357 1046 369 1024 b 416 1008 401 1009 409 1008 z m 232 1008 b 286 1054 254 1008 273 1023 b 292 1090 290 1067 292 1080 b 285 1120 292 1102 290 1112 b 254 1148 276 1136 266 1145 b 229 1152 243 1150 234 1152 b 199 1143 218 1152 208 1149 b 178 1114 189 1137 182 1128 b 172 1078 174 1099 172 1088 b 210 1013 172 1046 184 1024 b 232 1008 217 1009 224 1008 z "},"":{"ha":768,"x_min":0,"x_max":0,"o":"m 473 -269 b 450 -252 466 -269 458 -263 b 433 -222 441 -241 435 -231 b 430 -194 431 -214 430 -204 b 431 -165 430 -185 431 -176 b 500 9 435 -113 458 -56 l 530 53 b 532 33 530 46 531 39 b 532 -9 532 26 532 12 l 531 -81 b 522 -194 530 -132 527 -169 b 494 -252 516 -219 507 -238 b 473 -269 486 -263 479 -269 z m 474 -314 b 551 -299 503 -314 528 -309 b 670 -115 617 -269 657 -207 b 679 52 675 -80 678 -25 l 682 198 b 747 245 705 216 726 231 b 825 289 792 274 819 289 b 838 301 831 289 836 293 l 839 307 b 810 318 839 314 829 318 b 784 314 800 318 791 317 b 757 296 777 311 768 305 b 730 276 749 290 740 283 b 704 258 720 269 711 263 b 680 243 696 254 688 248 l 682 690 b 682 836 682 773 682 821 b 677 880 681 859 679 874 b 635 894 673 889 659 894 b 602 888 621 894 609 892 b 581 865 593 884 587 877 b 557 793 574 850 566 825 b 538 701 548 760 542 729 b 524 640 536 682 531 661 b 483 538 516 617 503 583 b 378 310 441 437 406 361 b 297 194 350 258 323 220 l 273 170 l 262 190 b 202 409 239 239 218 312 b 187 594 199 430 194 492 b 174 782 182 684 178 746 b 159 845 170 817 165 838 b 125 867 151 857 139 865 b 94 870 112 869 101 870 b 58 865 82 870 70 869 b 20 838 39 860 26 851 b 0 569 7 804 0 715 b 7 428 0 509 2 463 b 37 304 12 391 22 349 b 253 96 84 165 156 96 b 340 129 292 96 321 106 b 430 306 368 162 398 221 b 521 551 486 458 516 539 l 522 551 b 532 123 529 551 532 408 l 488 71 b 418 -33 463 39 439 5 b 376 -130 397 -70 383 -102 b 367 -198 370 -155 367 -178 b 430 -307 367 -251 388 -287 b 474 -314 441 -311 456 -314 z m 220 955 b 245 960 228 955 236 957 b 445 1118 297 981 363 1034 b 515 1195 477 1150 500 1176 b 554 1280 541 1228 554 1256 b 536 1312 554 1293 548 1304 b 513 1317 530 1316 522 1317 b 441 1288 493 1317 469 1308 b 324 1181 403 1261 363 1225 b 229 1057 285 1136 253 1095 b 191 981 203 1019 191 994 l 191 977 b 220 955 197 962 206 955 z "},"":{"ha":435,"x_min":0,"x_max":0,"o":"m 83 -60 b 140 5 117 -60 136 -39 b 146 170 144 54 146 109 b 150 300 147 210 148 253 b 331 395 223 313 283 345 b 412 528 378 446 405 490 b 422 604 418 565 422 591 b 380 726 422 649 408 690 b 186 810 344 774 279 802 l 152 812 l 151 875 b 144 1034 150 927 148 981 b 125 1143 141 1088 135 1124 b 102 1162 117 1155 109 1161 b 92 1162 96 1162 92 1162 b 60 1145 79 1162 68 1156 b 35 950 51 1126 42 1061 b 18 601 27 838 22 722 b 14 291 15 480 14 376 b 31 -28 14 109 19 2 b 83 -60 41 -50 58 -60 z m 149 391 l 152 732 b 272 672 218 720 258 700 b 293 598 286 645 293 621 b 285 548 293 582 290 566 b 224 441 272 507 252 471 b 149 391 197 411 172 395 z "},"":{"ha":496,"x_min":0,"x_max":0,"o":"m 82 -163 b 119 -148 93 -163 105 -158 b 146 -46 132 -136 141 -102 b 155 137 151 9 155 70 b 157 307 156 204 157 260 l 157 442 b 163 706 157 529 159 617 b 205 1002 168 811 182 909 b 237 1080 219 1051 229 1077 b 252 1086 244 1084 249 1086 b 275 1061 260 1086 269 1078 b 288 1005 283 1041 288 1022 b 290 972 289 988 290 977 b 280 916 290 950 286 931 b 238 802 258 865 244 827 b 229 726 232 777 229 752 b 275 505 229 674 244 601 b 314 368 290 459 302 413 b 332 269 326 321 331 288 b 332 235 332 248 332 237 b 308 149 332 200 324 171 b 218 114 292 125 262 114 b 204 99 210 114 205 109 b 203 79 203 89 203 82 b 213 27 203 64 206 46 b 250 -28 220 5 233 -14 b 311 -51 266 -43 286 -51 l 319 -51 b 458 52 395 -39 442 -5 b 483 193 475 107 483 155 b 460 339 483 239 475 288 b 376 532 434 419 406 484 b 330 627 357 565 342 597 b 311 731 317 658 311 692 b 319 798 311 749 313 772 b 341 864 326 823 332 845 b 370 998 360 911 370 956 b 361 1064 370 1021 367 1043 b 300 1173 346 1124 326 1161 b 245 1191 275 1185 256 1191 b 151 1133 215 1191 183 1172 b 50 854 107 1080 73 987 b 14 381 26 722 14 564 b 18 166 14 314 15 243 l 19 109 b 25 -30 19 65 21 18 b 47 -133 28 -78 36 -113 b 82 -163 58 -153 69 -163 z "},"":{"ha":636,"x_min":0,"x_max":0,"o":"m 118 71 l 118 134 b 197 476 118 254 144 368 b 248 559 216 513 233 541 b 272 580 260 573 268 580 b 279 576 274 580 277 578 b 303 531 295 562 303 547 b 301 517 303 526 302 522 b 288 463 299 512 295 494 b 215 258 283 435 258 366 b 160 139 193 202 174 163 z m 412 -113 b 553 18 460 -113 508 -70 b 603 125 568 47 585 83 b 641 225 621 168 633 201 b 667 288 646 245 655 266 l 677 308 b 687 328 684 320 687 327 b 675 331 687 330 683 331 b 644 304 665 331 655 322 b 551 120 621 269 591 208 b 446 -56 511 28 475 -30 l 420 -81 l 412 -64 b 389 66 403 -44 395 -1 b 388 97 388 75 388 85 b 417 482 388 191 397 320 b 422 544 420 513 422 534 b 421 562 422 553 422 559 b 404 575 418 570 412 574 l 388 576 l 352 574 b 334 578 342 574 336 576 b 328 587 332 580 330 583 b 294 613 319 602 308 611 b 264 616 279 615 270 616 b 80 487 197 616 136 573 b -5 283 41 427 12 359 b -15 193 -12 252 -15 222 b -12 140 -15 175 -14 157 b 28 38 -5 95 8 60 b 74 9 45 20 61 11 b 98 7 87 7 95 7 b 151 26 117 7 135 13 b 241 200 178 52 208 110 l 269 277 l 273 203 b 412 -113 285 -8 331 -113 z m 422 728 b 450 750 436 728 446 735 l 451 753 b 414 830 451 766 439 792 b 317 954 389 867 357 909 b 200 1061 278 998 239 1034 b 129 1090 172 1080 149 1090 b 105 1085 120 1090 113 1088 b 88 1053 94 1077 88 1066 b 126 968 88 1029 101 1001 b 197 890 141 949 165 923 b 397 733 279 807 345 754 b 422 728 406 730 414 728 z "},"":{"ha":636,"x_min":0,"x_max":0,"o":"m 118 71 l 118 134 b 197 476 118 254 144 368 b 248 559 216 513 233 541 b 272 580 260 573 268 580 b 279 576 274 580 277 578 b 303 531 295 562 303 547 b 301 517 303 526 302 522 b 288 463 299 512 295 494 b 215 258 283 435 258 366 b 160 139 193 202 174 163 z m 412 -113 b 553 18 460 -113 508 -70 b 603 125 568 47 585 83 b 641 225 621 168 633 201 b 667 288 646 245 655 266 l 677 308 b 687 328 684 320 687 327 b 675 331 687 330 683 331 b 644 304 665 331 655 322 b 551 120 621 269 591 208 b 446 -56 511 28 475 -30 l 420 -81 l 412 -64 b 389 66 403 -44 395 -1 b 388 97 388 75 388 85 b 417 482 388 191 397 320 b 422 544 420 513 422 534 b 421 562 422 553 422 559 b 404 575 418 570 412 574 l 388 576 l 352 574 b 334 578 342 574 336 576 b 328 587 332 580 330 583 b 294 613 319 602 308 611 b 264 616 279 615 270 616 b 80 487 197 616 136 573 b -5 283 41 427 12 359 b -15 193 -12 252 -15 222 b -12 140 -15 175 -14 157 b 28 38 -5 95 8 60 b 74 9 45 20 61 11 b 98 7 87 7 95 7 b 151 26 117 7 135 13 b 241 200 178 52 208 110 l 269 277 l 273 203 b 412 -113 285 -8 331 -113 z m 45 656 b 69 661 52 656 60 658 b 269 819 121 682 188 735 b 340 896 301 851 325 877 b 378 981 366 929 378 957 b 361 1013 378 994 372 1005 b 338 1018 354 1017 347 1018 b 266 989 317 1018 294 1008 b 149 882 227 962 188 926 b 53 758 109 837 77 795 b 16 682 28 720 16 694 l 16 678 b 45 656 21 663 31 656 z "},"":{"ha":636,"x_min":0,"x_max":0,"o":"m 118 71 l 118 134 b 197 476 118 254 144 368 b 248 559 216 513 233 541 b 272 580 260 573 268 580 b 279 576 274 580 277 578 b 303 531 295 562 303 547 b 301 517 303 526 302 522 b 288 463 299 512 295 494 b 215 258 283 435 258 366 b 160 139 193 202 174 163 z m 412 -113 b 553 18 460 -113 508 -70 b 603 125 568 47 585 83 b 641 225 621 168 633 201 b 667 288 646 245 655 266 l 677 308 b 687 328 684 320 687 327 b 675 331 687 330 683 331 b 644 304 665 331 655 322 b 551 120 621 269 591 208 b 446 -56 511 28 475 -30 l 420 -81 l 412 -64 b 389 66 403 -44 395 -1 b 388 97 388 75 388 85 b 417 482 388 191 397 320 b 422 544 420 513 422 534 b 421 562 422 553 422 559 b 404 575 418 570 412 574 l 388 576 l 352 574 b 334 578 342 574 336 576 b 328 587 332 580 330 583 b 294 613 319 602 308 611 b 264 616 279 615 270 616 b 80 487 197 616 136 573 b -5 283 41 427 12 359 b -15 193 -12 252 -15 222 b -12 140 -15 175 -14 157 b 28 38 -5 95 8 60 b 74 9 45 20 61 11 b 98 7 87 7 95 7 b 151 26 117 7 135 13 b 241 200 178 52 208 110 l 269 277 l 273 203 b 412 -113 285 -8 331 -113 z m 77 663 b 117 671 92 663 106 666 b 153 710 128 676 140 689 b 233 851 170 736 197 784 b 290 770 233 850 252 823 b 358 682 328 717 351 688 b 389 674 367 677 377 674 b 420 682 405 674 416 677 b 427 694 425 686 427 690 b 414 715 427 700 422 707 b 303 888 368 762 332 819 b 265 955 290 920 277 942 b 233 970 253 964 242 969 b 216 970 224 970 218 970 b 174 958 201 970 187 966 b 142 915 168 954 157 939 b 91 830 125 890 109 862 b 50 746 73 798 60 770 b 35 693 39 722 35 704 b 35 685 35 690 35 687 b 60 664 42 671 50 665 b 77 663 70 663 75 663 z "}}}
